<svg width="365" height="102" viewBox="0 0 365 102" fill="none" xmlns="http://www.w3.org/2000/svg">
<path d="M23.2978 51.1459C32.7761 51.1459 40.5179 58.8751 40.5179 68.338C40.5179 77.8009 32.7761 85.5302 23.2978 85.5302H8.5377V100.09C8.5377 102.402 6.58415 101.783 4.26885 101.783C1.95354 101.783 0 99.9052 0 97.5936V55.4078C0 53.0963 1.95354 51.1459 4.26885 51.1459H23.2978ZM23.2978 77.0786C28.1455 77.0786 32.0525 73.1778 32.0525 68.338C32.0525 63.4982 28.1455 59.5975 23.2978 59.5975H8.5377V77.0786H23.2978Z" fill="#96D2EE"/>
<path d="M57.7097 67.399C66.1027 67.399 73.0486 74.2614 73.0486 82.6408V99.5259C73.0486 101.91 71.0951 101.783 68.7798 101.783C66.3921 101.783 64.4386 99.9052 64.4386 97.5214V82.6408C64.4386 79.029 61.3997 75.9228 57.7097 75.9228C54.0197 75.9228 50.9809 79.029 50.9809 82.6408L51.3438 100.09C51.3438 102.474 49.0997 101.783 46.712 101.783C44.3967 101.783 42.4431 99.9052 42.4431 97.5214V53.2498C42.4431 50.866 44.3967 51.0014 46.712 51.0014C49.0997 51.0014 50.9809 52.8795 50.9809 55.2633V68.9882C53.0067 67.9769 55.322 67.399 57.7097 67.399Z" fill="#96D2EE"/>
<path d="M111.697 84.8078V85.0245C111.697 85.169 111.697 85.2412 111.697 85.3135V99.5259C111.697 101.765 109.961 101.928 107.862 101.928C105.764 101.928 104.1 100.266 103.883 98.1715C101.278 100.411 98.0947 102 94.4771 102C84.9264 102 77.257 94.343 77.257 84.8078C77.257 75.4172 84.9264 67.6157 94.4771 67.6157C103.955 67.6157 111.697 75.4172 111.697 84.8078ZM94.4771 93.5484C99.3248 93.5484 103.232 89.5754 103.232 84.8078C103.232 80.0403 99.3248 76.0673 94.4771 76.0673C89.7018 76.0673 85.7223 80.0403 85.7223 84.8078C85.7223 89.5754 89.7018 93.5484 94.4771 93.5484Z" fill="#96D2EE"/>
<path d="M121.397 101.783C119.082 101.783 117.128 99.9052 117.128 97.5936V82.424C117.128 74.1169 123.929 67.2545 132.322 67.2545C138.834 67.2545 144.55 71.3719 146.721 77.5842C147.444 79.7513 146.287 82.2073 144.044 82.9297C141.801 83.7243 139.413 82.4963 138.617 80.257C137.677 77.5842 135.217 75.7783 132.322 75.7783C128.632 75.7783 125.666 78.74 125.666 82.424V99.5259C125.666 101.837 123.712 101.783 121.397 101.783Z" fill="#96D2EE"/>
<path d="M185.546 67.4712C193.433 67.4712 199.8 73.7557 199.8 81.6295V99.5259C199.8 101.91 197.919 101.783 195.531 101.783C193.143 101.783 191.19 99.9052 191.19 97.5214V81.6295C191.19 78.4511 188.657 75.9228 185.546 75.9228C182.435 75.9228 179.903 78.4511 179.903 81.6295V99.5259C179.903 101.91 177.949 101.783 175.634 101.783C173.246 101.783 171.365 101.91 171.365 99.5259V81.6295C171.365 78.4511 168.76 75.9228 165.721 75.9228C162.61 75.9228 160.078 78.4511 160.078 81.6295V99.5259C160.078 101.91 158.124 101.783 155.737 101.783C153.349 101.783 151.468 99.9052 151.468 97.5214V81.6295C151.468 73.7557 157.835 67.4712 165.721 67.4712C169.556 67.4712 173.101 68.9882 175.634 71.5164C178.166 68.9882 181.711 67.4712 185.546 67.4712Z" fill="#96D2EE"/>
<path d="M238.528 84.8078V85.0245C238.528 85.169 238.528 85.2412 238.528 85.3135V99.5259C238.528 101.765 236.791 101.928 234.693 101.928C232.595 101.928 230.93 100.266 230.713 98.1715C228.109 100.411 224.925 102 221.307 102C211.757 102 204.087 94.343 204.087 84.8078C204.087 75.4172 211.757 67.6157 221.307 67.6157C230.786 67.6157 238.528 75.4172 238.528 84.8078ZM221.307 93.5484C226.155 93.5484 230.062 89.5754 230.062 84.8078C230.062 80.0403 226.155 76.0673 221.307 76.0673C216.532 76.0673 212.553 80.0403 212.553 84.8078C212.553 89.5754 216.532 93.5484 221.307 93.5484Z" fill="#96D2EE"/>
<path d="M263.127 51.2181C277.164 51.2181 288.523 62.5592 288.523 76.4285C288.523 90.4422 277.164 101.783 263.127 101.783H250.393C248.295 101.711 246.413 99.9774 246.196 98.027C246.196 97.9548 246.124 97.7381 246.124 97.5214V55.4078C246.124 53.0963 248.005 51.2181 250.393 51.2181H263.127ZM263.127 93.4039C272.461 93.4039 280.058 85.8191 280.058 76.4285C280.058 67.11 272.461 59.5975 263.127 59.5975H254.589V93.3317L263.127 93.4039Z" fill="#FF4242"/>
<path d="M327.203 84.8078V85.0245C327.203 85.169 327.203 85.2412 327.203 85.3135V99.5259C327.203 101.765 325.466 101.928 323.368 101.928C321.27 101.928 319.606 100.266 319.389 98.1715C316.784 100.411 313.6 102 309.983 102C300.432 102 292.763 94.343 292.763 84.8078C292.763 75.4172 300.432 67.6157 309.983 67.6157C319.461 67.6157 327.203 75.4172 327.203 84.8078ZM309.983 93.5484C314.83 93.5484 318.737 89.5754 318.737 84.8078C318.737 80.0403 314.83 76.0673 309.983 76.0673C305.207 76.0673 301.228 80.0403 301.228 84.8078C301.228 89.5754 305.207 93.5484 309.983 93.5484Z" fill="#FF4242"/>
<path d="M347.611 101.783C338.205 101.783 332.127 95.3543 332.127 85.5302V55.48C332.127 53.0963 334.008 51.2181 336.396 51.2181C338.711 51.2181 340.665 53.0963 340.665 55.48V85.5302C340.665 91.3813 343.631 93.2594 347.611 93.2594C349.999 93.2594 352.062 97.1422 352.062 99.5259C352.062 101.91 349.999 101.783 347.611 101.783Z" fill="#FF4242"/>
<path d="M360.297 63.8594C357.692 63.8594 355.594 61.6201 355.594 59.0918C355.594 56.4191 357.692 54.3965 360.297 54.3965C362.902 54.3965 365 56.4191 365 59.0918C365 61.6201 362.902 63.8594 360.297 63.8594ZM360.225 101.783C357.909 101.783 356.028 99.9052 356.028 97.5214V71.7331C356.028 69.4216 357.909 67.4712 360.225 67.4712C362.612 67.4712 364.566 69.4216 364.566 71.7331V99.5259C364.566 101.91 362.612 101.783 360.225 101.783Z" fill="#FF4242"/>
<path d="M153.592 10.2559C158.923 5.23091 167.341 5.51894 172.366 10.8496C177.429 16.221 177.182 24.6005 171.851 29.6255C169.898 31.4668 169.001 32.4048 166.496 32.8452L174.982 40.7653C177.957 43.8895 175.112 45.2333 173.85 46.4225C172.67 47.5349 172.249 48.2903 171.021 46.9882L153.188 29.312C153.111 29.2306 153.073 29.19 152.996 29.1086C147.971 23.7779 148.262 15.281 153.592 10.2559ZM167.363 24.8645C170.049 22.3328 170.177 17.985 167.646 15.2993C165.076 12.5729 160.766 12.4853 158.08 15.017C155.354 17.587 155.187 21.8942 157.757 24.6206C160.289 27.3063 164.637 27.4346 167.363 24.8645Z" fill="#96D2EE"/>
<path d="M201.907 15.1922C201.951 15.2387 201.754 15.727 201.468 16.2807C200.975 17.2386 200.949 17.2609 200.942 16.7347C200.937 16.3581 201.04 16.1243 201.265 16.0039C201.449 15.9059 201.649 15.6651 201.711 15.4691C201.774 15.2713 201.862 15.1475 201.907 15.1922Z" fill="#FF4242"/>
<path d="M201.907 15.1922C201.897 15.1836 201.885 15.1819 201.871 15.187C202.23 14.5061 202.753 13.3522 203.523 11.5552C204.275 9.80294 205.026 8.22089 205.19 8.03862C205.792 7.37313 206.777 7.01201 207.764 7.09455C209.32 7.22352 210.391 8.33955 210.391 9.83389C210.391 10.2947 210.319 10.8055 210.23 10.9688C210.068 11.2715 209.064 13.9816 208.242 16.3409C207.994 17.0494 207.723 17.7854 207.637 17.9745C207.549 18.1637 206.694 20.523 205.736 23.2193C202.094 33.4596 201.845 34.0649 200.32 36.3847C198.996 38.3966 197.438 39.9941 194.318 42.5374C187.712 47.9267 182.933 51.8336 182.532 52.1724C181.22 53.285 180.341 53.9728 180.009 54.1465C179.801 54.2548 179.569 54.3443 179.494 54.3425C179.303 54.3425 178.35 53.8387 178.238 53.6805C178.19 53.61 176.911 52.4062 175.397 51.0048C174.981 49.8168 175.547 51.6309 175.547 50.9482C175.547 50.3103 175.255 50.7713 179.494 46.9882L183.467 43.5939L177.667 39.0466C176.197 37.4577 176.008 35.9186 177.12 34.5963C177.667 33.9463 178.914 33.3633 179.738 33.3719C180.665 33.3822 181.304 33.7863 182.967 35.4028C185.172 37.5471 186.996 38.2246 189.539 37.8498C191.875 37.5041 194.096 35.8344 195.206 33.5903C195.759 32.4708 195.852 32.1063 195.911 30.8131C195.967 29.5974 195.912 29.1468 195.613 28.3541C195.101 26.9939 194.372 26.0601 193.281 25.362C190.489 23.5753 186.73 24.0172 184.333 26.4144C183.309 27.4375 184.348 25.6278 183.87 27.16C183.457 28.4875 182.983 29.1237 182.08 29.5605C180.496 30.3275 178.998 29.7944 178.163 28.1642C177.714 27.2889 177.75 26.7025 178.362 24.8729C179.623 21.1052 180.446 20.9821 183.87 19.2728C185.619 18.401 187.019 18.0657 188.929 18.0622C189.751 18.0622 190.468 17.99 190.521 17.9023C190.621 17.7424 189.65 16.7588 188.19 15.5413C185.904 13.6308 183.034 10.8966 182.8 10.4031C182.14 9.0102 182.766 7.1341 184.126 6.43078C184.788 6.08686 186.289 6.07826 186.919 6.41358C187.203 6.56491 188.332 7.48662 189.428 8.46164C194.016 12.5457 195.089 13.4382 195.152 13.2164C195.188 13.0908 195.464 11.4005 195.766 9.46245C196.069 7.52445 196.385 5.55034 196.468 5.07745C196.552 4.60456 196.669 3.7843 196.729 3.25294C197.006 0.838612 198.966 -0.530197 201.025 0.255665C202.607 0.859248 202.964 1.90649 202.572 4.79028C202.048 8.66284 201.953 9.40055 201.613 12.2998C201.425 13.9076 201.233 15.3968 201.185 15.6101C201.138 15.8233 201.171 15.997 201.257 15.997C201.266 15.997 201.274 15.9952 201.283 15.9935C201.278 15.997 201.272 16.0004 201.266 16.0038C201.04 16.1242 200.937 16.3581 200.942 16.7347C200.949 17.2609 200.975 17.2385 201.468 16.2807C201.754 15.727 201.952 15.2386 201.907 15.1922ZM201.706 15.4862C201.661 15.6101 201.565 15.7493 201.455 15.8594C201.525 15.7751 201.608 15.653 201.706 15.4862Z" fill="#FF4242"/>
<path d="M201.907 15.1922C201.897 15.1836 201.885 15.1819 201.871 15.187C202.23 14.5061 202.753 13.3522 203.523 11.5552C204.275 9.80294 205.026 8.22089 205.19 8.03862C205.792 7.37313 206.777 7.01201 207.764 7.09455C209.32 7.22352 210.391 8.33955 210.391 9.83389C210.391 10.2947 210.319 10.8055 210.23 10.9688C210.068 11.2715 209.064 13.9816 208.242 16.3409C207.994 17.0494 207.723 17.7854 207.637 17.9745C207.549 18.1637 206.694 20.523 205.736 23.2193C202.094 33.4596 201.845 34.0649 200.32 36.3847C198.996 38.3966 197.438 39.9941 194.318 42.5374C187.712 47.9267 182.933 51.8336 182.532 52.1724C181.22 53.285 180.341 53.9728 180.009 54.1465C179.801 54.2548 179.569 54.3443 179.494 54.3425C179.303 54.3425 178.35 53.8387 178.238 53.6805C178.19 53.61 176.911 52.4062 175.397 51.0048C174.981 49.8168 175.547 51.6309 175.547 50.9482C175.547 50.3103 175.255 50.7713 179.494 46.9882L183.467 43.5939L177.667 39.0466C176.197 37.4577 176.008 35.9186 177.12 34.5963C177.667 33.9463 178.914 33.3633 179.738 33.3719C180.665 33.3822 181.304 33.7863 182.967 35.4028C185.172 37.5471 186.996 38.2246 189.539 37.8498C191.875 37.5041 194.096 35.8344 195.206 33.5903C195.759 32.4708 195.852 32.1063 195.911 30.8131C195.967 29.5974 195.912 29.1468 195.613 28.3541C195.101 26.9939 194.372 26.0601 193.281 25.362C190.489 23.5753 186.73 24.0172 184.333 26.4144C183.309 27.4375 184.348 25.6278 183.87 27.16C183.457 28.4875 182.983 29.1237 182.08 29.5605C180.496 30.3275 178.998 29.7944 178.163 28.1642C177.714 27.2889 177.75 26.7025 178.362 24.8729C179.623 21.1052 180.446 20.9821 183.87 19.2728C185.619 18.401 187.019 18.0657 188.929 18.0622C189.751 18.0622 190.468 17.99 190.521 17.9023C190.621 17.7424 189.65 16.7588 188.19 15.5413C185.904 13.6308 183.034 10.8966 182.8 10.4031C182.14 9.0102 182.766 7.1341 184.126 6.43078C184.788 6.08686 186.289 6.07826 186.919 6.41358C187.203 6.56491 188.332 7.48662 189.428 8.46164C194.016 12.5457 195.089 13.4382 195.152 13.2164C195.188 13.0908 195.464 11.4005 195.766 9.46245C196.069 7.52445 196.385 5.55034 196.468 5.07745C196.552 4.60456 196.669 3.7843 196.729 3.25294C197.006 0.838612 198.966 -0.530197 201.025 0.255665C202.607 0.859248 202.964 1.90649 202.572 4.79028C202.048 8.66284 201.953 9.40055 201.613 12.2998C201.425 13.9076 201.233 15.3968 201.185 15.6101C201.138 15.8233 201.171 15.997 201.257 15.997C201.266 15.997 201.274 15.9952 201.283 15.9935C201.278 15.997 201.272 16.0004 201.266 16.0038C201.04 16.1242 200.937 16.3581 200.942 16.7347C200.949 17.2609 200.975 17.2385 201.468 16.2807C201.754 15.727 201.952 15.2386 201.907 15.1922ZM201.706 15.4862C201.661 15.6101 201.565 15.7493 201.455 15.8594C201.525 15.7751 201.608 15.653 201.706 15.4862Z" fill="#FF4242"/>
<path d="M180.442 53.8051C180.765 53.6324 181.619 52.9484 182.896 51.8422C183.225 51.5575 186.596 48.7396 191.511 44.6398C188.869 46.1516 186.855 45.5608 183.806 43.3125L178.718 47.25C175.55 49.5 175 50.0625 175 50.0625C175.55 50.625 175.955 50.6812 175.955 50.6812C177.427 52.0747 178.672 53.2716 178.718 53.3417C178.827 53.499 179.754 54 179.94 54C180.013 54.0017 180.239 53.9128 180.442 53.8051Z" fill="#E53030"/>
<g filter="url(#filter0_i_63_8)">
<rect x="175.301" y="27.9583" width="10.8591" height="4.76833" rx="2.38416" transform="rotate(14.7951 175.301 27.9583)" fill="white"/>
</g>
<mask id="mask0_63_8" style="mask-type:alpha" maskUnits="userSpaceOnUse" x="178" y="28" width="12" height="13">
<rect x="181.012" y="28.4416" width="9" height="10" transform="rotate(14.7951 181.012 28.4416)" fill="#D9D9D9"/>
</mask>
<g mask="url(#mask0_63_8)">
<g filter="url(#filter1_i_63_8)">
<rect x="175.296" y="27.9642" width="10.8591" height="4.76833" rx="2.38416" transform="rotate(14.7223 175.296 27.9642)" fill="#96D2EE"/>
</g>
</g>
<defs>
<filter id="filter0_i_63_8" x="174.612" y="28.4875" width="10.6583" height="6.32483" filterUnits="userSpaceOnUse" color-interpolation-filters="sRGB">
<feFlood flood-opacity="0" result="BackgroundImageFix"/>
<feBlend mode="normal" in="SourceGraphic" in2="BackgroundImageFix" result="shape"/>
<feColorMatrix in="SourceAlpha" type="matrix" values="0 0 0 0 0 0 0 0 0 0 0 0 0 0 0 0 0 0 127 0" result="hardAlpha"/>
<feMorphology radius="4" operator="dilate" in="SourceAlpha" result="effect1_innerShadow_63_8"/>
<feOffset dy="5"/>
<feComposite in2="hardAlpha" operator="arithmetic" k2="-1" k3="1"/>
<feColorMatrix type="matrix" values="0 0 0 0 0 0 0 0 0 0 0 0 0 0 0 0 0 0 0.25 0"/>
<feBlend mode="normal" in2="shape" result="effect1_innerShadow_63_8"/>
</filter>
<filter id="filter1_i_63_8" x="174.611" y="28.4913" width="10.6604" height="6.31738" filterUnits="userSpaceOnUse" color-interpolation-filters="sRGB">
<feFlood flood-opacity="0" result="BackgroundImageFix"/>
<feBlend mode="normal" in="SourceGraphic" in2="BackgroundImageFix" result="shape"/>
<feColorMatrix in="SourceAlpha" type="matrix" values="0 0 0 0 0 0 0 0 0 0 0 0 0 0 0 0 0 0 127 0" result="hardAlpha"/>
<feMorphology radius="4" operator="dilate" in="SourceAlpha" result="effect1_innerShadow_63_8"/>
<feOffset dy="5"/>
<feComposite in2="hardAlpha" operator="arithmetic" k2="-1" k3="1"/>
<feColorMatrix type="matrix" values="0 0 0 0 0 0 0 0 0 0 0 0 0 0 0 0 0 0 0.25 0"/>
<feBlend mode="normal" in2="shape" result="effect1_innerShadow_63_8"/>
</filter>
</defs>
</svg>
