<svg width="24" height="24" viewBox="0 0 24 24" fill="none" xmlns="http://www.w3.org/2000/svg">
<mask id="mask0_82_688" style="mask-type:alpha" maskUnits="userSpaceOnUse" x="0" y="0" width="24" height="24">
<rect width="24" height="24" fill="#D9D9D9"/>
</mask>
<g mask="url(#mask0_82_688)">
<path d="M3.99994 18.0001V7.10008L2.44994 3.75008C2.33328 3.50008 2.32494 3.24591 2.42494 2.98758C2.52494 2.72924 2.69994 2.54174 2.94994 2.42508C3.19994 2.30841 3.45411 2.29591 3.71244 2.38758C3.97078 2.47924 4.15828 2.65008 4.27494 2.90008L6.19994 7.05008H17.7999L19.7249 2.90008C19.8416 2.65008 20.0291 2.47508 20.2874 2.37508C20.5458 2.27508 20.7999 2.29174 21.0499 2.42508C21.2999 2.54174 21.4749 2.72924 21.5749 2.98758C21.6749 3.24591 21.6666 3.50008 21.5499 3.75008L19.9999 7.10008V18.0001C19.9999 18.5501 19.8041 19.0209 19.4124 19.4126C19.0208 19.8042 18.5499 20.0001 17.9999 20.0001H5.99994C5.44994 20.0001 4.97911 19.8042 4.58744 19.4126C4.19578 19.0209 3.99994 18.5501 3.99994 18.0001ZM9.99994 13.0001H13.9999C14.2833 13.0001 14.5208 12.9042 14.7124 12.7126C14.9041 12.5209 14.9999 12.2834 14.9999 12.0001C14.9999 11.7167 14.9041 11.4792 14.7124 11.2876C14.5208 11.0959 14.2833 11.0001 13.9999 11.0001H9.99994C9.71661 11.0001 9.47911 11.0959 9.28744 11.2876C9.09578 11.4792 8.99994 11.7167 8.99994 12.0001C8.99994 12.2834 9.09578 12.5209 9.28744 12.7126C9.47911 12.9042 9.71661 13.0001 9.99994 13.0001Z" fill="white"/>
</g>
</svg>
