<svg width="20" height="20" viewBox="0 0 20 20" fill="none" xmlns="http://www.w3.org/2000/svg">
<mask id="mask0_272_2101" style="mask-type:alpha" maskUnits="userSpaceOnUse" x="0" y="0" width="20" height="20">
<rect width="19.2154" height="19.2154" fill="#D9D9D9"/>
</mask>
<g mask="url(#mask0_272_2101)">
<path d="M9.60776 15.4922C11.2357 13.9977 12.4434 12.6399 13.2307 11.4189C14.018 10.198 14.4116 9.11375 14.4116 8.16633C14.4116 6.71183 13.9479 5.52088 13.0205 4.59347C12.0931 3.66606 10.9555 3.20236 9.60776 3.20236C8.26002 3.20236 7.12244 3.66606 6.19503 4.59347C5.26762 5.52088 4.80392 6.71183 4.80392 8.16633C4.80392 9.11375 5.19757 10.198 5.98486 11.4189C6.77216 12.6399 7.97979 13.9977 9.60776 15.4922ZM9.60776 17.0735C9.42095 17.0735 9.23413 17.0401 9.04731 16.9734C8.8605 16.9067 8.6937 16.8066 8.54691 16.6731C7.67955 15.8725 6.91227 15.0919 6.24507 14.3313C5.57787 13.5707 5.02076 12.8334 4.57373 12.1195C4.12671 11.4056 3.78644 10.7184 3.55292 10.0578C3.3194 9.39731 3.20264 8.76681 3.20264 8.16633C3.20264 6.16473 3.84649 4.57012 5.13418 3.3825C6.42188 2.19488 7.91307 1.60107 9.60776 1.60107C11.3025 1.60107 12.7936 2.19488 14.0813 3.3825C15.369 4.57012 16.0129 6.16473 16.0129 8.16633C16.0129 8.76681 15.8961 9.39731 15.6626 10.0578C15.4291 10.7184 15.0888 11.4056 14.6418 12.1195C14.1948 12.8334 13.6377 13.5707 12.9705 14.3313C12.3033 15.0919 11.536 15.8725 10.6686 16.6731C10.5218 16.8066 10.355 16.9067 10.1682 16.9734C9.9814 17.0401 9.79458 17.0735 9.60776 17.0735ZM9.60776 9.60748C10.0481 9.60748 10.4251 9.45069 10.7387 9.13711C11.0523 8.82352 11.209 8.44655 11.209 8.0062C11.209 7.56585 11.0523 7.18888 10.7387 6.8753C10.4251 6.56171 10.0481 6.40492 9.60776 6.40492C9.16741 6.40492 8.79044 6.56171 8.47686 6.8753C8.16327 7.18888 8.00648 7.56585 8.00648 8.0062C8.00648 8.44655 8.16327 8.82352 8.47686 9.13711C8.79044 9.45069 9.16741 9.60748 9.60776 9.60748Z" fill="#FF6161"/>
</g>
</svg>
