<svg width="21" height="21" viewBox="0 0 21 21" fill="none" xmlns="http://www.w3.org/2000/svg">
<mask id="mask0_517_920" style="mask-type:alpha" maskUnits="userSpaceOnUse" x="0" y="0" width="21" height="21">
<rect width="20.4" height="20.4" fill="#D9D9D9"/>
</mask>
<g mask="url(#mask0_517_920)">
<path d="M4.2498 17.85C3.7823 17.85 3.3821 17.6836 3.04918 17.3507C2.71626 17.0178 2.5498 16.6175 2.5498 16.15V4.25005C2.5498 3.78255 2.71626 3.38234 3.04918 3.04942C3.3821 2.71651 3.7823 2.55005 4.2498 2.55005H16.1498C16.6173 2.55005 17.0175 2.71651 17.3504 3.04942C17.6833 3.38234 17.8498 3.78255 17.8498 4.25005V10.2C17.8498 10.4409 17.7683 10.6428 17.6054 10.8057C17.4425 10.9686 17.2406 11.05 16.9998 11.05C16.759 11.05 16.5571 10.9686 16.3942 10.8057C16.2313 10.6428 16.1498 10.4409 16.1498 10.2V4.25005H4.2498V16.15H9.3498C9.59064 16.15 9.79251 16.2315 9.95543 16.3944C10.1183 16.5573 10.1998 16.7592 10.1998 17C10.1998 17.2409 10.1183 17.4428 9.95543 17.6057C9.79251 17.7686 9.59064 17.85 9.3498 17.85H4.2498ZM14.7473 16.2988L17.7436 13.2813C17.9136 13.1113 18.1154 13.0263 18.3492 13.0263C18.5829 13.0263 18.7848 13.1113 18.9548 13.2813C19.1248 13.4513 19.2098 13.6532 19.2098 13.8869C19.2098 14.1207 19.1248 14.3225 18.9548 14.4925L15.3423 18.1051C15.1723 18.2751 14.9704 18.36 14.7367 18.36C14.5029 18.36 14.3011 18.2751 14.1311 18.1051L12.3248 16.2988C12.169 16.1288 12.0911 15.9269 12.0911 15.6932C12.0911 15.4594 12.1761 15.2575 12.3461 15.0875C12.5161 14.9175 12.7144 14.8325 12.9411 14.8325C13.1677 14.8325 13.3661 14.9175 13.5361 15.0875L14.7473 16.2988ZM6.7998 11.05C7.04064 11.05 7.24251 10.9686 7.40543 10.8057C7.56835 10.6428 7.6498 10.4409 7.6498 10.2C7.6498 9.95922 7.56835 9.75734 7.40543 9.59442C7.24251 9.43151 7.04064 9.35005 6.7998 9.35005C6.55897 9.35005 6.3571 9.43151 6.19418 9.59442C6.03126 9.75734 5.9498 9.95922 5.9498 10.2C5.9498 10.4409 6.03126 10.6428 6.19418 10.8057C6.3571 10.9686 6.55897 11.05 6.7998 11.05ZM6.7998 7.65005C7.04064 7.65005 7.24251 7.56859 7.40543 7.40567C7.56835 7.24276 7.6498 7.04088 7.6498 6.80005C7.6498 6.55922 7.56835 6.35734 7.40543 6.19442C7.24251 6.03151 7.04064 5.95005 6.7998 5.95005C6.55897 5.95005 6.3571 6.03151 6.19418 6.19442C6.03126 6.35734 5.9498 6.55922 5.9498 6.80005C5.9498 7.04088 6.03126 7.24276 6.19418 7.40567C6.3571 7.56859 6.55897 7.65005 6.7998 7.65005ZM13.5998 11.05C13.8406 11.05 14.0425 10.9686 14.2054 10.8057C14.3683 10.6428 14.4498 10.4409 14.4498 10.2C14.4498 9.95922 14.3683 9.75734 14.2054 9.59442C14.0425 9.43151 13.8406 9.35005 13.5998 9.35005H10.1998C9.95897 9.35005 9.7571 9.43151 9.59418 9.59442C9.43126 9.75734 9.3498 9.95922 9.3498 10.2C9.3498 10.4409 9.43126 10.6428 9.59418 10.8057C9.7571 10.9686 9.95897 11.05 10.1998 11.05H13.5998ZM13.5998 7.65005C13.8406 7.65005 14.0425 7.56859 14.2054 7.40567C14.3683 7.24276 14.4498 7.04088 14.4498 6.80005C14.4498 6.55922 14.3683 6.35734 14.2054 6.19442C14.0425 6.03151 13.8406 5.95005 13.5998 5.95005H10.1998C9.95897 5.95005 9.7571 6.03151 9.59418 6.19442C9.43126 6.35734 9.3498 6.55922 9.3498 6.80005C9.3498 7.04088 9.43126 7.24276 9.59418 7.40567C9.7571 7.56859 9.95897 7.65005 10.1998 7.65005H13.5998Z" fill="currentColor"/>
</g>
</svg>
