<svg width="21" height="22" viewBox="0 0 21 22" fill="none" xmlns="http://www.w3.org/2000/svg">
<path d="M20.7893 7.02L20.4993 4.25C20.0793 1.23 18.7093 0 15.7793 0H13.4193H11.9393H8.89934H7.41934H5.01934C2.07934 0 0.719337 1.23 0.289337 4.28L0.0193375 7.03C-0.0806625 8.1 0.209338 9.14 0.839338 9.95C1.59934 10.94 2.76934 11.5 4.06934 11.5C5.32934 11.5 6.53934 10.87 7.29934 9.86C7.97934 10.87 9.13934 11.5 10.4293 11.5C11.7193 11.5 12.8493 10.9 13.5393 9.9C14.3093 10.89 15.4993 11.5 16.7393 11.5C18.0693 11.5 19.2693 10.91 20.0193 9.87C20.6193 9.07 20.8893 8.06 20.7893 7.02Z" fill="white"/>
<path d="M9.77932 15.41C8.50932 15.54 7.54932 16.62 7.54932 17.9V20.64C7.54932 20.91 7.76932 21.13 8.03932 21.13H12.8093C13.0793 21.13 13.2993 20.91 13.2993 20.64V18.25C13.3093 16.16 12.0793 15.17 9.77932 15.41Z" fill="white"/>
<path d="M19.7993 13.1501V16.1301C19.7993 18.8901 17.5593 21.1301 14.7993 21.1301C14.5293 21.1301 14.3093 20.9101 14.3093 20.6401V18.2501C14.3093 16.9701 13.9193 15.9701 13.1593 15.2901C12.4893 14.6801 11.5793 14.3801 10.4493 14.3801C10.1993 14.3801 9.94933 14.3901 9.67933 14.4201C7.89933 14.6001 6.54933 16.1001 6.54933 17.9001V20.6401C6.54933 20.9101 6.32933 21.1301 6.05933 21.1301C3.29933 21.1301 1.05933 18.8901 1.05933 16.1301V13.1701C1.05933 12.4701 1.74933 12.0001 2.39933 12.2301C2.66933 12.3201 2.93933 12.3901 3.21933 12.4301C3.33933 12.4501 3.46933 12.4701 3.58933 12.4701C3.74933 12.4901 3.90933 12.5001 4.06933 12.5001C5.22933 12.5001 6.36933 12.0701 7.26933 11.3301C8.12933 12.0701 9.24933 12.5001 10.4293 12.5001C11.6193 12.5001 12.7193 12.0901 13.5793 11.3501C14.4793 12.0801 15.5993 12.5001 16.7393 12.5001C16.9193 12.5001 17.0993 12.4901 17.2693 12.4701C17.3893 12.4601 17.4993 12.4501 17.6093 12.4301C17.9193 12.3901 18.1993 12.3001 18.4793 12.2101C19.1293 11.9901 19.7993 12.4701 19.7993 13.1501Z" fill="white"/>
</svg>
