<svg width="14" height="17" viewBox="0 0 14 17" fill="none" xmlns="http://www.w3.org/2000/svg">
<path d="M0.999833 0C0.4468 0 0 0.474735 0 1.06234V9.5611C0 10.1487 0.4468 10.6234 0.999833 10.6234C1.55286 10.6234 1.99967 10.1487 1.99967 9.5611V7.43641H3.58377L7.58311 11.6858L4.28991 15.1849C3.89935 15.5999 3.89935 16.2738 4.28991 16.6888C4.68047 17.1037 5.31474 17.1037 5.7053 16.6888L8.99849 13.1897L12.2917 16.6854C12.6823 17.1004 13.3165 17.1004 13.7071 16.6854C14.0976 16.2705 14.0976 15.5965 13.7071 15.1816L10.4139 11.6858L13.704 8.18669C14.0945 7.77171 14.0945 7.09779 13.704 6.68281C13.3134 6.26783 12.6791 6.26783 12.2886 6.68281L8.99849 10.1819L6.31769 7.3335C7.85493 6.94176 8.99849 5.47107 8.99849 3.71821C8.99849 1.66323 7.43313 0 5.49908 0H0.999833ZM5.49908 5.31172H1.99967V2.12469H5.49908C6.32707 2.12469 6.99883 2.83845 6.99883 3.71821C6.99883 4.59796 6.32707 5.31172 5.49908 5.31172Z" fill="currentColor"/>
</svg>
