<svg width="18" height="15" viewBox="0 0 18 15" fill="none" xmlns="http://www.w3.org/2000/svg">
<path d="M3.98077 8.27061L7.26923 11.8621C7.5 12.1142 7.61058 12.4082 7.60096 12.7443C7.59135 13.0803 7.48077 13.3744 7.26923 13.6264C7.03846 13.8784 6.76442 14.0097 6.44712 14.0202C6.12981 14.0307 5.85577 13.91 5.625 13.6579L0.346154 7.89256C0.115385 7.64052 0 7.34648 0 7.01043C0 6.67438 0.115385 6.38033 0.346154 6.12829L5.625 0.362934C5.85577 0.110897 6.12981 -0.00987147 6.44712 0.000630094C6.76442 0.0111317 7.03846 0.142401 7.26923 0.394439C7.48077 0.646476 7.59135 0.94052 7.60096 1.27657C7.61058 1.61262 7.5 1.90666 7.26923 2.1587L3.98077 5.75024H16.8462C17.1731 5.75024 17.4471 5.87101 17.6683 6.11254C17.8894 6.35408 18 6.65337 18 7.01043C18 7.36748 17.8894 7.66677 17.6683 7.90831C17.4471 8.14985 17.1731 8.27061 16.8462 8.27061H3.98077Z" fill="white"/>
</svg>
