<svg width="14" height="15" viewBox="0 0 14 15" fill="none" xmlns="http://www.w3.org/2000/svg">
<path d="M9.15033 12.0938L12.7739 8.38125C12.9081 8.24375 13.0789 8.175 13.2863 8.175C13.4937 8.175 13.6645 8.24375 13.7987 8.38125C13.9329 8.51875 14 8.69375 14 8.90625C14 9.11875 13.9329 9.29375 13.7987 9.43125L9.66275 13.6688C9.51634 13.8188 9.34553 13.8937 9.15033 13.8937C8.95512 13.8937 8.78431 13.8188 8.63791 13.6688L6.55163 11.5313C6.41743 11.3938 6.35033 11.2188 6.35033 11.0063C6.35033 10.7938 6.41743 10.6188 6.55163 10.4813C6.68584 10.3438 6.85665 10.275 7.06405 10.275C7.27146 10.275 7.44227 10.3438 7.57647 10.4813L9.15033 12.0938ZM1.46405 15C1.06144 15 0.716776 14.8531 0.430065 14.5594C0.143355 14.2656 0 13.9125 0 13.5V3C0 2.5875 0.143355 2.23438 0.430065 1.94063C0.716776 1.64688 1.06144 1.5 1.46405 1.5H4.52026C4.65447 1.0625 4.91678 0.703125 5.30719 0.421875C5.6976 0.140625 6.12462 0 6.58824 0C7.07625 0 7.51242 0.140625 7.89673 0.421875C8.28105 0.703125 8.54031 1.0625 8.67451 1.5H11.7124C12.115 1.5 12.4597 1.64688 12.7464 1.94063C13.0331 2.23438 13.1765 2.5875 13.1765 3V6C13.1765 6.2125 13.1063 6.39063 12.966 6.53438C12.8257 6.67813 12.6519 6.75 12.4444 6.75C12.237 6.75 12.0632 6.67813 11.9229 6.53438C11.7826 6.39063 11.7124 6.2125 11.7124 6V3H10.2484V4.5C10.2484 4.7125 10.1782 4.89063 10.0379 5.03438C9.8976 5.17813 9.72375 5.25 9.51634 5.25H3.66013C3.45272 5.25 3.27887 5.17813 3.13856 5.03438C2.99826 4.89063 2.9281 4.7125 2.9281 4.5V3H1.46405V13.5H5.12418C5.33159 13.5 5.50545 13.5719 5.64575 13.7156C5.78606 13.8594 5.85621 14.0375 5.85621 14.25C5.85621 14.4625 5.78606 14.6406 5.64575 14.7844C5.50545 14.9281 5.33159 15 5.12418 15H1.46405ZM7.1098 2.78438C7.25011 2.64063 7.32026 2.4625 7.32026 2.25C7.32026 2.0375 7.25011 1.85938 7.1098 1.71563C6.9695 1.57188 6.79564 1.5 6.58824 1.5C6.38083 1.5 6.20697 1.57188 6.06667 1.71563C5.92636 1.85938 5.85621 2.0375 5.85621 2.25C5.85621 2.4625 5.92636 2.64063 6.06667 2.78438C6.20697 2.92813 6.38083 3 6.58824 3C6.79564 3 6.9695 2.92813 7.1098 2.78438Z" fill="#48AAD9"/>
</svg>
