<svg width="18" height="18" viewBox="0 0 18 18" fill="none" xmlns="http://www.w3.org/2000/svg">
<mask id="mask0_1368_10807" style="mask-type:alpha" maskUnits="userSpaceOnUse" x="0" y="0" width="18" height="18">
<rect width="18" height="18" fill="#D9D9D9"/>
</mask>
<g mask="url(#mask0_1368_10807)">
<path d="M2.75 14.25C2.5375 14.25 2.35937 14.1781 2.21562 14.0344C2.07187 13.8906 2 13.7125 2 13.5C2 13.2875 2.07187 13.1094 2.21562 12.9656C2.35937 12.8219 2.5375 12.75 2.75 12.75H3.5V7.5C3.5 6.4625 3.8125 5.54063 4.4375 4.73438C5.0625 3.92812 5.875 3.4 6.875 3.15V2.625C6.875 2.3125 6.98437 2.04688 7.20312 1.82812C7.42188 1.60937 7.6875 1.5 8 1.5C8.3125 1.5 8.57812 1.60937 8.79688 1.82812C9.01563 2.04688 9.125 2.3125 9.125 2.625V3.15C10.125 3.4 10.9375 3.92812 11.5625 4.73438C12.1875 5.54063 12.5 6.4625 12.5 7.5V12.75H13.25C13.4625 12.75 13.6406 12.8219 13.7844 12.9656C13.9281 13.1094 14 13.2875 14 13.5C14 13.7125 13.9281 13.8906 13.7844 14.0344C13.6406 14.1781 13.4625 14.25 13.25 14.25H2.75ZM8 16.5C7.5875 16.5 7.23438 16.3531 6.94063 16.0594C6.64688 15.7656 6.5 15.4125 6.5 15H9.5C9.5 15.4125 9.35313 15.7656 9.05938 16.0594C8.76563 16.3531 8.4125 16.5 8 16.5ZM5 12.75H11V7.5C11 6.675 10.7062 5.96875 10.1187 5.38125C9.53125 4.79375 8.825 4.5 8 4.5C7.175 4.5 6.46875 4.79375 5.88125 5.38125C5.29375 5.96875 5 6.675 5 7.5V12.75Z" fill="#48AAD9"/>
</g>
</svg>
