<svg width="16" height="17" viewBox="0 0 16 17" fill="none" xmlns="http://www.w3.org/2000/svg">
<mask id="path-1-outside-1_1382_11441" maskUnits="userSpaceOnUse" x="-0.600098" y="-0.599976" width="17" height="18" fill="black">
<rect fill="white" x="-0.600098" y="-0.599976" width="17" height="18"/>
<path d="M14.3229 13.1513L14.227 12.5587C14.1448 12.0636 13.9179 11.6062 13.5767 11.2474C13.2355 10.8885 12.7961 10.6455 12.3173 10.5505L8.9266 9.86468V9.423C9.44723 9.17933 9.89486 8.79626 10.2228 8.31372C10.5507 7.83119 10.747 7.26687 10.7911 6.67962C11.042 6.62635 11.2726 6.49968 11.4554 6.3148C11.6382 6.12991 11.7653 5.89466 11.8215 5.63724C11.8777 5.37982 11.8607 5.11116 11.7724 4.86347C11.6841 4.61577 11.5283 4.39956 11.3238 4.24076C11.4143 3.87863 11.7925 2.14207 10.9722 1.29711C10.3596 0.674362 9.42734 0.808788 9.02781 0.90755C8.83604 0.699053 8.42053 0.400024 7.59484 0.400024C6.43621 0.400024 4.49983 0.400024 3.89521 1.64826C3.41844 2.62765 3.62886 3.93898 3.70876 4.39164C3.5438 4.56932 3.42823 4.78939 3.37414 5.02884C3.32005 5.26828 3.32943 5.5183 3.40131 5.75273C3.47319 5.98716 3.60491 6.19739 3.7827 6.36141C3.96049 6.52544 4.17782 6.63724 4.41193 6.68511C4.45601 7.27236 4.65226 7.83668 4.9802 8.31921C5.30814 8.80174 5.75576 9.18482 6.2764 9.42849V9.86468L2.87242 10.5505C2.39357 10.6455 1.95422 10.8885 1.613 11.2474C1.27178 11.6062 1.04491 12.0636 0.962676 12.5587L0.403337 15.9934C0.397114 16.0329 0.399366 16.0734 0.409935 16.1119C0.420504 16.1504 0.439134 16.1861 0.464517 16.2164C0.489899 16.2468 0.521419 16.271 0.556864 16.2874C0.592308 16.3039 0.630818 16.3121 0.669689 16.3116H13.4546C13.7139 16.4079 13.9944 16.426 14.2633 16.3638C14.5322 16.3016 14.7784 16.1617 14.9728 15.9605C15.2464 15.6768 15.3999 15.2932 15.3999 14.8933C15.3999 14.4934 15.2464 14.1098 14.9728 13.8261L14.3229 13.1513ZM11.5901 13.8261C11.4333 13.6429 11.3501 13.4051 11.3576 13.161C11.365 12.9169 11.4625 12.6848 11.6302 12.5121C11.7978 12.3394 12.0231 12.239 12.2601 12.2314C12.4971 12.2237 12.728 12.3094 12.9059 12.4709L13.5638 13.1485L12.2453 14.5065L11.5901 13.8261ZM13.657 12.4709L13.2815 12.0841C13.007 11.8014 12.6348 11.6426 12.2467 11.6426C11.8586 11.6426 11.4863 11.8014 11.2119 12.0841C10.9375 12.3667 10.7833 12.7501 10.7833 13.1499C10.7833 13.5496 10.9375 13.933 11.2119 14.2157L12.7141 15.7629H9.12636L9.9414 10.6246L12.216 11.08C12.5586 11.1496 12.8752 11.3169 13.13 11.5628C13.3848 11.8087 13.5674 12.1233 13.657 12.4709ZM8.59632 15.7629H6.60135L5.82893 10.8962L7.38442 12.0841C7.42979 12.1178 7.4843 12.1359 7.54024 12.1359C7.59617 12.1359 7.65069 12.1178 7.69605 12.0841L9.36341 10.8742L8.59632 15.7629ZM10.7911 6.11174V4.87722V4.60288L10.8603 4.58093C11.007 4.64843 11.1305 4.75988 11.2147 4.90076C11.299 5.04163 11.34 5.20539 11.3325 5.37066C11.3251 5.53593 11.2694 5.69505 11.1728 5.82725C11.0762 5.95944 10.9432 6.05859 10.7911 6.11174ZM4.36932 1.89517C4.83011 0.9487 6.62798 0.9487 7.59484 0.9487C8.45782 0.9487 8.68155 1.33552 8.68954 1.34649C8.71879 1.40556 8.76782 1.45172 8.82756 1.47644C8.8873 1.50115 8.9537 1.50274 9.01449 1.48092C9.01449 1.48092 10.0479 1.12153 10.6126 1.69216C11.1773 2.26278 10.9802 3.44243 10.847 4.02128L10.4528 4.14474C10.2184 4.21881 10.2717 4.48217 10.2637 4.50961C9.82687 4.35049 9.08375 3.99385 8.93192 3.3519C8.91973 3.29995 8.89306 3.25281 8.85521 3.21626C8.81735 3.17971 8.76996 3.15534 8.71884 3.14615H8.66025C8.61638 3.14638 8.57324 3.15777 8.53467 3.17931C8.49611 3.20085 8.4633 3.23186 8.43917 3.2696C8.07791 3.75029 7.57052 4.09225 6.99821 4.24076C6.31939 4.40029 5.62723 4.49216 4.93132 4.51509V4.24076C4.93132 4.168 4.90326 4.09822 4.85331 4.04677C4.80336 3.99532 4.73561 3.96642 4.66497 3.96642C4.50387 3.97024 4.34453 4.00177 4.19352 4.05969C4.11362 3.55217 4.03105 2.59473 4.36932 1.89517ZM3.86591 5.33811C3.86539 5.22167 3.88886 5.10644 3.93477 5.00004C3.98069 4.89363 4.048 4.79847 4.13226 4.72085L4.39862 4.62757V6.11174C4.24319 6.05514 4.10856 5.95041 4.01319 5.81191C3.91782 5.6734 3.86638 5.50791 3.86591 5.33811ZM4.93132 6.43546V5.06377C5.66992 5.04751 6.40512 4.95561 7.12606 4.78943C7.67743 4.64533 8.1808 4.35056 8.583 3.93624C8.99851 4.6358 9.86416 4.97324 10.2584 5.09669V6.43546C10.2584 7.16305 9.97774 7.86084 9.47823 8.37532C8.97872 8.8898 8.30125 9.17884 7.59484 9.17884C6.88843 9.17884 6.21095 8.8898 5.71145 8.37532C5.21194 7.86084 4.93132 7.16305 4.93132 6.43546ZM6.58004 10.3585C6.6416 10.3462 6.69698 10.312 6.73645 10.2618C6.77591 10.2116 6.79692 10.1487 6.79578 10.0842V9.62052C7.31948 9.76322 7.8702 9.76322 8.39389 9.62052V10.0896C8.39275 10.1542 8.41377 10.2171 8.45323 10.2673C8.49269 10.3175 8.54808 10.3517 8.60964 10.364L9.03314 10.449L7.54689 11.5299L6.13523 10.4545L6.58004 10.3585ZM1.48739 12.6492C1.55009 12.2627 1.72609 11.9052 1.99175 11.6247C2.25742 11.3442 2.60005 11.1541 2.97363 11.08L5.24828 10.6246L6.06331 15.7629H0.983984L1.48739 12.6492ZM14.5999 15.5709C14.5135 15.6604 14.4108 15.7314 14.2977 15.7799C14.1845 15.8284 14.0632 15.8533 13.9407 15.8533C13.8181 15.8533 13.6968 15.8284 13.5837 15.7799C13.4706 15.7314 13.3678 15.6604 13.2815 15.5709L12.6236 14.8933L13.942 13.5353L14.5999 14.2129C14.6868 14.3019 14.7557 14.4077 14.8028 14.5242C14.8499 14.6408 14.8741 14.7657 14.8741 14.8919C14.8741 15.0181 14.8499 15.1431 14.8028 15.2596C14.7557 15.3761 14.6868 15.4819 14.5999 15.5709Z"/>
</mask>
<path d="M14.3229 13.1513L14.227 12.5587C14.1448 12.0636 13.9179 11.6062 13.5767 11.2474C13.2355 10.8885 12.7961 10.6455 12.3173 10.5505L8.9266 9.86468V9.423C9.44723 9.17933 9.89486 8.79626 10.2228 8.31372C10.5507 7.83119 10.747 7.26687 10.7911 6.67962C11.042 6.62635 11.2726 6.49968 11.4554 6.3148C11.6382 6.12991 11.7653 5.89466 11.8215 5.63724C11.8777 5.37982 11.8607 5.11116 11.7724 4.86347C11.6841 4.61577 11.5283 4.39956 11.3238 4.24076C11.4143 3.87863 11.7925 2.14207 10.9722 1.29711C10.3596 0.674362 9.42734 0.808788 9.02781 0.90755C8.83604 0.699053 8.42053 0.400024 7.59484 0.400024C6.43621 0.400024 4.49983 0.400024 3.89521 1.64826C3.41844 2.62765 3.62886 3.93898 3.70876 4.39164C3.5438 4.56932 3.42823 4.78939 3.37414 5.02884C3.32005 5.26828 3.32943 5.5183 3.40131 5.75273C3.47319 5.98716 3.60491 6.19739 3.7827 6.36141C3.96049 6.52544 4.17782 6.63724 4.41193 6.68511C4.45601 7.27236 4.65226 7.83668 4.9802 8.31921C5.30814 8.80174 5.75576 9.18482 6.2764 9.42849V9.86468L2.87242 10.5505C2.39357 10.6455 1.95422 10.8885 1.613 11.2474C1.27178 11.6062 1.04491 12.0636 0.962676 12.5587L0.403337 15.9934C0.397114 16.0329 0.399366 16.0734 0.409935 16.1119C0.420504 16.1504 0.439134 16.1861 0.464517 16.2164C0.489899 16.2468 0.521419 16.271 0.556864 16.2874C0.592308 16.3039 0.630818 16.3121 0.669689 16.3116H13.4546C13.7139 16.4079 13.9944 16.426 14.2633 16.3638C14.5322 16.3016 14.7784 16.1617 14.9728 15.9605C15.2464 15.6768 15.3999 15.2932 15.3999 14.8933C15.3999 14.4934 15.2464 14.1098 14.9728 13.8261L14.3229 13.1513ZM11.5901 13.8261C11.4333 13.6429 11.3501 13.4051 11.3576 13.161C11.365 12.9169 11.4625 12.6848 11.6302 12.5121C11.7978 12.3394 12.0231 12.239 12.2601 12.2314C12.4971 12.2237 12.728 12.3094 12.9059 12.4709L13.5638 13.1485L12.2453 14.5065L11.5901 13.8261ZM13.657 12.4709L13.2815 12.0841C13.007 11.8014 12.6348 11.6426 12.2467 11.6426C11.8586 11.6426 11.4863 11.8014 11.2119 12.0841C10.9375 12.3667 10.7833 12.7501 10.7833 13.1499C10.7833 13.5496 10.9375 13.933 11.2119 14.2157L12.7141 15.7629H9.12636L9.9414 10.6246L12.216 11.08C12.5586 11.1496 12.8752 11.3169 13.13 11.5628C13.3848 11.8087 13.5674 12.1233 13.657 12.4709ZM8.59632 15.7629H6.60135L5.82893 10.8962L7.38442 12.0841C7.42979 12.1178 7.4843 12.1359 7.54024 12.1359C7.59617 12.1359 7.65069 12.1178 7.69605 12.0841L9.36341 10.8742L8.59632 15.7629ZM10.7911 6.11174V4.87722V4.60288L10.8603 4.58093C11.007 4.64843 11.1305 4.75988 11.2147 4.90076C11.299 5.04163 11.34 5.20539 11.3325 5.37066C11.3251 5.53593 11.2694 5.69505 11.1728 5.82725C11.0762 5.95944 10.9432 6.05859 10.7911 6.11174ZM4.36932 1.89517C4.83011 0.9487 6.62798 0.9487 7.59484 0.9487C8.45782 0.9487 8.68155 1.33552 8.68954 1.34649C8.71879 1.40556 8.76782 1.45172 8.82756 1.47644C8.8873 1.50115 8.9537 1.50274 9.01449 1.48092C9.01449 1.48092 10.0479 1.12153 10.6126 1.69216C11.1773 2.26278 10.9802 3.44243 10.847 4.02128L10.4528 4.14474C10.2184 4.21881 10.2717 4.48217 10.2637 4.50961C9.82687 4.35049 9.08375 3.99385 8.93192 3.3519C8.91973 3.29995 8.89306 3.25281 8.85521 3.21626C8.81735 3.17971 8.76996 3.15534 8.71884 3.14615H8.66025C8.61638 3.14638 8.57324 3.15777 8.53467 3.17931C8.49611 3.20085 8.4633 3.23186 8.43917 3.2696C8.07791 3.75029 7.57052 4.09225 6.99821 4.24076C6.31939 4.40029 5.62723 4.49216 4.93132 4.51509V4.24076C4.93132 4.168 4.90326 4.09822 4.85331 4.04677C4.80336 3.99532 4.73561 3.96642 4.66497 3.96642C4.50387 3.97024 4.34453 4.00177 4.19352 4.05969C4.11362 3.55217 4.03105 2.59473 4.36932 1.89517ZM3.86591 5.33811C3.86539 5.22167 3.88886 5.10644 3.93477 5.00004C3.98069 4.89363 4.048 4.79847 4.13226 4.72085L4.39862 4.62757V6.11174C4.24319 6.05514 4.10856 5.95041 4.01319 5.81191C3.91782 5.6734 3.86638 5.50791 3.86591 5.33811ZM4.93132 6.43546V5.06377C5.66992 5.04751 6.40512 4.95561 7.12606 4.78943C7.67743 4.64533 8.1808 4.35056 8.583 3.93624C8.99851 4.6358 9.86416 4.97324 10.2584 5.09669V6.43546C10.2584 7.16305 9.97774 7.86084 9.47823 8.37532C8.97872 8.8898 8.30125 9.17884 7.59484 9.17884C6.88843 9.17884 6.21095 8.8898 5.71145 8.37532C5.21194 7.86084 4.93132 7.16305 4.93132 6.43546ZM6.58004 10.3585C6.6416 10.3462 6.69698 10.312 6.73645 10.2618C6.77591 10.2116 6.79692 10.1487 6.79578 10.0842V9.62052C7.31948 9.76322 7.8702 9.76322 8.39389 9.62052V10.0896C8.39275 10.1542 8.41377 10.2171 8.45323 10.2673C8.49269 10.3175 8.54808 10.3517 8.60964 10.364L9.03314 10.449L7.54689 11.5299L6.13523 10.4545L6.58004 10.3585ZM1.48739 12.6492C1.55009 12.2627 1.72609 11.9052 1.99175 11.6247C2.25742 11.3442 2.60005 11.1541 2.97363 11.08L5.24828 10.6246L6.06331 15.7629H0.983984L1.48739 12.6492ZM14.5999 15.5709C14.5135 15.6604 14.4108 15.7314 14.2977 15.7799C14.1845 15.8284 14.0632 15.8533 13.9407 15.8533C13.8181 15.8533 13.6968 15.8284 13.5837 15.7799C13.4706 15.7314 13.3678 15.6604 13.2815 15.5709L12.6236 14.8933L13.942 13.5353L14.5999 14.2129C14.6868 14.3019 14.7557 14.4077 14.8028 14.5242C14.8499 14.6408 14.8741 14.7657 14.8741 14.8919C14.8741 15.0181 14.8499 15.1431 14.8028 15.2596C14.7557 15.3761 14.6868 15.4819 14.5999 15.5709Z" fill="#48AAD9"/>
<path d="M14.3229 13.1513L14.227 12.5587C14.1448 12.0636 13.9179 11.6062 13.5767 11.2474C13.2355 10.8885 12.7961 10.6455 12.3173 10.5505L8.9266 9.86468V9.423C9.44723 9.17933 9.89486 8.79626 10.2228 8.31372C10.5507 7.83119 10.747 7.26687 10.7911 6.67962C11.042 6.62635 11.2726 6.49968 11.4554 6.3148C11.6382 6.12991 11.7653 5.89466 11.8215 5.63724C11.8777 5.37982 11.8607 5.11116 11.7724 4.86347C11.6841 4.61577 11.5283 4.39956 11.3238 4.24076C11.4143 3.87863 11.7925 2.14207 10.9722 1.29711C10.3596 0.674362 9.42734 0.808788 9.02781 0.90755C8.83604 0.699053 8.42053 0.400024 7.59484 0.400024C6.43621 0.400024 4.49983 0.400024 3.89521 1.64826C3.41844 2.62765 3.62886 3.93898 3.70876 4.39164C3.5438 4.56932 3.42823 4.78939 3.37414 5.02884C3.32005 5.26828 3.32943 5.5183 3.40131 5.75273C3.47319 5.98716 3.60491 6.19739 3.7827 6.36141C3.96049 6.52544 4.17782 6.63724 4.41193 6.68511C4.45601 7.27236 4.65226 7.83668 4.9802 8.31921C5.30814 8.80174 5.75576 9.18482 6.2764 9.42849V9.86468L2.87242 10.5505C2.39357 10.6455 1.95422 10.8885 1.613 11.2474C1.27178 11.6062 1.04491 12.0636 0.962676 12.5587L0.403337 15.9934C0.397114 16.0329 0.399366 16.0734 0.409935 16.1119C0.420504 16.1504 0.439134 16.1861 0.464517 16.2164C0.489899 16.2468 0.521419 16.271 0.556864 16.2874C0.592308 16.3039 0.630818 16.3121 0.669689 16.3116H13.4546C13.7139 16.4079 13.9944 16.426 14.2633 16.3638C14.5322 16.3016 14.7784 16.1617 14.9728 15.9605C15.2464 15.6768 15.3999 15.2932 15.3999 14.8933C15.3999 14.4934 15.2464 14.1098 14.9728 13.8261L14.3229 13.1513ZM11.5901 13.8261C11.4333 13.6429 11.3501 13.4051 11.3576 13.161C11.365 12.9169 11.4625 12.6848 11.6302 12.5121C11.7978 12.3394 12.0231 12.239 12.2601 12.2314C12.4971 12.2237 12.728 12.3094 12.9059 12.4709L13.5638 13.1485L12.2453 14.5065L11.5901 13.8261ZM13.657 12.4709L13.2815 12.0841C13.007 11.8014 12.6348 11.6426 12.2467 11.6426C11.8586 11.6426 11.4863 11.8014 11.2119 12.0841C10.9375 12.3667 10.7833 12.7501 10.7833 13.1499C10.7833 13.5496 10.9375 13.933 11.2119 14.2157L12.7141 15.7629H9.12636L9.9414 10.6246L12.216 11.08C12.5586 11.1496 12.8752 11.3169 13.13 11.5628C13.3848 11.8087 13.5674 12.1233 13.657 12.4709ZM8.59632 15.7629H6.60135L5.82893 10.8962L7.38442 12.0841C7.42979 12.1178 7.4843 12.1359 7.54024 12.1359C7.59617 12.1359 7.65069 12.1178 7.69605 12.0841L9.36341 10.8742L8.59632 15.7629ZM10.7911 6.11174V4.87722V4.60288L10.8603 4.58093C11.007 4.64843 11.1305 4.75988 11.2147 4.90076C11.299 5.04163 11.34 5.20539 11.3325 5.37066C11.3251 5.53593 11.2694 5.69505 11.1728 5.82725C11.0762 5.95944 10.9432 6.05859 10.7911 6.11174ZM4.36932 1.89517C4.83011 0.9487 6.62798 0.9487 7.59484 0.9487C8.45782 0.9487 8.68155 1.33552 8.68954 1.34649C8.71879 1.40556 8.76782 1.45172 8.82756 1.47644C8.8873 1.50115 8.9537 1.50274 9.01449 1.48092C9.01449 1.48092 10.0479 1.12153 10.6126 1.69216C11.1773 2.26278 10.9802 3.44243 10.847 4.02128L10.4528 4.14474C10.2184 4.21881 10.2717 4.48217 10.2637 4.50961C9.82687 4.35049 9.08375 3.99385 8.93192 3.3519C8.91973 3.29995 8.89306 3.25281 8.85521 3.21626C8.81735 3.17971 8.76996 3.15534 8.71884 3.14615H8.66025C8.61638 3.14638 8.57324 3.15777 8.53467 3.17931C8.49611 3.20085 8.4633 3.23186 8.43917 3.2696C8.07791 3.75029 7.57052 4.09225 6.99821 4.24076C6.31939 4.40029 5.62723 4.49216 4.93132 4.51509V4.24076C4.93132 4.168 4.90326 4.09822 4.85331 4.04677C4.80336 3.99532 4.73561 3.96642 4.66497 3.96642C4.50387 3.97024 4.34453 4.00177 4.19352 4.05969C4.11362 3.55217 4.03105 2.59473 4.36932 1.89517ZM3.86591 5.33811C3.86539 5.22167 3.88886 5.10644 3.93477 5.00004C3.98069 4.89363 4.048 4.79847 4.13226 4.72085L4.39862 4.62757V6.11174C4.24319 6.05514 4.10856 5.95041 4.01319 5.81191C3.91782 5.6734 3.86638 5.50791 3.86591 5.33811ZM4.93132 6.43546V5.06377C5.66992 5.04751 6.40512 4.95561 7.12606 4.78943C7.67743 4.64533 8.1808 4.35056 8.583 3.93624C8.99851 4.6358 9.86416 4.97324 10.2584 5.09669V6.43546C10.2584 7.16305 9.97774 7.86084 9.47823 8.37532C8.97872 8.8898 8.30125 9.17884 7.59484 9.17884C6.88843 9.17884 6.21095 8.8898 5.71145 8.37532C5.21194 7.86084 4.93132 7.16305 4.93132 6.43546ZM6.58004 10.3585C6.6416 10.3462 6.69698 10.312 6.73645 10.2618C6.77591 10.2116 6.79692 10.1487 6.79578 10.0842V9.62052C7.31948 9.76322 7.8702 9.76322 8.39389 9.62052V10.0896C8.39275 10.1542 8.41377 10.2171 8.45323 10.2673C8.49269 10.3175 8.54808 10.3517 8.60964 10.364L9.03314 10.449L7.54689 11.5299L6.13523 10.4545L6.58004 10.3585ZM1.48739 12.6492C1.55009 12.2627 1.72609 11.9052 1.99175 11.6247C2.25742 11.3442 2.60005 11.1541 2.97363 11.08L5.24828 10.6246L6.06331 15.7629H0.983984L1.48739 12.6492ZM14.5999 15.5709C14.5135 15.6604 14.4108 15.7314 14.2977 15.7799C14.1845 15.8284 14.0632 15.8533 13.9407 15.8533C13.8181 15.8533 13.6968 15.8284 13.5837 15.7799C13.4706 15.7314 13.3678 15.6604 13.2815 15.5709L12.6236 14.8933L13.942 13.5353L14.5999 14.2129C14.6868 14.3019 14.7557 14.4077 14.8028 14.5242C14.8499 14.6408 14.8741 14.7657 14.8741 14.8919C14.8741 15.0181 14.8499 15.1431 14.8028 15.2596C14.7557 15.3761 14.6868 15.4819 14.5999 15.5709Z" stroke="#48AAD9" stroke-width="0.8" mask="url(#path-1-outside-1_1382_11441)"/>
</svg>
