<svg width="18" height="18" viewBox="0 0 18 18" fill="none" xmlns="http://www.w3.org/2000/svg">
<mask id="mask0_1368_10554" style="mask-type:alpha" maskUnits="userSpaceOnUse" x="0" y="0" width="18" height="18">
<rect width="18" height="18" fill="#D9D9D9"/>
</mask>
<g mask="url(#mask0_1368_10554)">
<path d="M11.2495 3.00006H6.74951V8.25006H11.2495V3.00006ZM14.9995 3.00006H12.7495V8.25006H14.9995V3.00006ZM10.7808 9.75006H5.99951V14.2501H10.162C10.4245 14.2501 10.6776 14.2063 10.9214 14.1188C11.1651 14.0313 11.387 13.9001 11.587 13.7251L14.6995 11.1563C14.5995 11.0563 14.487 10.9813 14.362 10.9313C14.237 10.8813 14.1058 10.8438 13.9683 10.8188C13.7558 10.7813 13.5495 10.7876 13.3495 10.8376C13.1495 10.8876 12.962 10.9813 12.787 11.1188L11.1745 12.4126C11.037 12.5126 10.8901 12.5938 10.7339 12.6563C10.5776 12.7188 10.412 12.7501 10.237 12.7501H8.24951C8.03701 12.7501 7.85889 12.6782 7.71514 12.5344C7.57139 12.3907 7.49951 12.2126 7.49951 12.0001C7.49951 11.7876 7.57139 11.6094 7.71514 11.4657C7.85889 11.3219 8.03701 11.2501 8.24951 11.2501H10.237L11.062 10.5751C11.1245 10.5376 11.1714 10.4876 11.2026 10.4251C11.2339 10.3626 11.2495 10.2938 11.2495 10.2188C11.2495 10.0938 11.2026 9.98444 11.1089 9.89069C11.0151 9.79694 10.9058 9.75006 10.7808 9.75006ZM4.49951 9.75006H2.99951V15.0001H4.49951V9.75006ZM5.24951 9.75006V3.00006C5.24951 2.58756 5.39639 2.23444 5.69014 1.94069C5.98389 1.64694 6.33701 1.50006 6.74951 1.50006H14.9995C15.412 1.50006 15.7651 1.64694 16.0589 1.94069C16.3526 2.23444 16.4995 2.58756 16.4995 3.00006V8.25006C16.4995 8.66256 16.3526 9.01569 16.0589 9.30944C15.7651 9.60319 15.412 9.75006 14.9995 9.75006H5.24951ZM4.49951 16.5001H2.99951C2.58701 16.5001 2.23389 16.3532 1.94014 16.0594C1.64639 15.7657 1.49951 15.4126 1.49951 15.0001V9.75006C1.49951 9.33756 1.64639 8.98444 1.94014 8.69069C2.23389 8.39694 2.58701 8.25006 2.99951 8.25006H10.7808C11.8433 8.25006 12.8683 8.43131 13.8558 8.79381C14.8433 9.15631 15.637 9.76881 16.237 10.6313C16.3745 10.8438 16.4245 11.0782 16.387 11.3344C16.3495 11.5907 16.2308 11.8063 16.0308 11.9813L12.562 14.8876C12.2245 15.1751 11.8495 15.3907 11.437 15.5344C11.0245 15.6782 10.5995 15.7501 10.162 15.7501H5.79326C5.65576 15.9751 5.47451 16.1563 5.24951 16.2938C5.02451 16.4313 4.77451 16.5001 4.49951 16.5001Z" fill="#48AAD9"/>
</g>
</svg>
