<svg width="16" height="16" viewBox="0 0 16 16" fill="none" xmlns="http://www.w3.org/2000/svg">
<path d="M14.75 12.4167L14.1047 7.57663C14.0026 6.81138 13.9516 6.42871 13.7694 6.14064C13.6088 5.88679 13.3782 5.68485 13.1053 5.55923C12.7957 5.41667 12.4097 5.41667 11.6376 5.41667H3.86239C3.09036 5.41667 2.70435 5.41667 2.3947 5.55923C2.12185 5.68485 1.89121 5.88679 1.73063 6.14064C1.54839 6.42871 1.49737 6.81138 1.39534 7.57663L0.75 12.4167M14.75 12.4167H0.75M14.75 12.4167V13.5056C14.75 13.9412 14.75 14.159 14.6652 14.3253C14.5906 14.4717 14.4717 14.5906 14.3253 14.6652C14.159 14.75 13.9412 14.75 13.5056 14.75H1.99444C1.55885 14.75 1.34105 14.75 1.17467 14.6652C1.02833 14.5906 0.909343 14.4717 0.83477 14.3253C0.75 14.159 0.75 13.9412 0.75 13.5056V12.4167M4.25 7.75V7.75778M6.58333 7.75V7.75778M5.41667 10.0833V10.0911M7.75 10.0833V10.0911M10.0833 10.0833V10.0911M8.91667 7.75V7.75778M11.25 7.75V7.75778M5.41667 5.41667V3.08333M2.92778 3.08333H7.90555C8.12333 3.08333 8.23222 3.08333 8.31544 3.04094C8.38863 3.00367 8.44813 2.94417 8.48539 2.871C8.52778 2.78781 8.52778 2.67891 8.52778 2.46111V1.37222C8.52778 1.15442 8.52778 1.04552 8.48539 0.962333C8.44813 0.88916 8.38863 0.829668 8.31544 0.792389C8.23222 0.75 8.12333 0.75 7.90555 0.75H2.92778C2.70998 0.75 2.60108 0.75 2.51789 0.792389C2.44472 0.829668 2.38522 0.88916 2.34794 0.962333C2.30556 1.04552 2.30556 1.15442 2.30556 1.37222V2.46111C2.30556 2.67891 2.30556 2.78781 2.34794 2.871C2.38522 2.94417 2.44472 3.00367 2.51789 3.04094C2.60108 3.08333 2.70998 3.08333 2.92778 3.08333Z" stroke="#48AAD9" stroke-width="1.5" stroke-linecap="round" stroke-linejoin="round"/>
</svg>
