<svg width="19" height="19" viewBox="0 0 19 19" fill="none" xmlns="http://www.w3.org/2000/svg">
<mask id="mask0_1368_10911" style="mask-type:alpha" maskUnits="userSpaceOnUse" x="0" y="0" width="19" height="19">
<rect width="19" height="19" fill="#D9D9D9"/>
</mask>
<g mask="url(#mask0_1368_10911)">
<path d="M8.70817 14.25V14.6459C8.70817 14.7514 8.74775 14.8438 8.82692 14.923C8.90609 15.0021 8.99845 15.0417 9.104 15.0417H9.89567C10.0012 15.0417 10.0936 15.0021 10.1728 14.923C10.2519 14.8438 10.2915 14.7514 10.2915 14.6459V14.25H11.0832C11.3075 14.25 11.4955 14.1742 11.6472 14.0224C11.799 13.8707 11.8748 13.6827 11.8748 13.4584V11.0834C11.8748 10.8591 11.799 10.671 11.6472 10.5193C11.4955 10.3676 11.3075 10.2917 11.0832 10.2917H8.70817V9.50004H11.0832C11.3075 9.50004 11.4955 9.42417 11.6472 9.27244C11.799 9.1207 11.8748 8.93268 11.8748 8.70837C11.8748 8.48407 11.799 8.29605 11.6472 8.14431C11.4955 7.99258 11.3075 7.91671 11.0832 7.91671H10.2915V7.52087C10.2915 7.41532 10.2519 7.32296 10.1728 7.24379C10.0936 7.16462 10.0012 7.12504 9.89567 7.12504H9.104C8.99845 7.12504 8.90609 7.16462 8.82692 7.24379C8.74775 7.32296 8.70817 7.41532 8.70817 7.52087V7.91671H7.9165C7.6922 7.91671 7.50418 7.99258 7.35244 8.14431C7.20071 8.29605 7.12484 8.48407 7.12484 8.70837V11.0834C7.12484 11.3077 7.20071 11.4957 7.35244 11.6474C7.50418 11.7992 7.6922 11.875 7.9165 11.875H10.2915V12.6667H7.9165C7.6922 12.6667 7.50418 12.7426 7.35244 12.8943C7.20071 13.046 7.12484 13.2341 7.12484 13.4584C7.12484 13.6827 7.20071 13.8707 7.35244 14.0224C7.50418 14.1742 7.6922 14.25 7.9165 14.25H8.70817ZM4.74984 17.4167C4.31442 17.4167 3.94168 17.2617 3.63161 16.9516C3.32154 16.6415 3.1665 16.2688 3.1665 15.8334V3.16671C3.1665 2.73129 3.32154 2.35855 3.63161 2.04848C3.94168 1.73841 4.31442 1.58337 4.74984 1.58337H11.8748L15.8332 5.54171V15.8334C15.8332 16.2688 15.6781 16.6415 15.3681 16.9516C15.058 17.2617 14.6853 17.4167 14.2498 17.4167H4.74984ZM4.74984 15.8334H14.2498V6.33337H11.8748C11.6505 6.33337 11.4625 6.25751 11.3108 6.10577C11.159 5.95403 11.0832 5.76601 11.0832 5.54171V3.16671H4.74984V15.8334Z" fill="#48AAD9"/>
</g>
</svg>
