<svg width="24" height="24" viewBox="0 0 24 24" fill="none" xmlns="http://www.w3.org/2000/svg">
<circle cx="12" cy="12" r="12" fill="white"/>
<mask id="mask0_356_2543" style="mask-type:alpha" maskUnits="userSpaceOnUse" x="4" y="4" width="15" height="15">
<rect x="4" y="4" width="15" height="15" fill="#D9D9D9"/>
</mask>
<g mask="url(#mask0_356_2543)">
<path d="M6.5 19C6.15625 19 5.86198 18.8776 5.61719 18.6328C5.3724 18.388 5.25 18.0938 5.25 17.75C5.25 17.4062 5.3724 17.112 5.61719 16.8672C5.86198 16.6224 6.15625 16.5 6.5 16.5H16.5C16.8438 16.5 17.138 16.6224 17.3828 16.8672C17.6276 17.112 17.75 17.4062 17.75 17.75C17.75 18.0938 17.6276 18.388 17.3828 18.6328C17.138 18.8776 16.8438 19 16.5 19H6.5ZM7.75 14H8.625L13.5 9.14062L12.6094 8.25L7.75 13.125V14ZM6.5 14.625V12.8594C6.5 12.776 6.51562 12.6953 6.54688 12.6172C6.57812 12.5391 6.625 12.4688 6.6875 12.4062L13.5 5.60938C13.6146 5.49479 13.7474 5.40625 13.8984 5.34375C14.0495 5.28125 14.2083 5.25 14.375 5.25C14.5417 5.25 14.7031 5.28125 14.8594 5.34375C15.0156 5.40625 15.1563 5.5 15.2813 5.625L16.1406 6.5C16.2656 6.61458 16.3568 6.75 16.4141 6.90625C16.4714 7.0625 16.5 7.22396 16.5 7.39062C16.5 7.54688 16.4714 7.70052 16.4141 7.85156C16.3568 8.0026 16.2656 8.14063 16.1406 8.26563L9.34375 15.0625C9.28125 15.125 9.21094 15.1719 9.13281 15.2031C9.05469 15.2344 8.97396 15.25 8.89063 15.25H7.125C6.94792 15.25 6.79948 15.1901 6.67969 15.0703C6.5599 14.9505 6.5 14.8021 6.5 14.625Z" fill="#48AAD9"/>
</g>
</svg>
