<svg width="18" height="18" viewBox="0 0 18 18" fill="none" xmlns="http://www.w3.org/2000/svg">
<mask id="mask0_517_12" style="mask-type:alpha" maskUnits="userSpaceOnUse" x="0" y="0" width="18" height="18">
<rect width="18" height="18" fill="#D9D9D9"/>
</mask>
<g mask="url(#mask0_517_12)">
<path d="M3.86657 16.7999C3.46324 16.7999 3.11796 16.6589 2.83074 16.3769C2.54351 16.0949 2.3999 15.7559 2.3999 15.3599V5.2799C2.3999 4.8839 2.54351 4.5449 2.83074 4.2629C3.11796 3.9809 3.46324 3.8399 3.86657 3.8399H4.5999V3.1199C4.5999 2.9159 4.67018 2.7449 4.81074 2.6069C4.95129 2.4689 5.12546 2.3999 5.33324 2.3999C5.54101 2.3999 5.71518 2.4689 5.85574 2.6069C5.99629 2.7449 6.06657 2.9159 6.06657 3.1199V3.8399H11.9332V3.1199C11.9332 2.9159 12.0035 2.7449 12.1441 2.6069C12.2846 2.4689 12.4588 2.3999 12.6666 2.3999C12.8743 2.3999 13.0485 2.4689 13.1891 2.6069C13.3296 2.7449 13.3999 2.9159 13.3999 3.1199V3.8399H14.1332C14.5366 3.8399 14.8818 3.9809 15.1691 4.2629C15.4563 4.5449 15.5999 4.8839 15.5999 5.2799V15.3599C15.5999 15.7559 15.4563 16.0949 15.1691 16.3769C14.8818 16.6589 14.5366 16.7999 14.1332 16.7999H3.86657ZM3.86657 15.3599H14.1332V8.1599H3.86657V15.3599ZM3.86657 6.7199H14.1332V5.2799H3.86657V6.7199ZM8.9999 11.0399C8.79212 11.0399 8.61796 10.9709 8.4774 10.8329C8.33685 10.6949 8.26657 10.5239 8.26657 10.3199C8.26657 10.1159 8.33685 9.9449 8.4774 9.8069C8.61796 9.6689 8.79212 9.5999 8.9999 9.5999C9.20768 9.5999 9.38185 9.6689 9.5224 9.8069C9.66296 9.9449 9.73324 10.1159 9.73324 10.3199C9.73324 10.5239 9.66296 10.6949 9.5224 10.8329C9.38185 10.9709 9.20768 11.0399 8.9999 11.0399ZM6.06657 11.0399C5.85879 11.0399 5.68462 10.9709 5.54407 10.8329C5.40351 10.6949 5.33324 10.5239 5.33324 10.3199C5.33324 10.1159 5.40351 9.9449 5.54407 9.8069C5.68462 9.6689 5.85879 9.5999 6.06657 9.5999C6.27435 9.5999 6.44851 9.6689 6.58907 9.8069C6.72962 9.9449 6.7999 10.1159 6.7999 10.3199C6.7999 10.5239 6.72962 10.6949 6.58907 10.8329C6.44851 10.9709 6.27435 11.0399 6.06657 11.0399ZM11.9332 11.0399C11.7255 11.0399 11.5513 10.9709 11.4107 10.8329C11.2702 10.6949 11.1999 10.5239 11.1999 10.3199C11.1999 10.1159 11.2702 9.9449 11.4107 9.8069C11.5513 9.6689 11.7255 9.5999 11.9332 9.5999C12.141 9.5999 12.3152 9.6689 12.4557 9.8069C12.5963 9.9449 12.6666 10.1159 12.6666 10.3199C12.6666 10.5239 12.5963 10.6949 12.4557 10.8329C12.3152 10.9709 12.141 11.0399 11.9332 11.0399ZM8.9999 13.9199C8.79212 13.9199 8.61796 13.8509 8.4774 13.7129C8.33685 13.5749 8.26657 13.4039 8.26657 13.1999C8.26657 12.9959 8.33685 12.8249 8.4774 12.6869C8.61796 12.5489 8.79212 12.4799 8.9999 12.4799C9.20768 12.4799 9.38185 12.5489 9.5224 12.6869C9.66296 12.8249 9.73324 12.9959 9.73324 13.1999C9.73324 13.4039 9.66296 13.5749 9.5224 13.7129C9.38185 13.8509 9.20768 13.9199 8.9999 13.9199ZM6.06657 13.9199C5.85879 13.9199 5.68462 13.8509 5.54407 13.7129C5.40351 13.5749 5.33324 13.4039 5.33324 13.1999C5.33324 12.9959 5.40351 12.8249 5.54407 12.6869C5.68462 12.5489 5.85879 12.4799 6.06657 12.4799C6.27435 12.4799 6.44851 12.5489 6.58907 12.6869C6.72962 12.8249 6.7999 12.9959 6.7999 13.1999C6.7999 13.4039 6.72962 13.5749 6.58907 13.7129C6.44851 13.8509 6.27435 13.9199 6.06657 13.9199ZM11.9332 13.9199C11.7255 13.9199 11.5513 13.8509 11.4107 13.7129C11.2702 13.5749 11.1999 13.4039 11.1999 13.1999C11.1999 12.9959 11.2702 12.8249 11.4107 12.6869C11.5513 12.5489 11.7255 12.4799 11.9332 12.4799C12.141 12.4799 12.3152 12.5489 12.4557 12.6869C12.5963 12.8249 12.6666 12.9959 12.6666 13.1999C12.6666 13.4039 12.5963 13.5749 12.4557 13.7129C12.3152 13.8509 12.141 13.9199 11.9332 13.9199Z" fill="currentColor"/>
</g>
</svg>
