<svg width="18" height="17" viewBox="0 0 18 17" fill="none" xmlns="http://www.w3.org/2000/svg">
<ellipse cx="8.79397" cy="8.4" rx="8.79397" ry="8.4" fill="#60B17E"/>
<path d="M14.3344 7.15366L14.1874 5.67252C13.9744 4.05771 13.2796 3.40002 11.7938 3.40002H10.597H9.84652H8.30491H7.55439H6.33734C4.84644 3.40002 4.15677 4.05771 3.93872 5.68857L3.8018 7.15901C3.75109 7.73114 3.89815 8.28723 4.21763 8.72035C4.60303 9.24971 5.19634 9.54914 5.85558 9.54914C6.49454 9.54914 7.10814 9.21228 7.49354 8.67222C7.83838 9.21228 8.42662 9.54914 9.08079 9.54914C9.73496 9.54914 10.308 9.22832 10.6579 8.69361C11.0484 9.22297 11.6518 9.54914 12.2806 9.54914C12.9551 9.54914 13.5636 9.23366 13.944 8.67757C14.2482 8.24981 14.3851 7.70975 14.3344 7.15366Z" fill="white"/>
<path d="M13.1725 10.4627V11.9586C13.1725 13.344 12.1915 14.4684 10.9827 14.4684C10.8644 14.4684 10.768 14.358 10.768 14.2225V13.0228C10.768 12.3802 10.5972 11.8783 10.2644 11.5369C9.97093 11.2307 9.57237 11.0801 9.07746 11.0801C8.96796 11.0801 8.85847 11.0852 8.74021 11.1002C7.96061 11.1906 7.36934 11.9435 7.36934 12.8471V14.2225C7.36934 14.358 7.27299 14.4684 7.15473 14.4684C5.94591 14.4684 4.96484 13.344 4.96484 11.9586V10.4728C4.96484 10.1214 5.26705 9.88545 5.55173 10.0009C5.66999 10.0461 5.78824 10.0812 5.91088 10.1013C5.96343 10.1113 6.02037 10.1214 6.07293 10.1214C6.143 10.1314 6.21308 10.1364 6.28316 10.1364C6.79121 10.1364 7.29051 9.92059 7.68469 9.54913C8.06135 9.92059 8.55188 10.1364 9.0687 10.1364C9.58989 10.1364 10.0717 9.93063 10.4483 9.55917C10.8425 9.92561 11.333 10.1364 11.8323 10.1364C11.9112 10.1364 11.99 10.1314 12.0645 10.1214C12.117 10.1164 12.1652 10.1113 12.2134 10.1013C12.3491 10.0812 12.4718 10.036 12.5944 9.99087C12.8791 9.88043 13.1725 10.1214 13.1725 10.4627Z" fill="white"/>
</svg>
