<svg width="27" height="43" viewBox="0 0 27 43" fill="none" xmlns="http://www.w3.org/2000/svg">
<path d="M8.5 29C8.5 32.3137 11 33.5 13.5 33.5C16 33.5 18.5 32.3137 18.5 29C18.5 25.6863 13.5 21.5 13.5 21.5C13.5 21.5 8.5 25.6863 8.5 29Z" stroke="#48AAD9" stroke-width="3" stroke-linejoin="round"/>
<path d="M7.63689 1.5H19.3631C21.2057 1.5 22.127 1.5 22.6994 2.08579C23.7669 3.17814 23.7669 7.82186 22.6994 8.91421C22.127 9.5 21.2057 9.5 19.3631 9.5H7.63689C5.79429 9.5 4.873 9.5 4.30057 8.91421C3.23314 7.82186 3.23314 3.17814 4.30057 2.08579C4.873 1.5 5.79429 1.5 7.63689 1.5Z" stroke="#48AAD9" stroke-width="3"/>
<path d="M5.5 9.5C5.82986 10.1597 5.99481 10.4896 6.11213 10.8114C6.72422 12.4903 6.55611 14.3546 5.65356 15.897C5.48058 16.1926 5.25929 16.4876 4.81672 17.0777L4.00986 18.1535C3.10972 19.3537 2.65965 19.9538 2.33348 20.6112C2.00399 21.2754 1.76842 21.9821 1.63353 22.7111C1.5 23.4328 1.5 24.1829 1.5 25.6831V29.5C1.5 35.1569 1.5 37.9853 3.25736 39.7426C5.01472 41.5 7.84315 41.5 13.5 41.5C19.1569 41.5 21.9853 41.5 23.7426 39.7426C25.5 37.9853 25.5 35.1569 25.5 29.5V25.6831C25.5 24.1829 25.5 23.4328 25.3665 22.7111C25.2316 21.9821 24.996 21.2754 24.6665 20.6112C24.3403 19.9538 23.8903 19.3537 22.9901 18.1535L22.1833 17.0777C21.7407 16.4876 21.5194 16.1926 21.3464 15.897C20.4439 14.3546 20.2758 12.4903 20.8879 10.8114C21.0052 10.4896 21.1701 10.1597 21.5 9.5" stroke="#48AAD9" stroke-width="3"/>
</svg>
