<svg width="35" height="43" viewBox="0 0 35 43" fill="none" xmlns="http://www.w3.org/2000/svg">
<path d="M11.5005 12.5941C11.5005 8.61918 14.8706 4.69112 17.2361 2.42361C18.5208 1.19213 20.4801 1.19213 21.7648 2.42361C24.1303 4.69112 27.5005 8.61918 27.5005 12.5941C27.5005 16.4914 24.4711 20.5 19.5005 20.5C14.5299 20.5 11.5005 16.4914 11.5005 12.5941Z" stroke="#48AAD9" stroke-width="3"/>
<path d="M1.50049 25.5H6.29013C6.87842 25.5 7.45864 25.6325 7.98483 25.8871L12.0688 27.8631C12.595 28.1177 13.1752 28.2503 13.7635 28.2503H15.8487C17.8655 28.2503 19.5005 29.8324 19.5005 31.784C19.5005 31.8629 19.4464 31.9322 19.3681 31.9539L14.2862 33.3589C13.3746 33.6109 12.3985 33.5232 11.5505 33.1129L7.1847 31.0005" stroke="#48AAD9" stroke-width="3" stroke-linecap="round" stroke-linejoin="round"/>
<path d="M19.5005 30.5L28.686 27.6778C30.3144 27.1705 32.0746 27.7721 33.0947 29.1846C33.8322 30.2059 33.5319 31.6684 32.4574 32.2883L17.4262 40.9611C16.4702 41.5127 15.3424 41.6472 14.2908 41.3352L1.50049 37.5399" stroke="#48AAD9" stroke-width="3" stroke-linecap="round" stroke-linejoin="round"/>
</svg>
