<svg width="39" height="39" viewBox="0 0 39 39" fill="none" xmlns="http://www.w3.org/2000/svg">
<path d="M3.25 12.5C3.25 11.4547 3.25 10.932 3.32985 10.4963C3.69496 8.50395 5.25395 6.94496 7.24626 6.57985C7.682 6.5 8.20467 6.5 9.25 6.5H29.75C30.7953 6.5 31.318 6.5 31.7537 6.57985C33.746 6.94496 35.305 8.50395 35.6701 10.4963C35.75 10.932 35.75 11.4547 35.75 12.5V16.25C35.75 25.2246 28.4746 32.5 19.5 32.5C10.5254 32.5 3.25 25.2246 3.25 16.25V12.5Z" stroke="#48AAD9" stroke-width="3" stroke-linejoin="round"/>
<path d="M29.25 13H35.75" stroke="#48AAD9" stroke-width="3" stroke-linecap="round" stroke-linejoin="round"/>
<path d="M3.25 13H9.75" stroke="#48AAD9" stroke-width="3" stroke-linecap="round" stroke-linejoin="round"/>
<path d="M23.5625 31.6875V30.0625C23.5625 23.7803 28.6553 18.6875 34.9375 18.6875" stroke="#48AAD9" stroke-width="3" stroke-linecap="round" stroke-linejoin="round"/>
<path d="M15.4375 31.6875V30.0625C15.4375 23.7803 10.3447 18.6875 4.0625 18.6875" stroke="#48AAD9" stroke-width="3" stroke-linecap="round" stroke-linejoin="round"/>
</svg>
