<svg width="65" height="65" viewBox="0 0 65 65" fill="none" xmlns="http://www.w3.org/2000/svg">
<path d="M27.0832 8.125H40.6248M22.4995 28.4688L25.0148 24.474C27.2206 20.9709 28.6384 17.03 29.17 12.9245L29.7915 8.125H37.9165L38.4784 12.6201C39.0003 16.7954 40.426 20.8068 42.6561 24.375L45.2182 28.4743C45.7562 29.3352 46.0415 30.33 46.0415 31.3451V51.4583C46.0415 54.4499 43.6164 56.875 40.6248 56.875H27.0832C24.0916 56.875 21.6665 54.4499 21.6665 51.4583V31.3549C21.6665 30.3336 21.9553 29.3331 22.4995 28.4688ZM21.6665 37.9167L23.3681 38.4839C27.391 39.8248 31.8158 39.1068 35.2082 36.5625L35.78 36.1336C38.5843 34.0304 42.2835 33.5941 45.4825 34.9504L46.0415 35.2083V51.4583C46.0415 54.4499 43.6164 56.875 40.6248 56.875H27.0832C24.0916 56.875 21.6665 54.4499 21.6665 51.4583V37.9167Z" stroke="#48AAD9" stroke-width="3" stroke-linecap="round"/>
</svg>
