<svg width="48" height="48" viewBox="0 0 48 48" fill="none" xmlns="http://www.w3.org/2000/svg">
<path d="M23.9987 37.3682C27.6141 37.3682 30.5448 34.4375 30.5448 30.8221C30.5448 27.2068 27.6141 24.2759 23.9987 24.2759C20.3835 24.2759 17.4526 27.2068 17.4526 30.8221C17.4526 34.4375 20.3835 37.3682 23.9987 37.3682Z" stroke="#48AAD9" stroke-width="3" stroke-linecap="round" stroke-linejoin="round"/>
<path d="M24.0002 17.6167C33.0089 17.6167 40.5163 24.9385 43.8195 28.5995C45.0207 29.9071 45.0207 31.7375 43.8195 33.045C40.5163 36.7059 33.0089 44.0277 24.0002 44.0277C14.9913 44.0277 7.48391 36.9673 4.18067 33.045C2.97949 31.7375 2.97949 29.9071 4.18067 28.5995C4.66485 28.0629 5.23939 27.4476 5.89574 26.7883" stroke="#48AAD9" stroke-width="3" stroke-miterlimit="10" stroke-linecap="round" stroke-linejoin="round"/>
<path d="M19.5011 16.7478C19.5011 12.7321 12.3687 3.02246 12.3687 3.02246C12.3687 3.02246 4.99658 12.7321 4.99658 16.7478C4.99658 18.6712 5.76064 20.5159 7.12071 21.876C8.48078 23.236 10.3254 24 12.2488 24C14.1722 24 16.0169 23.236 17.3769 21.876C18.737 20.5159 19.5011 18.6712 19.5011 16.7478Z" stroke="#48AAD9" stroke-width="3" stroke-linecap="round" stroke-linejoin="round"/>
</svg>
