<svg width="39" height="43" viewBox="0 0 39 43" fill="none" xmlns="http://www.w3.org/2000/svg">
<path d="M35.8865 23.4988C39.2002 29.2383 37.2337 36.5774 31.4942 39.8911C25.7547 43.2048 18.4156 41.2383 15.1019 35.4988M35.8865 23.4988C32.5728 17.7593 25.2337 15.7928 19.4942 19.1065C13.7547 22.4202 11.7882 29.7593 15.1019 35.4988M35.8865 23.4988L15.1019 35.4988" stroke="#48AAD9" stroke-width="3"/>
<path d="M15.5856 8.58479L25.7555 2.57552C29.5 0.36297 34.288 1.676 36.4498 5.50825C38.1866 8.58703 37.7001 12.3551 35.5 14.8651M15.5856 8.58479L5.4157 14.5941C1.67125 16.8066 0.388305 21.7069 2.55017 25.5392C3.84997 27.8433 6.09912 29.2367 8.5 29.5007M15.5856 8.58479L18.5 13.5007" stroke="#48AAD9" stroke-width="3" stroke-linecap="round" stroke-linejoin="round"/>
</svg>
