<svg width="39" height="43" viewBox="0 0 39 43" fill="none" xmlns="http://www.w3.org/2000/svg">
<path d="M26.813 29.8236L26.1238 25.3837C25.9183 24.0602 25.8156 23.3984 25.6574 22.8319C24.5635 18.9157 21.1873 16.045 17.1156 15.5689C16.5266 15.5 15.8511 15.5 14.5 15.5C13.1489 15.5 12.4734 15.5 11.8844 15.5689C7.81267 16.045 4.43652 18.9157 3.34263 22.8319C3.18439 23.3984 3.08167 24.0602 2.87622 25.3837L2.18705 29.8236C1.50626 34.2094 1.16586 36.4023 1.95702 38.0625C2.42141 39.037 3.14203 39.8695 4.04318 40.4725C5.57843 41.5 7.81703 41.5 12.2942 41.5H16.7058C21.183 41.5 23.4216 41.5 24.9568 40.4725C25.858 39.8695 26.5786 39.037 27.043 38.0625C27.8341 36.4023 27.4937 34.2094 26.813 29.8236Z" stroke="#48AAD9" stroke-width="3" stroke-linecap="round" stroke-linejoin="round"/>
<path d="M14.5 24.5V32.5M18.5 28.5L10.5 28.5" stroke="#48AAD9" stroke-width="3" stroke-linecap="round"/>
<path d="M20.5 16.5V15.5C20.5 12.6716 20.5 11.2574 19.6213 10.3787C18.7426 9.5 17.3284 9.5 14.5 9.5C11.6716 9.5 10.2574 9.5 9.37868 10.3787C8.5 11.2574 8.5 12.6716 8.5 15.5V16.5" stroke="#48AAD9" stroke-width="3" stroke-linecap="round" stroke-linejoin="round"/>
<path d="M17.5 9.5V4.5C17.5 2.84315 16.1569 1.5 14.5 1.5C12.8431 1.5 11.5 2.84315 11.5 4.5L11.5 9.5" stroke="#48AAD9" stroke-width="3" stroke-linecap="round" stroke-linejoin="round"/>
<path d="M17.5 5.93771L22.9347 4.49046C25.9585 3.68521 27.4704 3.28259 28.8721 3.61937C30.2739 3.95614 31.1663 4.93642 32.951 6.89697L33.5 7.5" stroke="#48AAD9" stroke-width="3" stroke-linecap="round" stroke-linejoin="round"/>
<path d="M37.5 18.5C37.5 20.7091 36 21.5 34.5 21.5C33 21.5 31.5 20.7091 31.5 18.5C31.5 16.2909 34.5 13.5 34.5 13.5C34.5 13.5 37.5 16.2909 37.5 18.5Z" stroke="#48AAD9" stroke-width="3" stroke-linejoin="round"/>
</svg>
