<svg width="39" height="39" viewBox="0 0 39 39" fill="none" xmlns="http://www.w3.org/2000/svg">
<circle cx="19.5" cy="19.5" r="16.25" stroke="#48AAD9" stroke-width="3"/>
<path d="M22.75 26C21.8191 27.0268 20.7017 27.625 19.5 27.625C18.2983 27.625 17.1809 27.0268 16.25 26" stroke="#48AAD9" stroke-width="3" stroke-linecap="round"/>
<path d="M14.625 18.6875C14.1596 18.1741 13.6008 17.875 13 17.875C12.3992 17.875 11.8404 18.1741 11.375 18.6875" stroke="#48AAD9" stroke-width="3" stroke-linecap="round"/>
<path d="M27.625 18.6875C27.1596 18.1741 26.6008 17.875 26 17.875C25.3992 17.875 24.8404 18.1741 24.375 18.6875" stroke="#48AAD9" stroke-width="3" stroke-linecap="round"/>
<path d="M19.5 3.25C16.8076 3.25 14.625 5.43261 14.625 8.125C14.625 10.8174 16.8076 13 19.5 13C20.7486 13 21.8875 12.5306 22.75 11.7587" stroke="#48AAD9" stroke-width="3" stroke-linecap="round"/>
</svg>
