<svg width="43" height="43" viewBox="0 0 43 43" fill="none" xmlns="http://www.w3.org/2000/svg">
<path d="M31.5 1.5C31.5 2.51972 31.5 3.02959 31.6354 3.50471C31.7098 3.76572 31.814 4.01729 31.946 4.25446C32.1862 4.68619 32.5467 5.04671 33.2678 5.76777L37.2322 9.73223C37.9533 10.4533 38.3138 10.8138 38.7455 11.054C38.9827 11.186 39.2343 11.2902 39.4953 11.3646C39.9704 11.5 40.4803 11.5 41.5 11.5" stroke="#48AAD9" stroke-width="3" stroke-linecap="round" stroke-linejoin="round"/>
<path d="M20.8862 11.5L11.0305 21.3557C8.90097 23.4852 7.83621 24.55 7.58241 25.8259C7.47253 26.3783 7.47253 26.9469 7.58241 27.4993C7.83621 28.7752 8.90097 29.84 11.0305 31.9695C13.16 34.099 14.2248 35.1638 15.5007 35.4176C16.0531 35.5275 16.6217 35.5275 17.1741 35.4176C18.45 35.1638 19.5148 34.099 21.6443 31.9695L31.5 22.1138" stroke="#48AAD9" stroke-width="3" stroke-linecap="round" stroke-linejoin="round"/>
<path d="M19.5 9.5L33.5 23.5" stroke="#48AAD9" stroke-width="3" stroke-linecap="round" stroke-linejoin="round"/>
<path d="M13.5 34.7744L11.1611 36.445C10.2197 37.1174 9.74907 37.4536 9.23291 37.4942C9.03274 37.51 8.83134 37.4933 8.63648 37.4449C8.13403 37.3199 7.72504 36.9109 6.90705 36.093C6.08906 35.275 5.68007 34.866 5.55512 34.3635C5.50666 34.1687 5.48999 33.9673 5.50576 33.7671C5.5464 33.2509 5.88259 32.7803 6.55498 31.8389L8.22564 29.5" stroke="#48AAD9" stroke-width="3" stroke-linecap="round" stroke-linejoin="round"/>
<path d="M24.5 13.5L34.5 5.5M29.5 18.5L37.5 8.5" stroke="#48AAD9" stroke-width="3" stroke-linejoin="round"/>
<path d="M6.5 36.5L1.5 41.5" stroke="#48AAD9" stroke-width="3" stroke-linecap="round" stroke-linejoin="round"/>
</svg>
