<svg width="32" height="48" viewBox="0 0 32 48" fill="none" xmlns="http://www.w3.org/2000/svg">
  <!-- Bottle -->
  <path d="M10 2H22" stroke="#48AAD9" stroke-width="3" stroke-linecap="round"/>

  <path d="M12 2V8" stroke="#48AAD9" stroke-width="3" stroke-linecap="round"/>
  <path d="M20 2V8" stroke="#48AAD9" stroke-width="3" stroke-linecap="round"/>

  <path d="M9 8H23C24.6569 8 26 9.34315 26 11V41C26 44.3137 23.3137 47 20 47H12C8.68629 47 6 44.3137 6 41V11C6 9.34315 7.34315 8 9 8Z"
        stroke="#48AAD9"
        stroke-width="3"
        stroke-linejoin="round"/>

  <!-- Divider -->
  <path d="M6 16H26"
        stroke="#48AAD9"
        stroke-width="3"
        stroke-linecap="round"/>

  <!-- Question Mark -->
  <path d="M13 24C13 21.7909 14.7909 20 17 20C19.2091 20 21 21.7909 21 24C21 26 19.8 27 18.4 27.8C17.4 28.4 16.5 29.1 16.5 30.5"
        stroke="#48AAD9"
        stroke-width="3"
        stroke-linecap="round"
        stroke-linejoin="round"/>

  <circle cx="16.5" cy="35.5" r="1.5" fill="#48AAD9"/>
</svg>