<svg width="35" height="43" viewBox="0 0 35 43" fill="none" xmlns="http://www.w3.org/2000/svg">
<path d="M1.50049 25.5002H6.29013C6.87842 25.5002 7.45864 25.6328 7.98483 25.8874L12.0688 27.8634C12.595 28.118 13.1752 28.2505 13.7635 28.2505H15.8487C17.8655 28.2505 19.5005 29.8326 19.5005 31.7842C19.5005 31.8631 19.4464 31.9324 19.3681 31.9541L14.2862 33.3591C13.3746 33.6112 12.3985 33.5234 11.5505 33.1131L7.1847 31.0008" stroke="#48AAD9" stroke-width="3" stroke-linecap="round" stroke-linejoin="round"/>
<path d="M19.5005 30.5002L28.686 27.6781C30.3144 27.1707 32.0746 27.7723 33.0947 29.1848C33.8322 30.2061 33.5319 31.6686 32.4574 32.2886L17.4262 40.9613C16.4702 41.5129 15.3424 41.6475 14.2908 41.3355L1.50049 37.5401" stroke="#48AAD9" stroke-width="3" stroke-linecap="round" stroke-linejoin="round"/>
<path d="M28.1593 6.50108C30.9203 11.2832 29.2818 17.3981 24.4997 20.1591C19.7175 22.92 13.6026 21.2815 10.8417 16.4994M28.1593 6.50108C25.3983 1.71895 19.2835 0.0804732 14.5013 2.84144C9.7192 5.6024 8.08072 11.7173 10.8417 16.4994M28.1593 6.50108L10.8417 16.4994" stroke="#48AAD9" stroke-width="3"/>
</svg>
