<svg width="275" height="91" viewBox="0 0 275 91" fill="none" xmlns="http://www.w3.org/2000/svg">
<path d="M43.704 88.06C43.552 88.06 43.424 88.008 43.32 87.904C43.216 87.8 43.164 87.672 43.164 87.52V80.356C43.164 80.14 43.24 79.956 43.392 79.804C43.544 79.644 43.728 79.564 43.944 79.564H44.34C44.5 79.564 44.648 79.612 44.784 79.708C44.92 79.804 45.016 79.924 45.072 80.068L47.796 86.86L50.52 80.068C50.584 79.924 50.68 79.804 50.808 79.708C50.944 79.612 51.092 79.564 51.252 79.564H51.648C51.864 79.564 52.048 79.644 52.2 79.804C52.352 79.956 52.428 80.14 52.428 80.356V87.52C52.428 87.672 52.376 87.8 52.272 87.904C52.168 88.008 52.04 88.06 51.888 88.06C51.736 88.06 51.604 88.008 51.492 87.904C51.388 87.8 51.336 87.672 51.336 87.52V80.704L48.564 87.556C48.5 87.708 48.4 87.832 48.264 87.928C48.128 88.016 47.972 88.06 47.796 88.06C47.62 88.06 47.464 88.016 47.328 87.928C47.192 87.832 47.092 87.708 47.028 87.556L44.256 80.704V87.52C44.256 87.672 44.2 87.8 44.088 87.904C43.984 88.008 43.856 88.06 43.704 88.06ZM56.0978 88.12C55.7538 88.12 55.4298 88.048 55.1258 87.904C54.8298 87.76 54.5898 87.556 54.4058 87.292C54.2298 87.02 54.1418 86.696 54.1418 86.32C54.1418 85.752 54.3658 85.288 54.8138 84.928C55.2698 84.56 55.9658 84.376 56.9018 84.376H58.3538V84.28C58.3538 83.744 58.2218 83.364 57.9578 83.14C57.6938 82.908 57.2898 82.792 56.7458 82.792C56.4098 82.792 56.1138 82.824 55.8578 82.888C55.6098 82.944 55.3738 83.008 55.1498 83.08C55.0858 83.096 55.0338 83.104 54.9938 83.104C54.8738 83.104 54.7698 83.06 54.6818 82.972C54.5938 82.884 54.5498 82.776 54.5498 82.648C54.5498 82.432 54.6538 82.28 54.8618 82.192C55.1418 82.072 55.4498 81.972 55.7858 81.892C56.1298 81.804 56.5138 81.76 56.9378 81.76C57.5218 81.76 57.9978 81.876 58.3658 82.108C58.7338 82.34 59.0058 82.636 59.1818 82.996C59.3578 83.356 59.4458 83.732 59.4458 84.124V87.52C59.4458 87.672 59.3898 87.8 59.2778 87.904C59.1738 88.008 59.0458 88.06 58.8938 88.06C58.7418 88.06 58.6138 88.008 58.5098 87.904C58.4058 87.8 58.3538 87.672 58.3538 87.52V87.208C58.1378 87.432 57.8498 87.64 57.4898 87.832C57.1298 88.024 56.6658 88.12 56.0978 88.12ZM56.5058 87.16C56.8818 87.16 57.2338 87.068 57.5618 86.884C57.8898 86.7 58.1538 86.492 58.3538 86.26V85.252H57.0458C56.4858 85.252 56.0418 85.324 55.7138 85.468C55.3938 85.612 55.2338 85.856 55.2338 86.2C55.2338 86.456 55.3218 86.68 55.4978 86.872C55.6818 87.064 56.0178 87.16 56.5058 87.16ZM63.2561 88.12C62.8161 88.12 62.4161 88.072 62.0561 87.976C61.7041 87.88 61.3761 87.748 61.0721 87.58C60.9361 87.484 60.8681 87.352 60.8681 87.184C60.8681 87.064 60.9121 86.956 61.0001 86.86C61.0881 86.756 61.2001 86.704 61.3361 86.704C61.4081 86.704 61.4801 86.72 61.5521 86.752C61.7681 86.848 62.0041 86.932 62.2601 87.004C62.5241 87.076 62.8321 87.112 63.1841 87.112C63.6481 87.112 63.9841 87.04 64.1921 86.896C64.4081 86.744 64.5161 86.532 64.5161 86.26C64.5161 86.084 64.4281 85.948 64.2521 85.852C64.0841 85.756 63.8601 85.676 63.5801 85.612C63.3081 85.54 63.0201 85.468 62.7161 85.396C62.4121 85.316 62.1201 85.212 61.8401 85.084C61.5681 84.948 61.3441 84.768 61.1681 84.544C61.0001 84.312 60.9161 84.016 60.9161 83.656C60.9161 83.112 61.1121 82.66 61.5041 82.3C61.8961 81.94 62.4801 81.76 63.2561 81.76C63.5841 81.76 63.8921 81.788 64.1801 81.844C64.4761 81.9 64.7481 81.972 64.9961 82.06C65.1081 82.092 65.1921 82.156 65.2481 82.252C65.3121 82.34 65.3441 82.428 65.3441 82.516C65.3441 82.644 65.2961 82.756 65.2001 82.852C65.1121 82.948 65.0001 82.996 64.8641 82.996C64.8321 82.996 64.8041 82.996 64.7801 82.996C64.7561 82.988 64.7321 82.98 64.7081 82.972C64.5161 82.908 64.3041 82.856 64.0721 82.816C63.8481 82.776 63.6041 82.756 63.3401 82.756C62.9001 82.756 62.5601 82.836 62.3201 82.996C62.0801 83.156 61.9601 83.356 61.9601 83.596C61.9601 83.804 62.0441 83.964 62.2121 84.076C62.3881 84.188 62.6121 84.28 62.8841 84.352C63.1641 84.416 63.4561 84.484 63.7601 84.556C64.0721 84.628 64.3641 84.732 64.6361 84.868C64.9161 84.996 65.1401 85.176 65.3081 85.408C65.4841 85.64 65.5721 85.952 65.5721 86.344C65.5721 86.832 65.3761 87.252 64.9841 87.604C64.6001 87.948 64.0241 88.12 63.2561 88.12ZM70.6989 90.82C70.5469 90.82 70.4189 90.764 70.3149 90.652C70.2109 90.548 70.1589 90.42 70.1589 90.268V82.36C70.1589 82.208 70.2109 82.08 70.3149 81.976C70.4189 81.872 70.5469 81.82 70.6989 81.82C70.8589 81.82 70.9909 81.872 71.0949 81.976C71.1989 82.08 71.2509 82.208 71.2509 82.36V82.672C71.5309 82.384 71.8389 82.16 72.1749 82C72.5109 81.84 72.8869 81.76 73.3029 81.76C73.7909 81.76 74.2549 81.884 74.6949 82.132C75.1349 82.38 75.4949 82.74 75.7749 83.212C76.0629 83.684 76.2069 84.26 76.2069 84.94C76.2069 85.62 76.0629 86.196 75.7749 86.668C75.4949 87.14 75.1349 87.5 74.6949 87.748C74.2549 87.996 73.7909 88.12 73.3029 88.12C72.8869 88.12 72.5109 88.04 72.1749 87.88C71.8389 87.72 71.5309 87.496 71.2509 87.208V90.268C71.2509 90.42 71.1989 90.548 71.0949 90.652C70.9909 90.764 70.8589 90.82 70.6989 90.82ZM73.1469 87.1C73.7149 87.1 74.1829 86.916 74.5509 86.548C74.9269 86.18 75.1149 85.644 75.1149 84.94C75.1149 84.228 74.9269 83.692 74.5509 83.332C74.1829 82.964 73.7149 82.78 73.1469 82.78C72.7549 82.78 72.3989 82.868 72.0789 83.044C71.7589 83.212 71.4829 83.424 71.2509 83.68V86.2C71.4829 86.456 71.7589 86.672 72.0789 86.848C72.3989 87.016 72.7549 87.1 73.1469 87.1ZM78.2453 80.632C78.0773 80.632 77.9333 80.572 77.8133 80.452C77.6933 80.332 77.6333 80.188 77.6333 80.02V79.972C77.6333 79.804 77.6933 79.66 77.8133 79.54C77.9333 79.42 78.0773 79.36 78.2453 79.36H78.3173C78.4853 79.36 78.6293 79.42 78.7493 79.54C78.8693 79.66 78.9293 79.804 78.9293 79.972V80.02C78.9293 80.188 78.8693 80.332 78.7493 80.452C78.6293 80.572 78.4853 80.632 78.3173 80.632H78.2453ZM78.2693 88.06C78.1173 88.06 77.9893 88.008 77.8853 87.904C77.7813 87.8 77.7293 87.672 77.7293 87.52V82.372C77.7293 82.212 77.7813 82.08 77.8853 81.976C77.9893 81.872 78.1173 81.82 78.2693 81.82C78.4293 81.82 78.5613 81.872 78.6653 81.976C78.7693 82.08 78.8213 82.212 78.8213 82.372V87.52C78.8213 87.672 78.7693 87.8 78.6653 87.904C78.5613 88.008 78.4293 88.06 78.2693 88.06ZM81.2575 88.06C81.1055 88.06 80.9775 88.008 80.8735 87.904C80.7695 87.8 80.7175 87.672 80.7175 87.52V82.372C80.7175 82.212 80.7695 82.08 80.8735 81.976C80.9775 81.872 81.1055 81.82 81.2575 81.82C81.4095 81.82 81.5375 81.872 81.6415 81.976C81.7535 82.08 81.8095 82.212 81.8095 82.372V82.864C82.0655 82.584 82.3655 82.332 82.7095 82.108C83.0615 81.876 83.5055 81.76 84.0415 81.76C84.4975 81.76 84.8855 81.868 85.2055 82.084C85.5255 82.292 85.7695 82.576 85.9375 82.936C86.1055 83.288 86.1895 83.68 86.1895 84.112V87.52C86.1895 87.672 86.1335 87.8 86.0215 87.904C85.9175 88.008 85.7895 88.06 85.6375 88.06C85.4855 88.06 85.3575 88.008 85.2535 87.904C85.1495 87.8 85.0975 87.672 85.0975 87.52V84.232C85.0975 83.776 84.9935 83.42 84.7855 83.164C84.5855 82.9 84.2495 82.768 83.7775 82.768C83.3455 82.768 82.9695 82.884 82.6495 83.116C82.3295 83.348 82.0495 83.616 81.8095 83.92V87.52C81.8095 87.672 81.7535 87.8 81.6415 87.904C81.5375 88.008 81.4095 88.06 81.2575 88.06ZM89.59 88.12C89.246 88.12 88.922 88.048 88.618 87.904C88.322 87.76 88.082 87.556 87.898 87.292C87.722 87.02 87.634 86.696 87.634 86.32C87.634 85.752 87.858 85.288 88.306 84.928C88.762 84.56 89.458 84.376 90.394 84.376H91.846V84.28C91.846 83.744 91.714 83.364 91.45 83.14C91.186 82.908 90.782 82.792 90.238 82.792C89.902 82.792 89.606 82.824 89.35 82.888C89.102 82.944 88.866 83.008 88.642 83.08C88.578 83.096 88.526 83.104 88.486 83.104C88.366 83.104 88.262 83.06 88.174 82.972C88.086 82.884 88.042 82.776 88.042 82.648C88.042 82.432 88.146 82.28 88.354 82.192C88.634 82.072 88.942 81.972 89.278 81.892C89.622 81.804 90.006 81.76 90.43 81.76C91.014 81.76 91.49 81.876 91.858 82.108C92.226 82.34 92.498 82.636 92.674 82.996C92.85 83.356 92.938 83.732 92.938 84.124V87.52C92.938 87.672 92.882 87.8 92.77 87.904C92.666 88.008 92.538 88.06 92.386 88.06C92.234 88.06 92.106 88.008 92.002 87.904C91.898 87.8 91.846 87.672 91.846 87.52V87.208C91.63 87.432 91.342 87.64 90.982 87.832C90.622 88.024 90.158 88.12 89.59 88.12ZM89.998 87.16C90.374 87.16 90.726 87.068 91.054 86.884C91.382 86.7 91.646 86.492 91.846 86.26V85.252H90.538C89.978 85.252 89.534 85.324 89.206 85.468C88.886 85.612 88.726 85.856 88.726 86.2C88.726 86.456 88.814 86.68 88.99 86.872C89.174 87.064 89.51 87.16 89.998 87.16ZM115.593 88.06C115.441 88.06 115.313 88.008 115.209 87.904C115.105 87.8 115.053 87.672 115.053 87.52V82.372C115.053 82.212 115.105 82.08 115.209 81.976C115.313 81.872 115.441 81.82 115.593 81.82C115.745 81.82 115.873 81.872 115.977 81.976C116.089 82.08 116.145 82.212 116.145 82.372V82.864C116.401 82.584 116.701 82.332 117.045 82.108C117.397 81.876 117.841 81.76 118.377 81.76C118.833 81.76 119.221 81.868 119.541 82.084C119.861 82.292 120.105 82.576 120.273 82.936C120.441 83.288 120.525 83.68 120.525 84.112V87.52C120.525 87.672 120.469 87.8 120.357 87.904C120.253 88.008 120.125 88.06 119.973 88.06C119.821 88.06 119.693 88.008 119.589 87.904C119.485 87.8 119.433 87.672 119.433 87.52V84.232C119.433 83.776 119.329 83.42 119.121 83.164C118.921 82.9 118.585 82.768 118.113 82.768C117.681 82.768 117.305 82.884 116.985 83.116C116.665 83.348 116.385 83.616 116.145 83.92V87.52C116.145 87.672 116.089 87.8 115.977 87.904C115.873 88.008 115.745 88.06 115.593 88.06ZM125.222 90.88C124.734 90.88 124.254 90.816 123.782 90.688C123.31 90.56 122.934 90.416 122.654 90.256C122.598 90.216 122.546 90.164 122.498 90.1C122.458 90.036 122.438 89.948 122.438 89.836C122.438 89.716 122.482 89.604 122.57 89.5C122.666 89.396 122.782 89.344 122.918 89.344C122.958 89.344 122.994 89.348 123.026 89.356C123.066 89.364 123.102 89.376 123.134 89.392C123.39 89.52 123.682 89.628 124.01 89.716C124.338 89.804 124.706 89.848 125.114 89.848C126.338 89.848 126.95 89.196 126.95 87.892V87.088C126.702 87.352 126.41 87.572 126.074 87.748C125.738 87.916 125.346 88 124.898 88C124.562 88 124.222 87.936 123.878 87.808C123.542 87.68 123.23 87.488 122.942 87.232C122.662 86.976 122.434 86.652 122.258 86.26C122.082 85.868 121.994 85.408 121.994 84.88C121.994 84.352 122.082 83.892 122.258 83.5C122.434 83.108 122.662 82.784 122.942 82.528C123.23 82.272 123.542 82.08 123.878 81.952C124.222 81.824 124.562 81.76 124.898 81.76C125.346 81.76 125.738 81.848 126.074 82.024C126.41 82.192 126.702 82.408 126.95 82.672V82.372C126.95 82.22 127.002 82.092 127.106 81.988C127.21 81.876 127.338 81.82 127.49 81.82C127.642 81.82 127.77 81.876 127.874 81.988C127.986 82.092 128.042 82.22 128.042 82.372V87.736C128.042 88.744 127.798 89.52 127.31 90.064C126.822 90.608 126.126 90.88 125.222 90.88ZM125.126 87.004C125.542 87.004 125.894 86.912 126.182 86.728C126.47 86.544 126.726 86.34 126.95 86.116V83.644C126.726 83.412 126.47 83.208 126.182 83.032C125.894 82.848 125.542 82.756 125.126 82.756C124.75 82.756 124.406 82.832 124.094 82.984C123.782 83.136 123.534 83.372 123.35 83.692C123.174 84.004 123.086 84.4 123.086 84.88C123.086 85.36 123.174 85.76 123.35 86.08C123.534 86.392 123.782 86.624 124.094 86.776C124.406 86.928 124.75 87.004 125.126 87.004ZM133.593 90.82C133.441 90.82 133.313 90.764 133.209 90.652C133.105 90.548 133.053 90.42 133.053 90.268V82.36C133.053 82.208 133.105 82.08 133.209 81.976C133.313 81.872 133.441 81.82 133.593 81.82C133.753 81.82 133.885 81.872 133.989 81.976C134.093 82.08 134.145 82.208 134.145 82.36V82.672C134.425 82.384 134.733 82.16 135.069 82C135.405 81.84 135.781 81.76 136.197 81.76C136.685 81.76 137.149 81.884 137.589 82.132C138.029 82.38 138.389 82.74 138.669 83.212C138.957 83.684 139.101 84.26 139.101 84.94C139.101 85.62 138.957 86.196 138.669 86.668C138.389 87.14 138.029 87.5 137.589 87.748C137.149 87.996 136.685 88.12 136.197 88.12C135.781 88.12 135.405 88.04 135.069 87.88C134.733 87.72 134.425 87.496 134.145 87.208V90.268C134.145 90.42 134.093 90.548 133.989 90.652C133.885 90.764 133.753 90.82 133.593 90.82ZM136.041 87.1C136.609 87.1 137.077 86.916 137.445 86.548C137.821 86.18 138.009 85.644 138.009 84.94C138.009 84.228 137.821 83.692 137.445 83.332C137.077 82.964 136.609 82.78 136.041 82.78C135.649 82.78 135.293 82.868 134.973 83.044C134.653 83.212 134.377 83.424 134.145 83.68V86.2C134.377 86.456 134.653 86.672 134.973 86.848C135.293 87.016 135.649 87.1 136.041 87.1ZM142.184 88.12C141.84 88.12 141.516 88.048 141.212 87.904C140.916 87.76 140.676 87.556 140.492 87.292C140.316 87.02 140.228 86.696 140.228 86.32C140.228 85.752 140.452 85.288 140.9 84.928C141.356 84.56 142.052 84.376 142.988 84.376H144.44V84.28C144.44 83.744 144.308 83.364 144.044 83.14C143.78 82.908 143.376 82.792 142.832 82.792C142.496 82.792 142.2 82.824 141.944 82.888C141.696 82.944 141.46 83.008 141.236 83.08C141.172 83.096 141.12 83.104 141.08 83.104C140.96 83.104 140.856 83.06 140.768 82.972C140.68 82.884 140.636 82.776 140.636 82.648C140.636 82.432 140.74 82.28 140.948 82.192C141.228 82.072 141.536 81.972 141.872 81.892C142.216 81.804 142.6 81.76 143.024 81.76C143.608 81.76 144.084 81.876 144.452 82.108C144.82 82.34 145.092 82.636 145.268 82.996C145.444 83.356 145.532 83.732 145.532 84.124V87.52C145.532 87.672 145.476 87.8 145.364 87.904C145.26 88.008 145.132 88.06 144.98 88.06C144.828 88.06 144.7 88.008 144.596 87.904C144.492 87.8 144.44 87.672 144.44 87.52V87.208C144.224 87.432 143.936 87.64 143.576 87.832C143.216 88.024 142.752 88.12 142.184 88.12ZM142.592 87.16C142.968 87.16 143.32 87.068 143.648 86.884C143.976 86.7 144.24 86.492 144.44 86.26V85.252H143.132C142.572 85.252 142.128 85.324 141.8 85.468C141.48 85.612 141.32 85.856 141.32 86.2C141.32 86.456 141.408 86.68 141.584 86.872C141.768 87.064 142.104 87.16 142.592 87.16ZM150.218 90.88C149.73 90.88 149.25 90.816 148.778 90.688C148.306 90.56 147.93 90.416 147.65 90.256C147.594 90.216 147.542 90.164 147.494 90.1C147.454 90.036 147.434 89.948 147.434 89.836C147.434 89.716 147.478 89.604 147.566 89.5C147.662 89.396 147.778 89.344 147.914 89.344C147.954 89.344 147.99 89.348 148.022 89.356C148.062 89.364 148.098 89.376 148.13 89.392C148.386 89.52 148.678 89.628 149.006 89.716C149.334 89.804 149.702 89.848 150.11 89.848C151.334 89.848 151.946 89.196 151.946 87.892V87.088C151.698 87.352 151.406 87.572 151.07 87.748C150.734 87.916 150.342 88 149.894 88C149.558 88 149.218 87.936 148.874 87.808C148.538 87.68 148.226 87.488 147.938 87.232C147.658 86.976 147.43 86.652 147.254 86.26C147.078 85.868 146.99 85.408 146.99 84.88C146.99 84.352 147.078 83.892 147.254 83.5C147.43 83.108 147.658 82.784 147.938 82.528C148.226 82.272 148.538 82.08 148.874 81.952C149.218 81.824 149.558 81.76 149.894 81.76C150.342 81.76 150.734 81.848 151.07 82.024C151.406 82.192 151.698 82.408 151.946 82.672V82.372C151.946 82.22 151.998 82.092 152.102 81.988C152.206 81.876 152.334 81.82 152.486 81.82C152.638 81.82 152.766 81.876 152.87 81.988C152.982 82.092 153.038 82.22 153.038 82.372V87.736C153.038 88.744 152.794 89.52 152.306 90.064C151.818 90.608 151.122 90.88 150.218 90.88ZM150.122 87.004C150.538 87.004 150.89 86.912 151.178 86.728C151.466 86.544 151.722 86.34 151.946 86.116V83.644C151.722 83.412 151.466 83.208 151.178 83.032C150.89 82.848 150.538 82.756 150.122 82.756C149.746 82.756 149.402 82.832 149.09 82.984C148.778 83.136 148.53 83.372 148.346 83.692C148.17 84.004 148.082 84.4 148.082 84.88C148.082 85.36 148.17 85.76 148.346 86.08C148.53 86.392 148.778 86.624 149.09 86.776C149.402 86.928 149.746 87.004 150.122 87.004ZM158.076 88.12C157.66 88.12 157.284 88.04 156.948 87.88C156.612 87.72 156.304 87.496 156.024 87.208V87.52C156.024 87.672 155.972 87.8 155.868 87.904C155.764 88.008 155.632 88.06 155.472 88.06C155.32 88.06 155.192 88.008 155.088 87.904C154.984 87.8 154.932 87.672 154.932 87.52V79.732C154.932 79.572 154.984 79.44 155.088 79.336C155.192 79.232 155.32 79.18 155.472 79.18C155.632 79.18 155.764 79.232 155.868 79.336C155.972 79.44 156.024 79.572 156.024 79.732V82.672C156.304 82.384 156.612 82.16 156.948 82C157.284 81.84 157.66 81.76 158.076 81.76C158.564 81.76 159.028 81.884 159.468 82.132C159.908 82.38 160.268 82.74 160.548 83.212C160.836 83.684 160.98 84.26 160.98 84.94C160.98 85.62 160.836 86.196 160.548 86.668C160.268 87.14 159.908 87.5 159.468 87.748C159.028 87.996 158.564 88.12 158.076 88.12ZM157.92 87.1C158.488 87.1 158.956 86.916 159.324 86.548C159.7 86.18 159.888 85.644 159.888 84.94C159.888 84.228 159.7 83.692 159.324 83.332C158.956 82.964 158.488 82.78 157.92 82.78C157.528 82.78 157.172 82.868 156.852 83.044C156.532 83.212 156.256 83.424 156.024 83.68V86.2C156.256 86.456 156.532 86.672 156.852 86.848C157.172 87.016 157.528 87.1 157.92 87.1ZM163.019 80.632C162.851 80.632 162.707 80.572 162.587 80.452C162.467 80.332 162.407 80.188 162.407 80.02V79.972C162.407 79.804 162.467 79.66 162.587 79.54C162.707 79.42 162.851 79.36 163.019 79.36H163.091C163.259 79.36 163.403 79.42 163.523 79.54C163.643 79.66 163.703 79.804 163.703 79.972V80.02C163.703 80.188 163.643 80.332 163.523 80.452C163.403 80.572 163.259 80.632 163.091 80.632H163.019ZM163.043 88.06C162.891 88.06 162.763 88.008 162.659 87.904C162.555 87.8 162.503 87.672 162.503 87.52V82.372C162.503 82.212 162.555 82.08 162.659 81.976C162.763 81.872 162.891 81.82 163.043 81.82C163.203 81.82 163.335 81.872 163.439 81.976C163.543 82.08 163.595 82.212 163.595 82.372V87.52C163.595 87.672 163.543 87.8 163.439 87.904C163.335 88.008 163.203 88.06 163.043 88.06ZM166.031 88.06C165.879 88.06 165.751 88.008 165.647 87.904C165.543 87.8 165.491 87.672 165.491 87.52V79.732C165.491 79.572 165.543 79.44 165.647 79.336C165.751 79.232 165.879 79.18 166.031 79.18C166.191 79.18 166.323 79.232 166.427 79.336C166.531 79.44 166.583 79.572 166.583 79.732V87.52C166.583 87.672 166.531 87.8 166.427 87.904C166.323 88.008 166.191 88.06 166.031 88.06ZM168.995 80.632C168.827 80.632 168.683 80.572 168.563 80.452C168.443 80.332 168.383 80.188 168.383 80.02V79.972C168.383 79.804 168.443 79.66 168.563 79.54C168.683 79.42 168.827 79.36 168.995 79.36H169.067C169.235 79.36 169.379 79.42 169.499 79.54C169.619 79.66 169.679 79.804 169.679 79.972V80.02C169.679 80.188 169.619 80.332 169.499 80.452C169.379 80.572 169.235 80.632 169.067 80.632H168.995ZM169.019 88.06C168.867 88.06 168.739 88.008 168.635 87.904C168.531 87.8 168.479 87.672 168.479 87.52V82.372C168.479 82.212 168.531 82.08 168.635 81.976C168.739 81.872 168.867 81.82 169.019 81.82C169.179 81.82 169.311 81.872 169.415 81.976C169.519 82.08 169.571 82.212 169.571 82.372V87.52C169.571 87.672 169.519 87.8 169.415 87.904C169.311 88.008 169.179 88.06 169.019 88.06ZM175.125 88.06C174.973 88.06 174.845 88.008 174.741 87.904C174.637 87.8 174.585 87.672 174.585 87.52V82.372C174.585 82.212 174.637 82.08 174.741 81.976C174.845 81.872 174.973 81.82 175.125 81.82C175.277 81.82 175.405 81.872 175.509 81.976C175.621 82.08 175.677 82.212 175.677 82.372V82.864C175.933 82.584 176.233 82.332 176.577 82.108C176.929 81.876 177.373 81.76 177.909 81.76C178.365 81.76 178.753 81.868 179.073 82.084C179.393 82.292 179.637 82.576 179.805 82.936C179.973 83.288 180.057 83.68 180.057 84.112V87.52C180.057 87.672 180.001 87.8 179.889 87.904C179.785 88.008 179.657 88.06 179.505 88.06C179.353 88.06 179.225 88.008 179.121 87.904C179.017 87.8 178.965 87.672 178.965 87.52V84.232C178.965 83.776 178.861 83.42 178.653 83.164C178.453 82.9 178.117 82.768 177.645 82.768C177.213 82.768 176.837 82.884 176.517 83.116C176.197 83.348 175.917 83.616 175.677 83.92V87.52C175.677 87.672 175.621 87.8 175.509 87.904C175.405 88.008 175.277 88.06 175.125 88.06ZM184.753 90.88C184.265 90.88 183.785 90.816 183.313 90.688C182.841 90.56 182.465 90.416 182.185 90.256C182.129 90.216 182.077 90.164 182.029 90.1C181.989 90.036 181.969 89.948 181.969 89.836C181.969 89.716 182.013 89.604 182.101 89.5C182.197 89.396 182.313 89.344 182.449 89.344C182.489 89.344 182.525 89.348 182.557 89.356C182.597 89.364 182.633 89.376 182.665 89.392C182.921 89.52 183.213 89.628 183.541 89.716C183.869 89.804 184.237 89.848 184.645 89.848C185.869 89.848 186.481 89.196 186.481 87.892V87.088C186.233 87.352 185.941 87.572 185.605 87.748C185.269 87.916 184.877 88 184.429 88C184.093 88 183.753 87.936 183.409 87.808C183.073 87.68 182.761 87.488 182.473 87.232C182.193 86.976 181.965 86.652 181.789 86.26C181.613 85.868 181.525 85.408 181.525 84.88C181.525 84.352 181.613 83.892 181.789 83.5C181.965 83.108 182.193 82.784 182.473 82.528C182.761 82.272 183.073 82.08 183.409 81.952C183.753 81.824 184.093 81.76 184.429 81.76C184.877 81.76 185.269 81.848 185.605 82.024C185.941 82.192 186.233 82.408 186.481 82.672V82.372C186.481 82.22 186.533 82.092 186.637 81.988C186.741 81.876 186.869 81.82 187.021 81.82C187.173 81.82 187.301 81.876 187.405 81.988C187.517 82.092 187.573 82.22 187.573 82.372V87.736C187.573 88.744 187.329 89.52 186.841 90.064C186.353 90.608 185.657 90.88 184.753 90.88ZM184.657 87.004C185.073 87.004 185.425 86.912 185.713 86.728C186.001 86.544 186.257 86.34 186.481 86.116V83.644C186.257 83.412 186.001 83.208 185.713 83.032C185.425 82.848 185.073 82.756 184.657 82.756C184.281 82.756 183.937 82.832 183.625 82.984C183.313 83.136 183.065 83.372 182.881 83.692C182.705 84.004 182.617 84.4 182.617 84.88C182.617 85.36 182.705 85.76 182.881 86.08C183.065 86.392 183.313 86.624 183.625 86.776C183.937 86.928 184.281 87.004 184.657 87.004ZM195.441 90.88C194.953 90.88 194.473 90.816 194.001 90.688C193.529 90.56 193.153 90.416 192.873 90.256C192.817 90.216 192.765 90.164 192.717 90.1C192.677 90.036 192.657 89.948 192.657 89.836C192.657 89.716 192.701 89.604 192.789 89.5C192.885 89.396 193.001 89.344 193.137 89.344C193.177 89.344 193.213 89.348 193.245 89.356C193.285 89.364 193.321 89.376 193.353 89.392C193.609 89.52 193.901 89.628 194.229 89.716C194.557 89.804 194.925 89.848 195.333 89.848C196.557 89.848 197.169 89.196 197.169 87.892V87.088C196.921 87.352 196.629 87.572 196.293 87.748C195.957 87.916 195.565 88 195.117 88C194.781 88 194.441 87.936 194.097 87.808C193.761 87.68 193.449 87.488 193.161 87.232C192.881 86.976 192.653 86.652 192.477 86.26C192.301 85.868 192.213 85.408 192.213 84.88C192.213 84.352 192.301 83.892 192.477 83.5C192.653 83.108 192.881 82.784 193.161 82.528C193.449 82.272 193.761 82.08 194.097 81.952C194.441 81.824 194.781 81.76 195.117 81.76C195.565 81.76 195.957 81.848 196.293 82.024C196.629 82.192 196.921 82.408 197.169 82.672V82.372C197.169 82.22 197.221 82.092 197.325 81.988C197.429 81.876 197.557 81.82 197.709 81.82C197.861 81.82 197.989 81.876 198.093 81.988C198.205 82.092 198.261 82.22 198.261 82.372V87.736C198.261 88.744 198.017 89.52 197.529 90.064C197.041 90.608 196.345 90.88 195.441 90.88ZM195.345 87.004C195.761 87.004 196.113 86.912 196.401 86.728C196.689 86.544 196.945 86.34 197.169 86.116V83.644C196.945 83.412 196.689 83.208 196.401 83.032C196.113 82.848 195.761 82.756 195.345 82.756C194.969 82.756 194.625 82.832 194.313 82.984C194.001 83.136 193.753 83.372 193.569 83.692C193.393 84.004 193.305 84.4 193.305 84.88C193.305 85.36 193.393 85.76 193.569 86.08C193.753 86.392 194.001 86.624 194.313 86.776C194.625 86.928 194.969 87.004 195.345 87.004ZM201.715 88.12C201.371 88.12 201.047 88.048 200.743 87.904C200.447 87.76 200.207 87.556 200.023 87.292C199.847 87.02 199.759 86.696 199.759 86.32C199.759 85.752 199.983 85.288 200.431 84.928C200.887 84.56 201.583 84.376 202.519 84.376H203.971V84.28C203.971 83.744 203.839 83.364 203.575 83.14C203.311 82.908 202.907 82.792 202.363 82.792C202.027 82.792 201.731 82.824 201.475 82.888C201.227 82.944 200.991 83.008 200.767 83.08C200.703 83.096 200.651 83.104 200.611 83.104C200.491 83.104 200.387 83.06 200.299 82.972C200.211 82.884 200.167 82.776 200.167 82.648C200.167 82.432 200.271 82.28 200.479 82.192C200.759 82.072 201.067 81.972 201.403 81.892C201.747 81.804 202.131 81.76 202.555 81.76C203.139 81.76 203.615 81.876 203.983 82.108C204.351 82.34 204.623 82.636 204.799 82.996C204.975 83.356 205.063 83.732 205.063 84.124V87.52C205.063 87.672 205.007 87.8 204.895 87.904C204.791 88.008 204.663 88.06 204.511 88.06C204.359 88.06 204.231 88.008 204.127 87.904C204.023 87.8 203.971 87.672 203.971 87.52V87.208C203.755 87.432 203.467 87.64 203.107 87.832C202.747 88.024 202.283 88.12 201.715 88.12ZM202.123 87.16C202.499 87.16 202.851 87.068 203.179 86.884C203.507 86.7 203.771 86.492 203.971 86.26V85.252H202.663C202.103 85.252 201.659 85.324 201.331 85.468C201.011 85.612 200.851 85.856 200.851 86.2C200.851 86.456 200.939 86.68 201.115 86.872C201.299 87.064 201.635 87.16 202.123 87.16ZM207.433 88.06C207.281 88.06 207.153 88.008 207.049 87.904C206.945 87.8 206.893 87.672 206.893 87.52V82.372C206.893 82.22 206.945 82.092 207.049 81.988C207.153 81.876 207.281 81.82 207.433 81.82C207.585 81.82 207.713 81.876 207.817 81.988C207.929 82.092 207.985 82.22 207.985 82.372V82.864C208.097 82.704 208.237 82.54 208.405 82.372C208.581 82.204 208.801 82.06 209.065 81.94C209.329 81.82 209.649 81.76 210.025 81.76C210.505 81.76 210.897 81.888 211.201 82.144C211.513 82.4 211.733 82.684 211.861 82.996C211.957 82.844 212.093 82.672 212.269 82.48C212.445 82.288 212.677 82.12 212.965 81.976C213.261 81.832 213.629 81.76 214.069 81.76C214.541 81.76 214.925 81.88 215.221 82.12C215.517 82.352 215.733 82.644 215.869 82.996C216.005 83.348 216.073 83.704 216.073 84.064V87.52C216.073 87.672 216.017 87.8 215.905 87.904C215.801 88.008 215.673 88.06 215.521 88.06C215.369 88.06 215.241 88.008 215.137 87.904C215.033 87.8 214.981 87.672 214.981 87.52V84.28C214.981 83.776 214.889 83.4 214.705 83.152C214.529 82.896 214.213 82.768 213.757 82.768C213.453 82.768 213.193 82.828 212.977 82.948C212.761 83.06 212.577 83.204 212.425 83.38C212.273 83.556 212.141 83.736 212.029 83.92V87.52C212.029 87.672 211.973 87.8 211.861 87.904C211.757 88.008 211.629 88.06 211.477 88.06C211.325 88.06 211.197 88.008 211.093 87.904C210.989 87.8 210.937 87.672 210.937 87.52V84.28C210.937 83.776 210.845 83.4 210.661 83.152C210.485 82.896 210.169 82.768 209.713 82.768C209.409 82.768 209.149 82.828 208.933 82.948C208.717 83.06 208.533 83.204 208.381 83.38C208.229 83.556 208.097 83.736 207.985 83.92V87.52C207.985 87.672 207.929 87.8 207.817 87.904C207.713 88.008 207.585 88.06 207.433 88.06ZM220.609 88.12C219.993 88.12 219.453 87.988 218.989 87.724C218.525 87.452 218.165 87.08 217.909 86.608C217.661 86.128 217.537 85.572 217.537 84.94C217.537 84.308 217.661 83.756 217.909 83.284C218.165 82.804 218.525 82.432 218.989 82.168C219.453 81.896 219.993 81.76 220.609 81.76C221.225 81.76 221.761 81.896 222.217 82.168C222.681 82.432 223.041 82.804 223.297 83.284C223.553 83.756 223.681 84.308 223.681 84.94C223.681 85.572 223.553 86.128 223.297 86.608C223.041 87.08 222.681 87.452 222.217 87.724C221.761 87.988 221.225 88.12 220.609 88.12ZM220.609 87.124C220.913 87.124 221.217 87.052 221.521 86.908C221.825 86.764 222.077 86.532 222.277 86.212C222.485 85.884 222.589 85.456 222.589 84.928C222.589 84.4 222.485 83.976 222.277 83.656C222.077 83.336 221.825 83.108 221.521 82.972C221.217 82.828 220.913 82.756 220.609 82.756C220.305 82.756 219.997 82.828 219.685 82.972C219.381 83.108 219.129 83.336 218.929 83.656C218.729 83.976 218.629 84.4 218.629 84.928C218.629 85.456 218.729 85.884 218.929 86.212C219.129 86.532 219.381 86.764 219.685 86.908C219.997 87.052 220.305 87.124 220.609 87.124ZM227.275 88.12C227.131 88.12 226.959 88.104 226.759 88.072C226.567 88.048 226.375 87.988 226.183 87.892C225.999 87.788 225.843 87.628 225.715 87.412C225.587 87.196 225.523 86.904 225.523 86.536V82.816H224.671C224.519 82.816 224.443 82.74 224.443 82.588C224.443 82.508 224.479 82.44 224.551 82.384L226.183 80.788C226.199 80.772 226.223 80.752 226.255 80.728C226.295 80.696 226.339 80.68 226.387 80.68C226.451 80.68 226.503 80.704 226.543 80.752C226.591 80.8 226.615 80.856 226.615 80.92V81.88H227.971C228.107 81.88 228.219 81.924 228.307 82.012C228.395 82.1 228.439 82.212 228.439 82.348C228.439 82.476 228.395 82.588 228.307 82.684C228.219 82.772 228.107 82.816 227.971 82.816H226.615V86.44C226.615 86.672 226.659 86.84 226.747 86.944C226.835 87.048 226.939 87.112 227.059 87.136C227.187 87.152 227.299 87.16 227.395 87.16C227.587 87.16 227.727 87.144 227.815 87.112C227.911 87.072 228.011 87.052 228.115 87.052C228.227 87.052 228.327 87.092 228.415 87.172C228.503 87.252 228.547 87.356 228.547 87.484C228.547 87.668 228.455 87.808 228.271 87.904C228.127 87.968 227.971 88.02 227.803 88.06C227.643 88.1 227.467 88.12 227.275 88.12ZM230.489 85.684C230.361 85.684 230.261 85.652 230.189 85.588C230.125 85.524 230.089 85.44 230.081 85.336L229.865 81.376V80.188C229.865 80.012 229.925 79.864 230.045 79.744C230.165 79.624 230.313 79.564 230.489 79.564C230.665 79.564 230.809 79.624 230.921 79.744C231.041 79.864 231.101 80.012 231.101 80.188V81.376L230.885 85.336C230.877 85.44 230.841 85.524 230.777 85.588C230.713 85.652 230.617 85.684 230.489 85.684ZM230.489 88.048C230.297 88.048 230.129 87.98 229.985 87.844C229.849 87.7 229.781 87.528 229.781 87.328C229.781 87.136 229.849 86.972 229.985 86.836C230.129 86.692 230.297 86.62 230.489 86.62C230.689 86.62 230.857 86.692 230.993 86.836C231.137 86.972 231.209 87.136 231.209 87.328C231.209 87.528 231.137 87.7 230.993 87.844C230.857 87.98 230.689 88.048 230.489 88.048Z" fill="#333333"/>
<path d="M97.3003 88.12C96.8203 88.12 96.3563 87.996 95.9083 87.748C95.4683 87.5 95.1043 87.14 94.8163 86.668C94.5363 86.196 94.3963 85.62 94.3963 84.94C94.3963 84.26 94.5363 83.684 94.8163 83.212C95.1043 82.74 95.4683 82.38 95.9083 82.132C96.3563 81.884 96.8203 81.76 97.3003 81.76C97.7243 81.76 98.1043 81.84 98.4403 82C98.7763 82.16 99.0803 82.384 99.3523 82.672V79.732C99.3523 79.572 99.4043 79.44 99.5083 79.336C99.6203 79.232 99.7523 79.18 99.9043 79.18C100.056 79.18 100.184 79.232 100.288 79.336C100.392 79.44 100.444 79.572 100.444 79.732V87.52C100.444 87.672 100.392 87.8 100.288 87.904C100.184 88.008 100.056 88.06 99.9043 88.06C99.7523 88.06 99.6203 88.008 99.5083 87.904C99.4043 87.8 99.3523 87.672 99.3523 87.52V87.208C99.0803 87.496 98.7763 87.72 98.4403 87.88C98.1043 88.04 97.7243 88.12 97.3003 88.12ZM97.4563 87.1C97.8483 87.1 98.2043 87.016 98.5243 86.848C98.8443 86.672 99.1203 86.456 99.3523 86.2V83.68C99.1203 83.424 98.8443 83.212 98.5243 83.044C98.2043 82.868 97.8483 82.78 97.4563 82.78C96.8883 82.78 96.4163 82.964 96.0403 83.332C95.6723 83.692 95.4883 84.228 95.4883 84.94C95.4883 85.644 95.6723 86.18 96.0403 86.548C96.4163 86.916 96.8883 87.1 97.4563 87.1ZM103.899 88.12C103.555 88.12 103.231 88.048 102.927 87.904C102.631 87.76 102.391 87.556 102.207 87.292C102.031 87.02 101.943 86.696 101.943 86.32C101.943 85.752 102.167 85.288 102.615 84.928C103.071 84.56 103.767 84.376 104.703 84.376H106.155V84.28C106.155 83.744 106.023 83.364 105.759 83.14C105.495 82.908 105.091 82.792 104.547 82.792C104.211 82.792 103.915 82.824 103.659 82.888C103.411 82.944 103.175 83.008 102.951 83.08C102.887 83.096 102.835 83.104 102.795 83.104C102.675 83.104 102.571 83.06 102.483 82.972C102.395 82.884 102.351 82.776 102.351 82.648C102.351 82.432 102.455 82.28 102.663 82.192C102.943 82.072 103.251 81.972 103.587 81.892C103.931 81.804 104.315 81.76 104.739 81.76C105.323 81.76 105.799 81.876 106.167 82.108C106.535 82.34 106.807 82.636 106.983 82.996C107.159 83.356 107.247 83.732 107.247 84.124V87.52C107.247 87.672 107.191 87.8 107.079 87.904C106.975 88.008 106.847 88.06 106.695 88.06C106.543 88.06 106.415 88.008 106.311 87.904C106.207 87.8 106.155 87.672 106.155 87.52V87.208C105.939 87.432 105.651 87.64 105.291 87.832C104.931 88.024 104.467 88.12 103.899 88.12ZM104.307 87.16C104.683 87.16 105.035 87.068 105.363 86.884C105.691 86.7 105.955 86.492 106.155 86.26V85.252H104.847C104.287 85.252 103.843 85.324 103.515 85.468C103.195 85.612 103.035 85.856 103.035 86.2C103.035 86.456 103.123 86.68 103.299 86.872C103.483 87.064 103.819 87.16 104.307 87.16ZM109.617 88.06C109.465 88.06 109.337 88.008 109.233 87.904C109.129 87.8 109.077 87.672 109.077 87.52V79.732C109.077 79.572 109.129 79.44 109.233 79.336C109.337 79.232 109.465 79.18 109.617 79.18C109.777 79.18 109.909 79.232 110.013 79.336C110.117 79.44 110.169 79.572 110.169 79.732V87.52C110.169 87.672 110.117 87.8 110.013 87.904C109.909 88.008 109.777 88.06 109.617 88.06ZM112.581 80.632C112.413 80.632 112.269 80.572 112.149 80.452C112.029 80.332 111.969 80.188 111.969 80.02V79.972C111.969 79.804 112.029 79.66 112.149 79.54C112.269 79.42 112.413 79.36 112.581 79.36H112.653C112.821 79.36 112.965 79.42 113.085 79.54C113.205 79.66 113.265 79.804 113.265 79.972V80.02C113.265 80.188 113.205 80.332 113.085 80.452C112.965 80.572 112.821 80.632 112.653 80.632H112.581ZM112.605 88.06C112.453 88.06 112.325 88.008 112.221 87.904C112.117 87.8 112.065 87.672 112.065 87.52V82.372C112.065 82.212 112.117 82.08 112.221 81.976C112.325 81.872 112.453 81.82 112.605 81.82C112.765 81.82 112.897 81.872 113.001 81.976C113.105 82.08 113.157 82.212 113.157 82.372V87.52C113.157 87.672 113.105 87.8 113.001 87.904C112.897 88.008 112.765 88.06 112.605 88.06Z" fill="#FF4242"/>
<path d="M17.5531 38.5346C24.6943 38.5346 30.5272 44.358 30.5272 51.4876C30.5272 58.6172 24.6943 64.4406 17.5531 64.4406H6.43251V75.4105C6.43251 77.1521 4.96066 76.6861 3.21625 76.6861C1.47185 76.6861 0 75.271 0 73.5295V41.7456C0 40.004 1.47185 38.5346 3.21625 38.5346H17.5531ZM17.5531 58.0729C21.2055 58.0729 24.1492 55.134 24.1492 51.4876C24.1492 47.8412 21.2055 44.9022 17.5531 44.9022H6.43251V58.0729H17.5531Z" fill="#96D2EE"/>
<path d="M43.4799 50.7801C49.8034 50.7801 55.0366 55.9504 55.0366 62.2636V74.9853C55.0366 76.7813 53.5648 76.6861 51.8204 76.6861C50.0215 76.6861 48.5496 75.271 48.5496 73.475V62.2636C48.5496 59.5424 46.2601 57.2021 43.4799 57.2021C40.6998 57.2021 38.4102 59.5424 38.4102 62.2636L38.6837 75.4105C38.6837 77.2065 36.9929 76.6861 35.194 76.6861C33.4496 76.6861 31.9777 75.271 31.9777 73.475V40.1197C31.9777 38.3237 33.4496 38.4257 35.194 38.4257C36.9929 38.4257 38.4102 39.8408 38.4102 41.6368V51.9774C39.9366 51.2155 41.681 50.7801 43.4799 50.7801Z" fill="#96D2EE"/>
<path d="M84.1554 63.8963V64.0596C84.1554 64.1685 84.1554 64.2229 84.1554 64.2773V74.9853C84.1554 76.6725 82.8471 76.7949 81.2662 76.7949C79.6854 76.7949 78.4316 75.5432 78.268 73.9649C76.3056 75.652 73.907 76.8493 71.1814 76.8493C63.9857 76.8493 58.2073 71.0804 58.2073 63.8963C58.2073 56.8212 63.9857 50.9433 71.1814 50.9433C78.3225 50.9433 84.1554 56.8212 84.1554 63.8963ZM71.1814 70.4817C74.8337 70.4817 77.7774 67.4883 77.7774 63.8963C77.7774 60.3043 74.8337 57.311 71.1814 57.311C67.5835 57.311 64.5853 60.3043 64.5853 63.8963C64.5853 67.4883 67.5835 70.4817 71.1814 70.4817Z" fill="#96D2EE"/>
<path d="M91.4635 76.6861C89.7191 76.6861 88.2473 75.271 88.2473 73.5295V62.1003C88.2473 55.8415 93.3715 50.6712 99.695 50.6712C104.601 50.6712 108.908 53.7734 110.543 58.4539C111.088 60.0866 110.216 61.9371 108.526 62.4813C106.836 63.08 105.037 62.1548 104.438 60.4676C103.729 58.4539 101.875 57.0933 99.695 57.0933C96.9148 57.0933 94.6798 59.3247 94.6798 62.1003V74.9853C94.6798 76.7269 93.2079 76.6861 91.4635 76.6861Z" fill="#96D2EE"/>
<path d="M139.795 50.8345C145.737 50.8345 150.534 55.5694 150.534 61.5017V74.9853C150.534 76.7813 149.117 76.6861 147.318 76.6861C145.519 76.6861 144.047 75.271 144.047 73.475V61.5017C144.047 59.107 142.139 57.2021 139.795 57.2021C137.451 57.2021 135.543 59.107 135.543 61.5017V74.9853C135.543 76.7813 134.071 76.6861 132.327 76.6861C130.528 76.6861 129.111 76.7813 129.111 74.9853V61.5017C129.111 59.107 127.148 57.2021 124.859 57.2021C122.515 57.2021 120.607 59.107 120.607 61.5017V74.9853C120.607 76.7813 119.135 76.6861 117.336 76.6861C115.537 76.6861 114.12 75.271 114.12 73.475V61.5017C114.12 55.5694 118.917 50.8345 124.859 50.8345C127.748 50.8345 130.419 51.9774 132.327 53.8823C134.235 51.9774 136.906 50.8345 139.795 50.8345Z" fill="#96D2EE"/>
<path d="M179.712 63.8963V64.0596C179.712 64.1685 179.712 64.2229 179.712 64.2773V74.9853C179.712 76.6725 178.404 76.7949 176.823 76.7949C175.242 76.7949 173.989 75.5432 173.825 73.9649C171.863 75.652 169.464 76.8493 166.738 76.8493C159.543 76.8493 153.764 71.0804 153.764 63.8963C153.764 56.8212 159.543 50.9433 166.738 50.9433C173.88 50.9433 179.712 56.8212 179.712 63.8963ZM166.738 70.4817C170.391 70.4817 173.335 67.4883 173.335 63.8963C173.335 60.3043 170.391 57.311 166.738 57.311C163.141 57.311 160.142 60.3043 160.142 63.8963C160.142 67.4883 163.141 70.4817 166.738 70.4817Z" fill="#96D2EE"/>
<path d="M198.246 38.589C208.822 38.589 217.38 47.1336 217.38 57.5831C217.38 68.1414 208.822 76.6861 198.246 76.6861H188.652C187.071 76.6316 185.654 75.3255 185.49 73.856C185.49 73.8016 185.436 73.6383 185.436 73.475V41.7456C185.436 40.004 186.853 38.589 188.652 38.589H198.246ZM198.246 70.3728C205.279 70.3728 211.002 64.6583 211.002 57.5831C211.002 50.5624 205.279 44.9022 198.246 44.9022H191.814V70.3184L198.246 70.3728Z" fill="#FF4242"/>
<path d="M246.523 63.8963V64.0596C246.523 64.1685 246.523 64.2229 246.523 64.2773V74.9853C246.523 76.6725 245.214 76.7949 243.633 76.7949C242.053 76.7949 240.799 75.5432 240.635 73.9649C238.673 75.652 236.274 76.8493 233.549 76.8493C226.353 76.8493 220.575 71.0804 220.575 63.8963C220.575 56.8212 226.353 50.9433 233.549 50.9433C240.69 50.9433 246.523 56.8212 246.523 63.8963ZM233.549 70.4817C237.201 70.4817 240.145 67.4883 240.145 63.8963C240.145 60.3043 237.201 57.311 233.549 57.311C229.951 57.311 226.953 60.3043 226.953 63.8963C226.953 67.4883 229.951 70.4817 233.549 70.4817Z" fill="#FF4242"/>
<path d="M261.899 76.6861C254.812 76.6861 250.233 71.8423 250.233 64.4406V41.8001C250.233 40.004 251.65 38.589 253.449 38.589C255.194 38.589 256.665 40.004 256.665 41.8001V64.4406C256.665 68.849 258.9 70.264 261.899 70.264C263.698 70.264 265.252 73.1893 265.252 74.9853C265.252 76.7813 263.698 76.6861 261.899 76.6861Z" fill="#FF4242"/>
<path d="M271.457 48.1133C269.494 48.1133 267.913 46.4261 267.913 44.5213C267.913 42.5076 269.494 40.9837 271.457 40.9837C273.419 40.9837 275 42.5076 275 44.5213C275 46.4261 273.419 48.1133 271.457 48.1133ZM271.402 76.6861C269.658 76.6861 268.24 75.271 268.24 73.475V54.0455C268.24 52.304 269.658 50.8345 271.402 50.8345C273.201 50.8345 274.673 52.304 274.673 54.0455V74.9853C274.673 76.7813 273.201 76.6861 271.402 76.6861Z" fill="#FF4242"/>
<path d="M115.72 7.72714C119.737 3.94115 126.079 4.15816 129.865 8.17444C133.68 12.2214 133.493 18.5347 129.477 22.3207C128.005 23.7079 127.329 24.4147 125.442 24.7464L131.835 30.7136C134.077 33.0675 131.933 34.08 130.983 34.9759C130.094 35.814 129.777 36.3832 128.852 35.4021L115.416 22.0845C115.358 22.0231 115.329 21.9925 115.271 21.9312C111.485 17.9149 111.704 11.5131 115.72 7.72714ZM126.096 18.7336C128.119 16.8262 128.216 13.5504 126.308 11.5269C124.372 9.47279 121.125 9.40676 119.102 11.3142C117.047 13.2505 116.922 16.4957 118.858 18.5498C120.766 20.5733 124.041 20.67 126.096 18.7336Z" fill="#96D2EE"/>
<path d="M152.122 11.4462C152.155 11.4812 152.006 11.8491 151.791 12.2663C151.419 12.988 151.4 13.0048 151.395 12.6084C151.391 12.3246 151.469 12.1484 151.638 12.0577C151.777 11.9839 151.927 11.8025 151.974 11.6548C152.022 11.5058 152.088 11.4125 152.122 11.4462Z" fill="#FF4242"/>
<path d="M152.121 11.4461C152.114 11.4396 152.105 11.4383 152.094 11.4422C152.365 10.9292 152.759 10.0598 153.339 8.70593C153.905 7.38572 154.472 6.19377 154.595 6.05644C155.048 5.55504 155.791 5.28297 156.534 5.34516C157.707 5.44233 158.514 6.28317 158.514 7.40904C158.514 7.75626 158.459 8.14105 158.392 8.26413C158.27 8.49216 157.514 10.534 156.894 12.3116C156.708 12.8454 156.503 13.3999 156.438 13.5424C156.372 13.6849 155.728 15.4625 155.007 17.494C152.263 25.2092 152.075 25.6653 150.926 27.413C149.928 28.9289 148.754 30.1325 146.404 32.0487C141.426 36.1091 137.826 39.0527 137.524 39.3079C136.535 40.1462 135.873 40.6644 135.623 40.7953C135.467 40.8769 135.292 40.9442 135.235 40.943C135.091 40.943 134.373 40.5633 134.289 40.4441C134.253 40.391 133.289 39.4841 132.148 38.4282C131.835 37.5331 132.261 38.9 132.261 38.3856C132.261 37.9049 132.041 38.2523 135.235 35.402L138.229 32.8447L133.859 29.4186C132.751 28.2215 132.608 27.0619 133.447 26.0656C133.859 25.5759 134.798 25.1367 135.419 25.1432C136.117 25.1509 136.599 25.4554 137.852 26.6733C139.513 28.2889 140.887 28.7993 142.803 28.5169C144.563 28.2565 146.237 26.9985 147.072 25.3077C147.49 24.4643 147.56 24.1896 147.604 23.2153C147.646 22.2993 147.605 21.9599 147.38 21.3626C146.993 20.3378 146.444 19.6343 145.623 19.1083C143.519 17.7621 140.686 18.0951 138.88 19.9012C138.11 20.6721 138.892 19.3085 138.532 20.4629C138.221 21.4631 137.863 21.9425 137.183 22.2716C135.99 22.8494 134.861 22.4478 134.232 21.2196C133.894 20.5601 133.921 20.1183 134.382 18.7398C135.332 15.9011 135.952 15.8084 138.532 14.5206C139.85 13.8637 140.904 13.6111 142.344 13.6085C142.963 13.6085 143.503 13.5541 143.543 13.488C143.618 13.3675 142.886 12.6264 141.786 11.7091C140.065 10.2697 137.902 8.20972 137.726 7.83788C137.229 6.78845 137.7 5.37496 138.725 4.84506C139.224 4.58594 140.355 4.57946 140.829 4.8321C141.043 4.94611 141.894 5.64055 142.719 6.37515C146.176 9.4522 146.984 10.1246 147.032 9.95748C147.059 9.8629 147.267 8.58933 147.495 7.12919C147.723 5.66906 147.961 4.18171 148.023 3.82542C148.087 3.46913 148.175 2.85113 148.22 2.45079C148.429 0.631778 149.906 -0.399517 151.457 0.192571C152.649 0.647325 152.918 1.43634 152.623 3.60906C152.228 6.52674 152.156 7.08255 151.9 9.26693C151.759 10.4783 151.614 11.6003 151.577 11.7609C151.542 11.9216 151.567 12.0525 151.632 12.0525C151.638 12.0525 151.645 12.0512 151.651 12.0499C151.647 12.0525 151.643 12.055 151.638 12.0576C151.468 12.1483 151.391 12.3245 151.395 12.6083C151.4 13.0047 151.419 12.9879 151.791 12.2662C152.006 11.849 152.155 11.4811 152.121 11.4461ZM151.97 11.6677C151.936 11.7609 151.864 11.8659 151.781 11.9488C151.834 11.8853 151.896 11.7933 151.97 11.6677Z" fill="#FF4242"/>
<path d="M152.121 11.4461C152.114 11.4396 152.105 11.4383 152.094 11.4422C152.365 10.9292 152.759 10.0598 153.339 8.70593C153.905 7.38572 154.472 6.19377 154.595 6.05644C155.048 5.55504 155.791 5.28297 156.534 5.34516C157.707 5.44233 158.514 6.28317 158.514 7.40904C158.514 7.75626 158.459 8.14105 158.392 8.26413C158.27 8.49216 157.514 10.534 156.894 12.3116C156.708 12.8454 156.503 13.3999 156.438 13.5424C156.372 13.6849 155.728 15.4625 155.007 17.494C152.263 25.2092 152.075 25.6653 150.926 27.413C149.928 28.9289 148.754 30.1325 146.404 32.0487C141.426 36.1091 137.826 39.0527 137.524 39.3079C136.535 40.1462 135.873 40.6644 135.623 40.7953C135.467 40.8769 135.292 40.9442 135.235 40.943C135.091 40.943 134.373 40.5633 134.289 40.4441C134.253 40.391 133.289 39.4841 132.148 38.4282C131.835 37.5331 132.261 38.9 132.261 38.3856C132.261 37.9049 132.041 38.2523 135.235 35.402L138.229 32.8447L133.859 29.4186C132.751 28.2215 132.608 27.0619 133.447 26.0656C133.859 25.5759 134.798 25.1367 135.419 25.1432C136.117 25.1509 136.599 25.4554 137.852 26.6733C139.513 28.2889 140.887 28.7993 142.803 28.5169C144.563 28.2565 146.237 26.9985 147.072 25.3077C147.49 24.4643 147.56 24.1896 147.604 23.2153C147.646 22.2993 147.605 21.9599 147.38 21.3626C146.993 20.3378 146.444 19.6343 145.623 19.1083C143.519 17.7621 140.686 18.0951 138.88 19.9012C138.11 20.6721 138.892 19.3085 138.532 20.4629C138.221 21.4631 137.863 21.9425 137.183 22.2716C135.99 22.8494 134.861 22.4478 134.232 21.2196C133.894 20.5601 133.921 20.1183 134.382 18.7398C135.332 15.9011 135.952 15.8084 138.532 14.5206C139.85 13.8637 140.904 13.6111 142.344 13.6085C142.963 13.6085 143.503 13.5541 143.543 13.488C143.618 13.3675 142.886 12.6264 141.786 11.7091C140.065 10.2697 137.902 8.20972 137.726 7.83788C137.229 6.78845 137.7 5.37496 138.725 4.84506C139.224 4.58594 140.355 4.57946 140.829 4.8321C141.043 4.94611 141.894 5.64055 142.719 6.37515C146.176 9.4522 146.984 10.1246 147.032 9.95748C147.059 9.8629 147.267 8.58933 147.495 7.12919C147.723 5.66906 147.961 4.18171 148.023 3.82542C148.087 3.46913 148.175 2.85113 148.22 2.45079C148.429 0.631778 149.906 -0.399517 151.457 0.192571C152.649 0.647325 152.918 1.43634 152.623 3.60906C152.228 6.52674 152.156 7.08255 151.9 9.26693C151.759 10.4783 151.614 11.6003 151.577 11.7609C151.542 11.9216 151.567 12.0525 151.632 12.0525C151.638 12.0525 151.645 12.0512 151.651 12.0499C151.647 12.0525 151.643 12.055 151.638 12.0576C151.468 12.1483 151.391 12.3245 151.395 12.6083C151.4 13.0047 151.419 12.9879 151.791 12.2662C152.006 11.849 152.155 11.4811 152.121 11.4461ZM151.97 11.6677C151.936 11.7609 151.864 11.8659 151.781 11.9488C151.834 11.8853 151.896 11.7933 151.97 11.6677Z" fill="#FF4242"/>
<path d="M135.949 40.5381C136.193 40.4079 136.837 39.8927 137.798 39.0592C138.047 38.8447 140.586 36.7216 144.289 33.6327C142.299 34.7717 140.781 34.3267 138.484 32.6327L134.651 35.5993C132.264 37.2945 131.849 37.7183 131.849 37.7183C132.264 38.1421 132.569 38.1845 132.569 38.1845C133.678 39.2344 134.616 40.1361 134.651 40.1889C134.733 40.3075 135.431 40.6849 135.571 40.6849C135.627 40.6862 135.797 40.6192 135.949 40.5381Z" fill="#E53030"/>
<g filter="url(#filter0_i_296_1921)">
<rect x="132.076" y="21.0647" width="8.1815" height="3.59257" rx="1.79629" transform="rotate(14.7951 132.076 21.0647)" fill="white"/>
</g>
<mask id="mask0_296_1921" style="mask-type:alpha" maskUnits="userSpaceOnUse" x="134" y="21" width="9" height="10">
<rect x="136.379" y="21.4286" width="6.78082" height="7.53425" transform="rotate(14.7951 136.379 21.4286)" fill="#D9D9D9"/>
</mask>
<g mask="url(#mask0_296_1921)">
<g filter="url(#filter1_i_296_1921)">
<rect x="132.073" y="21.069" width="8.1815" height="3.59257" rx="1.79629" transform="rotate(14.7223 132.073 21.069)" fill="#96D2EE"/>
</g>
</g>
<defs>
<filter id="filter0_i_296_1921" x="131.557" y="21.4634" width="8.03027" height="4.76538" filterUnits="userSpaceOnUse" color-interpolation-filters="sRGB">
<feFlood flood-opacity="0" result="BackgroundImageFix"/>
<feBlend mode="normal" in="SourceGraphic" in2="BackgroundImageFix" result="shape"/>
<feColorMatrix in="SourceAlpha" type="matrix" values="0 0 0 0 0 0 0 0 0 0 0 0 0 0 0 0 0 0 127 0" result="hardAlpha"/>
<feMorphology radius="4" operator="dilate" in="SourceAlpha" result="effect1_innerShadow_296_1921"/>
<feOffset dy="5"/>
<feComposite in2="hardAlpha" operator="arithmetic" k2="-1" k3="1"/>
<feColorMatrix type="matrix" values="0 0 0 0 0 0 0 0 0 0 0 0 0 0 0 0 0 0 0.25 0"/>
<feBlend mode="normal" in2="shape" result="effect1_innerShadow_296_1921"/>
</filter>
<filter id="filter1_i_296_1921" x="131.557" y="21.4661" width="8.03174" height="4.75964" filterUnits="userSpaceOnUse" color-interpolation-filters="sRGB">
<feFlood flood-opacity="0" result="BackgroundImageFix"/>
<feBlend mode="normal" in="SourceGraphic" in2="BackgroundImageFix" result="shape"/>
<feColorMatrix in="SourceAlpha" type="matrix" values="0 0 0 0 0 0 0 0 0 0 0 0 0 0 0 0 0 0 127 0" result="hardAlpha"/>
<feMorphology radius="4" operator="dilate" in="SourceAlpha" result="effect1_innerShadow_296_1921"/>
<feOffset dy="5"/>
<feComposite in2="hardAlpha" operator="arithmetic" k2="-1" k3="1"/>
<feColorMatrix type="matrix" values="0 0 0 0 0 0 0 0 0 0 0 0 0 0 0 0 0 0 0.25 0"/>
<feBlend mode="normal" in2="shape" result="effect1_innerShadow_296_1921"/>
</filter>
</defs>
</svg>
