<svg width="20" height="22" viewBox="0 0 20 22" fill="none" xmlns="http://www.w3.org/2000/svg">
<mask id="mask0_1783_9401" style="mask-type:alpha" maskUnits="userSpaceOnUse" x="0" y="0" width="20" height="22">
<rect width="19.9192" height="22" fill="#D9D9D9"/>
</mask>
<g mask="url(#mask0_1783_9401)">
<path d="M4.15016 20.1666C3.69368 20.1666 3.30291 19.9871 2.97784 19.628C2.65277 19.269 2.49023 18.8374 2.49023 18.3333V5.49992C2.49023 4.99575 2.65277 4.56415 2.97784 4.20513C3.30291 3.8461 3.69368 3.66659 4.15016 3.66659H4.98013V2.74992C4.98013 2.4902 5.05967 2.27249 5.21874 2.09679C5.37782 1.9211 5.57494 1.83325 5.81009 1.83325C6.04525 1.83325 6.24237 1.9211 6.40144 2.09679C6.56052 2.27249 6.64006 2.4902 6.64006 2.74992V3.66659H13.2798V2.74992C13.2798 2.4902 13.3593 2.27249 13.5184 2.09679C13.6775 1.9211 13.8746 1.83325 14.1097 1.83325C14.3449 1.83325 14.542 1.9211 14.7011 2.09679C14.8602 2.27249 14.9397 2.4902 14.9397 2.74992V3.66659H15.7697C16.2262 3.66659 16.6169 3.8461 16.942 4.20513C17.2671 4.56415 17.4296 4.99575 17.4296 5.49992V18.3333C17.4296 18.8374 17.2671 19.269 16.942 19.628C16.6169 19.9871 16.2262 20.1666 15.7697 20.1666H4.15016ZM4.15016 18.3333H15.7697V9.16659H4.15016V18.3333ZM4.15016 7.33325H15.7697V5.49992H4.15016V7.33325ZM9.95992 12.8333C9.72476 12.8333 9.52764 12.7454 9.36857 12.5697C9.20949 12.394 9.12995 12.1763 9.12995 11.9166C9.12995 11.6569 9.20949 11.4392 9.36857 11.2635C9.52764 11.0878 9.72476 10.9999 9.95992 10.9999C10.1951 10.9999 10.3922 11.0878 10.5513 11.2635C10.7103 11.4392 10.7899 11.6569 10.7899 11.9166C10.7899 12.1763 10.7103 12.394 10.5513 12.5697C10.3922 12.7454 10.1951 12.8333 9.95992 12.8333ZM6.04871 12.5697C5.88963 12.394 5.81009 12.1763 5.81009 11.9166C5.81009 11.6569 5.88963 11.4392 6.04871 11.2635C6.20778 11.0878 6.4049 10.9999 6.64006 10.9999C6.87521 10.9999 7.07233 11.0878 7.23141 11.2635C7.39048 11.4392 7.47002 11.6569 7.47002 11.9166C7.47002 12.1763 7.39048 12.394 7.23141 12.5697C7.07233 12.7454 6.87521 12.8333 6.64006 12.8333C6.4049 12.8333 6.20778 12.7454 6.04871 12.5697ZM13.2798 12.8333C13.0446 12.8333 12.8475 12.7454 12.6884 12.5697C12.5293 12.394 12.4498 12.1763 12.4498 11.9166C12.4498 11.6569 12.5293 11.4392 12.6884 11.2635C12.8475 11.0878 13.0446 10.9999 13.2798 10.9999C13.5149 10.9999 13.712 11.0878 13.8711 11.2635C14.0302 11.4392 14.1097 11.6569 14.1097 11.9166C14.1097 12.1763 14.0302 12.394 13.8711 12.5697C13.712 12.7454 13.5149 12.8333 13.2798 12.8333ZM9.95992 16.4999C9.72476 16.4999 9.52764 16.4121 9.36857 16.2364C9.20949 16.0607 9.12995 15.843 9.12995 15.5833C9.12995 15.3235 9.20949 15.1058 9.36857 14.9301C9.52764 14.7544 9.72476 14.6666 9.95992 14.6666C10.1951 14.6666 10.3922 14.7544 10.5513 14.9301C10.7103 15.1058 10.7899 15.3235 10.7899 15.5833C10.7899 15.843 10.7103 16.0607 10.5513 16.2364C10.3922 16.4121 10.1951 16.4999 9.95992 16.4999ZM6.04871 16.2364C5.88963 16.0607 5.81009 15.843 5.81009 15.5833C5.81009 15.3235 5.88963 15.1058 6.04871 14.9301C6.20778 14.7544 6.4049 14.6666 6.64006 14.6666C6.87521 14.6666 7.07233 14.7544 7.23141 14.9301C7.39048 15.1058 7.47002 15.3235 7.47002 15.5833C7.47002 15.843 7.39048 16.0607 7.23141 16.2364C7.07233 16.4121 6.87521 16.4999 6.64006 16.4999C6.4049 16.4999 6.20778 16.4121 6.04871 16.2364ZM13.2798 16.4999C13.0446 16.4999 12.8475 16.4121 12.6884 16.2364C12.5293 16.0607 12.4498 15.843 12.4498 15.5833C12.4498 15.3235 12.5293 15.1058 12.6884 14.9301C12.8475 14.7544 13.0446 14.6666 13.2798 14.6666C13.5149 14.6666 13.712 14.7544 13.8711 14.9301C14.0302 15.1058 14.1097 15.3235 14.1097 15.5833C14.1097 15.843 14.0302 16.0607 13.8711 16.2364C13.712 16.4121 13.5149 16.4999 13.2798 16.4999Z" fill="#888888"/>
</g>
</svg>
