<svg width="20" height="18" viewBox="0 0 20 18" fill="none" xmlns="http://www.w3.org/2000/svg">
<path d="M6 18C5.45 18 4.97917 17.8042 4.5875 17.4125C4.19583 17.0208 4 16.55 4 16V14H2C1.45 14 0.979167 13.8042 0.5875 13.4125C0.195833 13.0208 0 12.55 0 12V8C0 7.15 0.291667 6.4375 0.875 5.8625C1.45833 5.2875 2.16667 5 3 5H17C17.85 5 18.5625 5.2875 19.1375 5.8625C19.7125 6.4375 20 7.15 20 8V12C20 12.55 19.8042 13.0208 19.4125 13.4125C19.0208 13.8042 18.55 14 18 14H16V16C16 16.55 15.8042 17.0208 15.4125 17.4125C15.0208 17.8042 14.55 18 14 18H6ZM2 12H4C4 11.45 4.19583 10.9792 4.5875 10.5875C4.97917 10.1958 5.45 10 6 10H14C14.55 10 15.0208 10.1958 15.4125 10.5875C15.8042 10.9792 16 11.45 16 12H18V8C18 7.71667 17.9042 7.47917 17.7125 7.2875C17.5208 7.09583 17.2833 7 17 7H3C2.71667 7 2.47917 7.09583 2.2875 7.2875C2.09583 7.47917 2 7.71667 2 8V12ZM14 5V2H6V5H4V2C4 1.45 4.19583 0.979167 4.5875 0.5875C4.97917 0.195833 5.45 0 6 0H14C14.55 0 15.0208 0.195833 15.4125 0.5875C15.8042 0.979167 16 1.45 16 2V5H14ZM16 9.5C16.2833 9.5 16.5208 9.40417 16.7125 9.2125C16.9042 9.02083 17 8.78333 17 8.5C17 8.21667 16.9042 7.97917 16.7125 7.7875C16.5208 7.59583 16.2833 7.5 16 7.5C15.7167 7.5 15.4792 7.59583 15.2875 7.7875C15.0958 7.97917 15 8.21667 15 8.5C15 8.78333 15.0958 9.02083 15.2875 9.2125C15.4792 9.40417 15.7167 9.5 16 9.5ZM14 16V12H6V16H14Z" fill="#96D2EE"/>
</svg>
