<svg width="174" height="23" viewBox="0 0 174 23" fill="none" xmlns="http://www.w3.org/2000/svg">
<path d="M4.11624 4.34098C6.37242 2.21417 9.9352 2.33608 12.062 4.59226C14.2051 6.86566 14.1004 10.4122 11.8442 12.539C11.0175 13.3183 10.6378 13.7153 9.57747 13.9017L13.169 17.2538C14.4284 18.5761 13.224 19.1449 12.6901 19.6482C12.1907 20.119 12.0125 20.4387 11.493 19.8876L3.94515 12.4063C3.91268 12.3719 3.89645 12.3547 3.86398 12.3202C1.73717 10.064 1.86006 6.46779 4.11624 4.34098ZM9.94468 10.524C11.0814 9.45243 11.1357 7.61224 10.0642 6.47554C8.97641 5.32162 7.15246 5.28452 6.01576 6.35604C4.86183 7.4438 4.79128 9.26677 5.87904 10.4207C6.95056 11.5574 8.79075 11.6117 9.94468 10.524Z" fill="white"/>
<path d="M24.5651 6.43013C24.584 6.44978 24.5003 6.65648 24.3795 6.89084C24.1706 7.29623 24.1597 7.30569 24.1568 7.08298C24.1546 6.92359 24.1983 6.82461 24.2936 6.77366C24.3715 6.73217 24.4559 6.63028 24.4821 6.54731C24.5091 6.46361 24.5462 6.41121 24.5651 6.43013Z" fill="#FF4242"/>
<path d="M24.5648 6.42999C24.5605 6.42635 24.5554 6.42562 24.5496 6.4278C24.7017 6.13959 24.9229 5.65123 25.249 4.89066C25.567 4.14902 25.8851 3.47944 25.9542 3.40229C26.209 3.12062 26.626 2.96778 27.0438 3.00272C27.7024 3.0573 28.1559 3.52966 28.1559 4.16212C28.1559 4.35718 28.1253 4.57334 28.0874 4.64248C28.019 4.77057 27.594 5.91761 27.2461 6.91616C27.1413 7.21602 27.0263 7.52752 26.9899 7.60758C26.9528 7.68764 26.5911 8.6862 26.1857 9.82741C24.6442 14.1615 24.5386 14.4177 23.8931 15.3995C23.3327 16.2511 22.6733 16.9272 21.353 18.0036C18.5568 20.2846 16.5342 21.9382 16.3646 22.0816C15.8093 22.5525 15.4374 22.8436 15.2969 22.9171C15.2088 22.963 15.1106 23.0008 15.0785 23.0001C14.9978 23.0001 14.5945 22.7868 14.5472 22.7199C14.5269 22.69 13.9854 22.1806 13.3449 21.5874C13.1689 21.0846 13.4083 21.8524 13.4083 21.5635C13.4083 21.2934 13.2845 21.4886 15.0786 19.8874L16.7604 18.4508L14.3056 16.5262C13.6833 15.8537 13.6033 15.2023 14.0742 14.6426C14.3056 14.3675 14.8333 14.1208 15.1819 14.1244C15.5742 14.1288 15.8449 14.2998 16.5487 14.984C17.4818 15.8915 18.254 16.1783 19.3304 16.0196C20.3188 15.8733 21.2591 15.1666 21.7286 14.2168C21.9629 13.743 22.0022 13.5887 22.027 13.0414C22.051 12.5269 22.0277 12.3362 21.901 12.0007C21.6842 11.425 21.3756 11.0298 20.9141 10.7343C19.7322 9.97807 18.1412 10.1651 17.1266 11.1797C16.6936 11.6127 17.1332 10.8468 16.9308 11.4952C16.7561 12.0571 16.5553 12.3264 16.1732 12.5113C15.5029 12.8359 14.8689 12.6103 14.5152 11.9203C14.3253 11.5498 14.3405 11.3017 14.5996 10.5273C15.1331 8.93262 15.4817 8.88053 16.9308 8.15708C17.671 7.78808 18.2634 7.64616 19.072 7.6447C19.4199 7.6447 19.7234 7.61413 19.746 7.57702C19.7882 7.50933 19.377 7.09302 18.7591 6.57773C17.7918 5.76913 16.5771 4.61191 16.4781 4.40303C16.1986 3.8135 16.4636 3.01946 17.0393 2.72178C17.3195 2.57622 17.9549 2.57258 18.2212 2.71451C18.3413 2.77855 18.8195 3.16866 19.2831 3.58133C21.2249 5.30988 21.6791 5.68762 21.706 5.59373C21.7213 5.5406 21.8377 4.82516 21.9658 4.00492C22.0939 3.18467 22.2278 2.34914 22.2628 2.149C22.2984 1.94885 22.3479 1.60168 22.3734 1.37679C22.4906 0.35494 23.3203 -0.224398 24.1915 0.108212C24.8611 0.363674 25.0124 0.806912 24.8465 2.02745C24.6245 3.66648 24.5845 3.97871 24.4404 5.20581C24.3611 5.88631 24.2795 6.51659 24.2592 6.60684C24.2395 6.69709 24.2533 6.7706 24.2897 6.7706C24.2934 6.7706 24.297 6.76987 24.3006 6.76914C24.2985 6.7706 24.2963 6.77206 24.2934 6.77351C24.198 6.82446 24.1544 6.92344 24.1565 7.08283C24.1594 7.30554 24.1704 7.29608 24.3792 6.89069C24.5001 6.65633 24.5838 6.44964 24.5648 6.42999ZM24.4797 6.55444C24.4608 6.60684 24.42 6.6658 24.3734 6.71238C24.4033 6.67671 24.4382 6.62504 24.4797 6.55444Z" fill="#FF4242"/>
<path d="M24.5648 6.42999C24.5605 6.42635 24.5554 6.42562 24.5496 6.4278C24.7017 6.13959 24.9229 5.65123 25.249 4.89066C25.567 4.14902 25.8851 3.47944 25.9542 3.40229C26.209 3.12062 26.626 2.96778 27.0438 3.00272C27.7024 3.0573 28.1559 3.52966 28.1559 4.16212C28.1559 4.35718 28.1253 4.57334 28.0874 4.64248C28.019 4.77057 27.594 5.91761 27.2461 6.91616C27.1413 7.21602 27.0263 7.52752 26.9899 7.60758C26.9528 7.68764 26.5911 8.6862 26.1857 9.82741C24.6442 14.1615 24.5386 14.4177 23.8931 15.3995C23.3327 16.2511 22.6733 16.9272 21.353 18.0036C18.5568 20.2846 16.5342 21.9382 16.3646 22.0816C15.8093 22.5525 15.4374 22.8436 15.2969 22.9171C15.2088 22.963 15.1106 23.0008 15.0785 23.0001C14.9978 23.0001 14.5945 22.7868 14.5472 22.7199C14.5269 22.69 13.9854 22.1806 13.3449 21.5874C13.1689 21.0846 13.4083 21.8524 13.4083 21.5635C13.4083 21.2934 13.2845 21.4886 15.0786 19.8874L16.7604 18.4508L14.3056 16.5262C13.6833 15.8537 13.6033 15.2023 14.0742 14.6426C14.3056 14.3675 14.8333 14.1208 15.1819 14.1244C15.5742 14.1288 15.8449 14.2998 16.5487 14.984C17.4818 15.8915 18.254 16.1783 19.3304 16.0196C20.3188 15.8733 21.2591 15.1666 21.7286 14.2168C21.9629 13.743 22.0022 13.5887 22.027 13.0414C22.051 12.5269 22.0277 12.3362 21.901 12.0007C21.6842 11.425 21.3756 11.0298 20.9141 10.7343C19.7322 9.97807 18.1412 10.1651 17.1266 11.1797C16.6936 11.6127 17.1332 10.8468 16.9308 11.4952C16.7561 12.0571 16.5553 12.3264 16.1732 12.5113C15.5029 12.8359 14.8689 12.6103 14.5152 11.9203C14.3253 11.5498 14.3405 11.3017 14.5996 10.5273C15.1331 8.93262 15.4817 8.88053 16.9308 8.15708C17.671 7.78808 18.2634 7.64616 19.072 7.6447C19.4199 7.6447 19.7234 7.61413 19.746 7.57702C19.7882 7.50933 19.377 7.09302 18.7591 6.57773C17.7918 5.76913 16.5771 4.61191 16.4781 4.40303C16.1986 3.8135 16.4636 3.01946 17.0393 2.72178C17.3195 2.57622 17.9549 2.57258 18.2212 2.71451C18.3413 2.77855 18.8195 3.16866 19.2831 3.58133C21.2249 5.30988 21.6791 5.68762 21.706 5.59373C21.7213 5.5406 21.8377 4.82516 21.9658 4.00492C22.0939 3.18467 22.2278 2.34914 22.2628 2.149C22.2984 1.94885 22.3479 1.60168 22.3734 1.37679C22.4906 0.35494 23.3203 -0.224398 24.1915 0.108212C24.8611 0.363674 25.0124 0.806912 24.8465 2.02745C24.6245 3.66648 24.5845 3.97871 24.4404 5.20581C24.3611 5.88631 24.2795 6.51659 24.2592 6.60684C24.2395 6.69709 24.2533 6.7706 24.2897 6.7706C24.2934 6.7706 24.297 6.76987 24.3006 6.76914C24.2985 6.7706 24.2963 6.77206 24.2934 6.77351C24.198 6.82446 24.1544 6.92344 24.1565 7.08283C24.1594 7.30554 24.1704 7.29608 24.3792 6.89069C24.5001 6.65633 24.5838 6.44964 24.5648 6.42999ZM24.4797 6.55444C24.4608 6.60684 24.42 6.6658 24.3734 6.71238C24.4033 6.67671 24.4382 6.62504 24.4797 6.55444Z" fill="#FF4242"/>
<path d="M15.4799 22.7726C15.6166 22.6995 15.9784 22.41 16.5186 21.9418C16.6581 21.8213 18.0847 20.6287 20.165 18.8934C19.0469 19.5333 18.1942 19.2833 16.9039 18.3317L14.7506 19.9982C13.4097 20.9505 13.1768 21.1886 13.1768 21.1886C13.4097 21.4266 13.5808 21.4504 13.5808 21.4504C14.2039 22.0402 14.7307 22.5468 14.7506 22.5765C14.7966 22.643 15.1889 22.8551 15.2675 22.8551C15.2986 22.8558 15.3942 22.8182 15.4799 22.7726Z" fill="#E53030"/>
<g filter="url(#filter0_i_353_1973)">
<rect x="13.304" y="11.833" width="4.59602" height="2.01816" rx="1.00908" transform="rotate(14.7951 13.304 11.833)" fill="white"/>
</g>
<mask id="mask0_353_1973" style="mask-type:alpha" maskUnits="userSpaceOnUse" x="14" y="12" width="6" height="6">
<rect x="15.7212" y="12.0376" width="3.80918" height="4.23243" transform="rotate(14.7951 15.7212 12.0376)" fill="#D9D9D9"/>
</mask>
<g mask="url(#mask0_353_1973)">
<g filter="url(#filter1_i_353_1973)">
<rect x="13.302" y="11.8354" width="4.59602" height="2.01816" rx="1.00908" transform="rotate(14.7223 13.302 11.8354)" fill="#96D2EE"/>
</g>
</g>
<path d="M42 4.05435C45.6614 4.05435 48.6521 6.93387 48.6521 10.4593C48.6521 13.9847 45.6614 16.8642 42 16.8642H36.2981V22.2885C36.2981 23.1497 35.5435 22.9193 34.6491 22.9193C33.7547 22.9193 33 22.2196 33 21.3584V5.64212C33 4.78096 33.7547 4.05435 34.6491 4.05435H42ZM42 13.7156C43.8726 13.7156 45.3819 12.2623 45.3819 10.4593C45.3819 8.6562 43.8726 7.20298 42 7.20298H36.2981V13.7156H42Z" fill="white"/>
<path d="M55.2933 10.1094C58.5356 10.1094 61.2188 12.666 61.2188 15.7877V22.0783C61.2188 22.9664 60.4641 22.9193 59.5697 22.9193C58.6474 22.9193 57.8927 22.2196 57.8927 21.3315V15.7877C57.8927 14.4422 56.7188 13.285 55.2933 13.285C53.8679 13.285 52.694 14.4422 52.694 15.7877L52.8342 22.2885C52.8342 23.1766 51.9673 22.9193 51.0449 22.9193C50.1505 22.9193 49.3958 22.2196 49.3958 21.3315V4.83816C49.3958 3.95008 50.1505 4.00052 51.0449 4.00052C51.9673 4.00052 52.694 4.70022 52.694 5.5883V10.7015C53.4766 10.3247 54.371 10.1094 55.2933 10.1094Z" fill="white"/>
<path d="M76.1488 16.5951V16.6758C76.1488 16.7296 76.1488 16.7565 76.1488 16.7835V22.0783C76.1488 22.9125 75.478 22.9731 74.6674 22.9731C73.8569 22.9731 73.214 22.3541 73.1302 21.5737C72.1239 22.4079 70.8941 23 69.4966 23C65.8072 23 62.8445 20.1474 62.8445 16.5951C62.8445 13.0966 65.8072 10.1902 69.4966 10.1902C73.1581 10.1902 76.1488 13.0966 76.1488 16.5951ZM69.4966 19.8514C71.3693 19.8514 72.8786 18.3712 72.8786 16.5951C72.8786 14.8189 71.3693 13.3388 69.4966 13.3388C67.6519 13.3388 66.1147 14.8189 66.1147 16.5951C66.1147 18.3712 67.6519 19.8514 69.4966 19.8514Z" fill="white"/>
<path d="M79.8958 22.9193C79.0014 22.9193 78.2468 22.2196 78.2468 21.3584V15.707C78.2468 12.6122 80.8741 10.0556 84.1163 10.0556C86.6318 10.0556 88.8399 11.5895 89.6784 13.9039C89.9579 14.7113 89.5107 15.6263 88.6443 15.8954C87.7778 16.1914 86.8554 15.7339 86.548 14.8997C86.1846 13.9039 85.2343 13.2311 84.1163 13.2311C82.6909 13.2311 81.5449 14.3345 81.5449 15.707V22.0783C81.5449 22.9395 80.7903 22.9193 79.8958 22.9193Z" fill="white"/>
<path d="M104.677 10.1363C107.723 10.1363 110.183 12.4776 110.183 15.411V22.0783C110.183 22.9664 109.456 22.9193 108.534 22.9193C107.612 22.9193 106.857 22.2196 106.857 21.3315V15.411C106.857 14.2269 105.879 13.285 104.677 13.285C103.475 13.285 102.497 14.2269 102.497 15.411V22.0783C102.497 22.9664 101.742 22.9193 100.848 22.9193C99.9252 22.9193 99.1985 22.9664 99.1985 22.0783V15.411C99.1985 14.2269 98.1923 13.285 97.0184 13.285C95.8165 13.285 94.8383 14.2269 94.8383 15.411V22.0783C94.8383 22.9664 94.0836 22.9193 93.1613 22.9193C92.2389 22.9193 91.5122 22.2196 91.5122 21.3315V15.411C91.5122 12.4776 93.9718 10.1363 97.0184 10.1363C98.4998 10.1363 99.8693 10.7015 100.848 11.6434C101.826 10.7015 103.195 10.1363 104.677 10.1363Z" fill="white"/>
<path d="M125.144 16.5951V16.6758C125.144 16.7296 125.144 16.7565 125.144 16.7835V22.0783C125.144 22.9125 124.473 22.9731 123.662 22.9731C122.852 22.9731 122.209 22.3541 122.125 21.5737C121.119 22.4079 119.889 23 118.491 23C114.802 23 111.839 20.1474 111.839 16.5951C111.839 13.0966 114.802 10.1902 118.491 10.1902C122.153 10.1902 125.144 13.0966 125.144 16.5951ZM118.491 19.8514C120.364 19.8514 121.873 18.3712 121.873 16.5951C121.873 14.8189 120.364 13.3388 118.491 13.3388C116.647 13.3388 115.109 14.8189 115.109 16.5951C115.109 18.3712 116.647 19.8514 118.491 19.8514Z" fill="white"/>
<path d="M134.646 4.08126C140.069 4.08126 144.457 8.30635 144.457 13.4733C144.457 18.6942 140.069 22.9193 134.646 22.9193H129.727C128.917 22.8924 128.19 22.2465 128.106 21.5199C128.106 21.493 128.078 21.4122 128.078 21.3315V5.64212C128.078 4.78096 128.805 4.08126 129.727 4.08126H134.646ZM134.646 19.7975C138.252 19.7975 141.187 16.9718 141.187 13.4733C141.187 10.0018 138.252 7.20298 134.646 7.20298H131.348V19.7706L134.646 19.7975Z" fill="#FF4242"/>
<path d="M159.399 16.5951V16.6758C159.399 16.7296 159.399 16.7565 159.399 16.7835V22.0783C159.399 22.9125 158.728 22.9731 157.918 22.9731C157.107 22.9731 156.464 22.3541 156.38 21.5737C155.374 22.4079 154.144 23 152.747 23C149.057 23 146.095 20.1474 146.095 16.5951C146.095 13.0966 149.057 10.1902 152.747 10.1902C156.408 10.1902 159.399 13.0966 159.399 16.5951ZM152.747 19.8514C154.619 19.8514 156.129 18.3712 156.129 16.5951C156.129 14.8189 154.619 13.3388 152.747 13.3388C150.902 13.3388 149.365 14.8189 149.365 16.5951C149.365 18.3712 150.902 19.8514 152.747 19.8514Z" fill="#FF4242"/>
<path d="M167.283 22.9193C163.649 22.9193 161.301 20.5241 161.301 16.8642V5.66903C161.301 4.78096 162.028 4.08126 162.95 4.08126C163.845 4.08126 164.599 4.78096 164.599 5.66903V16.8642C164.599 19.044 165.745 19.7437 167.283 19.7437C168.205 19.7437 169.002 21.1902 169.002 22.0783C169.002 22.9664 168.205 22.9193 167.283 22.9193Z" fill="#FF4242"/>
<path d="M172.183 8.79076C171.177 8.79076 170.366 7.9565 170.366 7.0146C170.366 6.01888 171.177 5.26536 172.183 5.26536C173.189 5.26536 174 6.01888 174 7.0146C174 7.9565 173.189 8.79076 172.183 8.79076ZM172.155 22.9193C171.261 22.9193 170.534 22.2196 170.534 21.3315V11.7241C170.534 10.8629 171.261 10.1363 172.155 10.1363C173.078 10.1363 173.832 10.8629 173.832 11.7241V22.0783C173.832 22.9664 173.078 22.9193 172.155 22.9193Z" fill="#FF4242"/>
<defs>
<filter id="filter0_i_353_1973" x="13.0125" y="12.0571" width="4.51123" height="2.67676" filterUnits="userSpaceOnUse" color-interpolation-filters="sRGB">
<feFlood flood-opacity="0" result="BackgroundImageFix"/>
<feBlend mode="normal" in="SourceGraphic" in2="BackgroundImageFix" result="shape"/>
<feColorMatrix in="SourceAlpha" type="matrix" values="0 0 0 0 0 0 0 0 0 0 0 0 0 0 0 0 0 0 127 0" result="hardAlpha"/>
<feMorphology radius="4" operator="dilate" in="SourceAlpha" result="effect1_innerShadow_353_1973"/>
<feOffset dy="5"/>
<feComposite in2="hardAlpha" operator="arithmetic" k2="-1" k3="1"/>
<feColorMatrix type="matrix" values="0 0 0 0 0 0 0 0 0 0 0 0 0 0 0 0 0 0 0.25 0"/>
<feBlend mode="normal" in2="shape" result="effect1_innerShadow_353_1973"/>
</filter>
<filter id="filter1_i_353_1973" x="13.0122" y="12.0586" width="4.51196" height="2.67383" filterUnits="userSpaceOnUse" color-interpolation-filters="sRGB">
<feFlood flood-opacity="0" result="BackgroundImageFix"/>
<feBlend mode="normal" in="SourceGraphic" in2="BackgroundImageFix" result="shape"/>
<feColorMatrix in="SourceAlpha" type="matrix" values="0 0 0 0 0 0 0 0 0 0 0 0 0 0 0 0 0 0 127 0" result="hardAlpha"/>
<feMorphology radius="4" operator="dilate" in="SourceAlpha" result="effect1_innerShadow_353_1973"/>
<feOffset dy="5"/>
<feComposite in2="hardAlpha" operator="arithmetic" k2="-1" k3="1"/>
<feColorMatrix type="matrix" values="0 0 0 0 0 0 0 0 0 0 0 0 0 0 0 0 0 0 0.25 0"/>
<feBlend mode="normal" in2="shape" result="effect1_innerShadow_353_1973"/>
</filter>
</defs>
</svg>
