<svg width="365" height="102" viewBox="0 0 365 102" fill="none" xmlns="http://www.w3.org/2000/svg">
<path d="M23.2978 51.1459C32.7761 51.1459 40.5179 58.8751 40.5179 68.338C40.5179 77.8009 32.7761 85.5302 23.2978 85.5302H8.5377V100.09C8.5377 102.402 6.58415 101.783 4.26885 101.783C1.95354 101.783 0 99.9052 0 97.5936V55.4078C0 53.0963 1.95354 51.1459 4.26885 51.1459H23.2978ZM23.2978 77.0786C28.1455 77.0786 32.0525 73.1778 32.0525 68.338C32.0525 63.4982 28.1455 59.5975 23.2978 59.5975H8.5377V77.0786H23.2978Z" fill="white"/>
<path d="M57.7097 67.399C66.1027 67.399 73.0486 74.2614 73.0486 82.6408V99.5259C73.0486 101.91 71.0951 101.783 68.7798 101.783C66.3921 101.783 64.4386 99.9052 64.4386 97.5214V82.6408C64.4386 79.029 61.3997 75.9228 57.7097 75.9228C54.0197 75.9228 50.9809 79.029 50.9809 82.6408L51.3438 100.09C51.3438 102.474 49.0997 101.783 46.712 101.783C44.3967 101.783 42.4431 99.9052 42.4431 97.5214V53.2498C42.4431 50.866 44.3967 51.0014 46.712 51.0014C49.0997 51.0014 50.9809 52.8795 50.9809 55.2633V68.9882C53.0067 67.9769 55.322 67.399 57.7097 67.399Z" fill="white"/>
<path d="M111.697 84.8078V85.0245C111.697 85.169 111.697 85.2412 111.697 85.3135V99.5259C111.697 101.765 109.961 101.928 107.862 101.928C105.764 101.928 104.1 100.266 103.883 98.1715C101.278 100.411 98.0947 102 94.4771 102C84.9264 102 77.257 94.343 77.257 84.8078C77.257 75.4172 84.9264 67.6157 94.4771 67.6157C103.955 67.6157 111.697 75.4172 111.697 84.8078ZM94.4771 93.5484C99.3248 93.5484 103.232 89.5754 103.232 84.8078C103.232 80.0403 99.3248 76.0673 94.4771 76.0673C89.7018 76.0673 85.7223 80.0403 85.7223 84.8078C85.7223 89.5754 89.7018 93.5484 94.4771 93.5484Z" fill="white"/>
<path d="M121.397 101.783C119.082 101.783 117.128 99.9052 117.128 97.5936V82.424C117.128 74.1169 123.929 67.2545 132.322 67.2545C138.834 67.2545 144.55 71.3719 146.721 77.5842C147.444 79.7513 146.287 82.2073 144.044 82.9297C141.801 83.7243 139.413 82.4963 138.617 80.257C137.677 77.5842 135.217 75.7783 132.322 75.7783C128.632 75.7783 125.666 78.74 125.666 82.424V99.5259C125.666 101.837 123.712 101.783 121.397 101.783Z" fill="white"/>
<path d="M185.546 67.4712C193.433 67.4712 199.8 73.7557 199.8 81.6295V99.5259C199.8 101.91 197.919 101.783 195.531 101.783C193.143 101.783 191.19 99.9052 191.19 97.5214V81.6295C191.19 78.4511 188.657 75.9228 185.546 75.9228C182.435 75.9228 179.903 78.4511 179.903 81.6295V99.5259C179.903 101.91 177.949 101.783 175.634 101.783C173.246 101.783 171.365 101.91 171.365 99.5259V81.6295C171.365 78.4511 168.76 75.9228 165.721 75.9228C162.61 75.9228 160.078 78.4511 160.078 81.6295V99.5259C160.078 101.91 158.124 101.783 155.737 101.783C153.349 101.783 151.468 99.9052 151.468 97.5214V81.6295C151.468 73.7557 157.835 67.4712 165.721 67.4712C169.556 67.4712 173.101 68.9882 175.634 71.5164C178.166 68.9882 181.711 67.4712 185.546 67.4712Z" fill="white"/>
<path d="M238.528 84.8078V85.0245C238.528 85.169 238.528 85.2412 238.528 85.3135V99.5259C238.528 101.765 236.791 101.928 234.693 101.928C232.595 101.928 230.93 100.266 230.713 98.1715C228.109 100.411 224.925 102 221.307 102C211.757 102 204.087 94.343 204.087 84.8078C204.087 75.4172 211.757 67.6157 221.307 67.6157C230.786 67.6157 238.528 75.4172 238.528 84.8078ZM221.307 93.5484C226.155 93.5484 230.062 89.5754 230.062 84.8078C230.062 80.0403 226.155 76.0673 221.307 76.0673C216.532 76.0673 212.553 80.0403 212.553 84.8078C212.553 89.5754 216.532 93.5484 221.307 93.5484Z" fill="white"/>
<path d="M263.127 51.2181C277.164 51.2181 288.523 62.5592 288.523 76.4285C288.523 90.4422 277.164 101.783 263.127 101.783H250.393C248.295 101.711 246.413 99.9774 246.196 98.027C246.196 97.9548 246.124 97.7381 246.124 97.5214V55.4078C246.124 53.0963 248.005 51.2181 250.393 51.2181H263.127ZM263.127 93.4039C272.461 93.4039 280.058 85.8191 280.058 76.4285C280.058 67.11 272.461 59.5975 263.127 59.5975H254.589V93.3317L263.127 93.4039Z" fill="#FF4242"/>
<path d="M327.203 84.8078V85.0245C327.203 85.169 327.203 85.2412 327.203 85.3135V99.5259C327.203 101.765 325.466 101.928 323.368 101.928C321.27 101.928 319.606 100.266 319.389 98.1715C316.784 100.411 313.6 102 309.983 102C300.432 102 292.763 94.343 292.763 84.8078C292.763 75.4172 300.432 67.6157 309.983 67.6157C319.461 67.6157 327.203 75.4172 327.203 84.8078ZM309.983 93.5484C314.83 93.5484 318.737 89.5754 318.737 84.8078C318.737 80.0403 314.83 76.0673 309.983 76.0673C305.207 76.0673 301.228 80.0403 301.228 84.8078C301.228 89.5754 305.207 93.5484 309.983 93.5484Z" fill="#FF4242"/>
<path d="M347.611 101.783C338.205 101.783 332.127 95.3543 332.127 85.5302V55.48C332.127 53.0963 334.008 51.2181 336.396 51.2181C338.711 51.2181 340.665 53.0963 340.665 55.48V85.5302C340.665 91.3813 343.631 93.2594 347.611 93.2594C349.999 93.2594 352.062 97.1422 352.062 99.5259C352.062 101.91 349.999 101.783 347.611 101.783Z" fill="#FF4242"/>
<path d="M360.297 63.8594C357.692 63.8594 355.594 61.6201 355.594 59.0918C355.594 56.4191 357.692 54.3965 360.297 54.3965C362.902 54.3965 365 56.4191 365 59.0918C365 61.6201 362.902 63.8594 360.297 63.8594ZM360.225 101.783C357.909 101.783 356.028 99.9052 356.028 97.5214V71.7331C356.028 69.4216 357.909 67.4712 360.225 67.4712C362.612 67.4712 364.566 69.4216 364.566 71.7331V99.5259C364.566 101.91 362.612 101.783 360.225 101.783Z" fill="#FF4242"/>
<path d="M153.592 10.256C158.923 5.23097 167.341 5.519 172.366 10.8497C177.429 16.2211 177.182 24.6006 171.851 29.6256C169.898 31.4668 169.001 32.4049 166.496 32.8452L174.982 40.7653C177.957 43.8896 175.112 45.2334 173.85 46.4225C172.67 47.5349 172.249 48.2904 171.021 46.9882L153.188 29.3121C153.111 29.2307 153.073 29.19 152.996 29.1086C147.971 23.7779 148.262 15.281 153.592 10.256ZM167.363 24.8646C170.049 22.3329 170.177 17.9851 167.646 15.2994C165.076 12.573 160.766 12.4853 158.08 15.017C155.354 17.5871 155.187 21.8942 157.757 24.6206C160.289 27.3063 164.637 27.4347 167.363 24.8646Z" fill="white"/>
<path d="M201.907 15.1917C201.951 15.2382 201.754 15.7265 201.468 16.2803C200.975 17.2381 200.949 17.2604 200.942 16.7342C200.937 16.3576 201.04 16.1238 201.265 16.0034C201.449 15.9054 201.649 15.6646 201.711 15.4686C201.774 15.2708 201.862 15.147 201.907 15.1917Z" fill="#FF4242"/>
<path d="M201.907 15.1919C201.897 15.1834 201.885 15.1816 201.871 15.1868C202.23 14.5058 202.753 13.352 203.523 11.555C204.275 9.80269 205.026 8.22065 205.19 8.03837C205.792 7.37288 206.777 7.01177 207.764 7.09431C209.32 7.22328 210.391 8.3393 210.391 9.83364C210.391 10.2945 210.319 10.8052 210.23 10.9686C210.068 11.2712 209.064 13.9813 208.242 16.3406C207.994 17.0491 207.723 17.7851 207.637 17.9743C207.549 18.1634 206.694 20.5227 205.736 23.2191C202.094 33.4594 201.845 34.0647 200.32 36.3844C198.996 38.3964 197.438 39.9939 194.318 42.5372C187.712 47.9264 182.933 51.8334 182.532 52.1721C181.22 53.2847 180.341 53.9726 180.009 54.1463C179.801 54.2546 179.569 54.344 179.494 54.3423C179.303 54.3423 178.35 53.8384 178.238 53.6802C178.19 53.6097 176.911 52.406 175.397 51.0045C174.981 49.8166 175.547 51.6307 175.547 50.948C175.547 50.31 175.255 50.7711 179.494 46.9879L183.467 43.5936L177.667 39.0464C176.197 37.4575 176.008 35.9184 177.12 34.596C177.667 33.946 178.914 33.3631 179.738 33.3717C180.665 33.382 181.304 33.7861 182.967 35.4025C185.172 37.5469 186.996 38.2244 189.539 37.8495C191.875 37.5039 194.096 35.8341 195.206 33.59C195.759 32.4706 195.852 32.106 195.911 30.8129C195.967 29.5971 195.912 29.1466 195.613 28.3538C195.101 26.9936 194.372 26.0599 193.281 25.3617C190.489 23.575 186.73 24.017 184.333 26.4141C183.309 27.4373 184.348 25.6275 183.87 27.1597C183.457 28.4872 182.983 29.1235 182.08 29.5603C180.496 30.3272 178.998 29.7941 178.163 28.164C177.714 27.2887 177.75 26.7023 178.362 24.8726C179.623 21.105 180.446 20.9819 183.87 19.2726C185.619 18.4007 187.019 18.0654 188.929 18.062C189.751 18.062 190.468 17.9898 190.521 17.9021C190.621 17.7421 189.65 16.7585 188.19 15.541C185.904 13.6305 183.034 10.8964 182.8 10.4028C182.14 9.00995 182.766 7.13386 184.126 6.43054C184.788 6.08662 186.289 6.07802 186.919 6.41334C187.203 6.56467 188.332 7.48638 189.428 8.4614C194.016 12.5455 195.089 13.4379 195.152 13.2161C195.188 13.0906 195.464 11.4002 195.766 9.46221C196.069 7.52421 196.385 5.5501 196.468 5.07721C196.552 4.60431 196.669 3.78406 196.729 3.2527C197.006 0.838368 198.966 -0.530441 201.025 0.255421C202.607 0.859003 202.964 1.90625 202.572 4.79003C202.048 8.66259 201.953 9.4003 201.613 12.2996C201.425 13.9074 201.233 15.3966 201.185 15.6098C201.138 15.823 201.171 15.9967 201.257 15.9967C201.266 15.9967 201.274 15.995 201.283 15.9933C201.278 15.9967 201.272 16.0002 201.266 16.0036C201.04 16.124 200.937 16.3578 200.942 16.7344C200.949 17.2606 200.975 17.2383 201.468 16.2805C201.754 15.7267 201.952 15.2384 201.907 15.1919ZM201.706 15.486C201.661 15.6098 201.565 15.7491 201.455 15.8592C201.525 15.7749 201.608 15.6528 201.706 15.486Z" fill="#FF4242"/>
<path d="M201.907 15.1919C201.897 15.1834 201.885 15.1816 201.871 15.1868C202.23 14.5058 202.753 13.352 203.523 11.555C204.275 9.80269 205.026 8.22065 205.19 8.03837C205.792 7.37288 206.777 7.01177 207.764 7.09431C209.32 7.22328 210.391 8.3393 210.391 9.83364C210.391 10.2945 210.319 10.8052 210.23 10.9686C210.068 11.2712 209.064 13.9813 208.242 16.3406C207.994 17.0491 207.723 17.7851 207.637 17.9743C207.549 18.1634 206.694 20.5227 205.736 23.2191C202.094 33.4594 201.845 34.0647 200.32 36.3844C198.996 38.3964 197.438 39.9939 194.318 42.5372C187.712 47.9264 182.933 51.8334 182.532 52.1721C181.22 53.2847 180.341 53.9726 180.009 54.1463C179.801 54.2546 179.569 54.344 179.494 54.3423C179.303 54.3423 178.35 53.8384 178.238 53.6802C178.19 53.6097 176.911 52.406 175.397 51.0045C174.981 49.8166 175.547 51.6307 175.547 50.948C175.547 50.31 175.255 50.7711 179.494 46.9879L183.467 43.5936L177.667 39.0464C176.197 37.4575 176.008 35.9184 177.12 34.596C177.667 33.946 178.914 33.3631 179.738 33.3717C180.665 33.382 181.304 33.7861 182.967 35.4025C185.172 37.5469 186.996 38.2244 189.539 37.8495C191.875 37.5039 194.096 35.8341 195.206 33.59C195.759 32.4706 195.852 32.106 195.911 30.8129C195.967 29.5971 195.912 29.1466 195.613 28.3538C195.101 26.9936 194.372 26.0599 193.281 25.3617C190.489 23.575 186.73 24.017 184.333 26.4141C183.309 27.4373 184.348 25.6275 183.87 27.1597C183.457 28.4872 182.983 29.1235 182.08 29.5603C180.496 30.3272 178.998 29.7941 178.163 28.164C177.714 27.2887 177.75 26.7023 178.362 24.8726C179.623 21.105 180.446 20.9819 183.87 19.2726C185.619 18.4007 187.019 18.0654 188.929 18.062C189.751 18.062 190.468 17.9898 190.521 17.9021C190.621 17.7421 189.65 16.7585 188.19 15.541C185.904 13.6305 183.034 10.8964 182.8 10.4028C182.14 9.00995 182.766 7.13386 184.126 6.43054C184.788 6.08662 186.289 6.07802 186.919 6.41334C187.203 6.56467 188.332 7.48638 189.428 8.4614C194.016 12.5455 195.089 13.4379 195.152 13.2161C195.188 13.0906 195.464 11.4002 195.766 9.46221C196.069 7.52421 196.385 5.5501 196.468 5.07721C196.552 4.60431 196.669 3.78406 196.729 3.2527C197.006 0.838368 198.966 -0.530441 201.025 0.255421C202.607 0.859003 202.964 1.90625 202.572 4.79003C202.048 8.66259 201.953 9.4003 201.613 12.2996C201.425 13.9074 201.233 15.3966 201.185 15.6098C201.138 15.823 201.171 15.9967 201.257 15.9967C201.266 15.9967 201.274 15.995 201.283 15.9933C201.278 15.9967 201.272 16.0002 201.266 16.0036C201.04 16.124 200.937 16.3578 200.942 16.7344C200.949 17.2606 200.975 17.2383 201.468 16.2805C201.754 15.7267 201.952 15.2384 201.907 15.1919ZM201.706 15.486C201.661 15.6098 201.565 15.7491 201.455 15.8592C201.525 15.7749 201.608 15.6528 201.706 15.486Z" fill="#FF4242"/>
<path d="M180.442 53.8051C180.765 53.6324 181.619 52.9484 182.896 51.8422C183.225 51.5575 186.596 48.7396 191.511 44.6398C188.869 46.1516 186.855 45.5608 183.806 43.3125L178.718 47.25C175.55 49.5 175 50.0625 175 50.0625C175.55 50.625 175.955 50.6812 175.955 50.6812C177.427 52.0747 178.672 53.2716 178.718 53.3417C178.827 53.499 179.754 54 179.94 54C180.013 54.0017 180.239 53.9128 180.442 53.8051Z" fill="#E53030"/>
<g filter="url(#filter0_i_562_3510)">
<rect x="175.301" y="27.958" width="10.8591" height="4.76833" rx="2.38416" transform="rotate(14.7951 175.301 27.958)" fill="white"/>
</g>
<mask id="mask0_562_3510" style="mask-type:alpha" maskUnits="userSpaceOnUse" x="178" y="28" width="12" height="13">
<rect x="181.012" y="28.4414" width="9" height="10" transform="rotate(14.7951 181.012 28.4414)" fill="#D9D9D9"/>
</mask>
<g mask="url(#mask0_562_3510)">
<g filter="url(#filter1_i_562_3510)">
<rect x="175.296" y="27.9639" width="10.8591" height="4.76833" rx="2.38416" transform="rotate(14.7223 175.296 27.9639)" fill="white"/>
</g>
</g>
<defs>
<filter id="filter0_i_562_3510" x="174.612" y="28.4873" width="10.6584" height="6.3252" filterUnits="userSpaceOnUse" color-interpolation-filters="sRGB">
<feFlood flood-opacity="0" result="BackgroundImageFix"/>
<feBlend mode="normal" in="SourceGraphic" in2="BackgroundImageFix" result="shape"/>
<feColorMatrix in="SourceAlpha" type="matrix" values="0 0 0 0 0 0 0 0 0 0 0 0 0 0 0 0 0 0 127 0" result="hardAlpha"/>
<feMorphology radius="4" operator="dilate" in="SourceAlpha" result="effect1_innerShadow_562_3510"/>
<feOffset dy="5"/>
<feComposite in2="hardAlpha" operator="arithmetic" k2="-1" k3="1"/>
<feColorMatrix type="matrix" values="0 0 0 0 0 0 0 0 0 0 0 0 0 0 0 0 0 0 0.25 0"/>
<feBlend mode="normal" in2="shape" result="effect1_innerShadow_562_3510"/>
</filter>
<filter id="filter1_i_562_3510" x="174.611" y="28.4912" width="10.6604" height="6.31738" filterUnits="userSpaceOnUse" color-interpolation-filters="sRGB">
<feFlood flood-opacity="0" result="BackgroundImageFix"/>
<feBlend mode="normal" in="SourceGraphic" in2="BackgroundImageFix" result="shape"/>
<feColorMatrix in="SourceAlpha" type="matrix" values="0 0 0 0 0 0 0 0 0 0 0 0 0 0 0 0 0 0 127 0" result="hardAlpha"/>
<feMorphology radius="4" operator="dilate" in="SourceAlpha" result="effect1_innerShadow_562_3510"/>
<feOffset dy="5"/>
<feComposite in2="hardAlpha" operator="arithmetic" k2="-1" k3="1"/>
<feColorMatrix type="matrix" values="0 0 0 0 0 0 0 0 0 0 0 0 0 0 0 0 0 0 0.25 0"/>
<feBlend mode="normal" in2="shape" result="effect1_innerShadow_562_3510"/>
</filter>
</defs>
</svg>
