<svg width="452" height="369" viewBox="0 0 452 369" fill="none" xmlns="http://www.w3.org/2000/svg">
<path d="M66.0796 69.894C102.299 35.7515 159.494 37.7085 193.636 73.9279C228.039 110.424 226.359 167.358 190.139 201.5C176.868 214.011 170.773 220.384 153.751 223.376L211.407 277.189C231.625 298.417 212.291 307.547 203.72 315.627C195.702 323.185 192.841 328.318 184.501 319.47L63.3331 199.37C62.8118 198.817 62.5512 198.541 62.0299 197.988C27.8874 161.768 29.8603 104.037 66.0796 69.894ZM159.646 169.152C177.894 151.95 178.766 122.409 161.564 104.161C144.102 85.6365 114.821 85.0411 96.5733 102.243C78.0489 119.705 76.9163 148.97 94.3785 167.494C111.58 185.742 141.121 186.614 159.646 169.152Z" fill="#96D2EE"/>
<path d="M394.303 102.996C394.607 103.311 393.262 106.629 391.321 110.391C387.965 116.899 387.789 117.051 387.743 113.476C387.708 110.917 388.409 109.328 389.941 108.51C391.192 107.844 392.549 106.209 392.97 104.877C393.402 103.533 393.999 102.692 394.303 102.996Z" fill="#FF4242"/>
<path d="M394.305 102.995C394.234 102.937 394.153 102.925 394.059 102.96C396.503 98.3333 400.058 90.4935 405.296 78.284C410.406 66.3782 415.516 55.6291 416.627 54.3906C420.72 49.869 427.42 47.4154 434.132 47.9762C444.715 48.8525 452 56.4353 452 66.5885C452 69.7198 451.509 73.1898 450.901 74.2998C449.802 76.3561 442.973 94.7698 437.383 110.8C435.699 115.614 433.852 120.614 433.267 121.9C432.671 123.185 426.859 139.215 420.346 157.535C395.579 227.112 393.884 231.225 383.511 246.986C374.508 260.656 363.913 271.51 342.701 288.791C297.775 325.408 265.279 351.953 262.554 354.255C253.632 361.814 247.657 366.488 245.4 367.668C243.985 368.404 242.407 369.011 241.892 369C240.594 369 234.116 365.576 233.356 364.502C233.028 364.023 224.328 355.844 214.038 346.322C211.21 338.25 215.057 350.576 215.057 345.937C215.057 341.603 213.068 344.736 241.892 319.031L268.914 295.969L229.474 265.073C219.476 254.277 218.189 243.82 225.755 234.835C229.474 230.418 237.951 226.458 243.553 226.516C249.855 226.586 254.205 229.332 265.513 240.315C280.504 254.884 292.911 259.488 310.205 256.941C326.085 254.592 341.193 243.247 348.735 228C352.5 220.394 353.132 217.917 353.529 209.131C353.915 200.87 353.541 197.809 351.506 192.423C348.022 183.181 343.064 176.837 335.65 172.093C316.66 159.954 291.098 162.956 274.797 179.244C267.84 186.195 274.903 173.899 271.652 184.309C268.845 193.329 265.618 197.652 259.479 200.62C248.709 205.831 238.524 202.209 232.841 191.133C229.789 185.186 230.035 181.201 234.198 168.77C242.769 143.171 248.37 142.334 271.652 130.721C283.544 124.797 293.063 122.519 306.054 122.495C311.644 122.495 316.52 122.005 316.882 121.409C317.56 120.322 310.954 113.639 301.026 105.367C285.485 92.3863 265.969 73.8091 264.379 70.4558C259.888 60.992 264.145 48.245 273.394 43.4663C277.896 41.1295 288.105 41.0711 292.384 43.3495C294.314 44.3776 301.996 50.6401 309.445 57.2648C340.643 85.0138 347.94 91.0777 348.373 89.5705C348.618 88.7176 350.489 77.2324 352.547 64.0648C354.605 50.8972 356.757 37.4842 357.318 34.2712C357.891 31.0581 358.686 25.485 359.096 21.8747C360.978 5.47064 374.309 -3.82964 388.306 1.50984C399.064 5.61085 401.496 12.7263 398.83 32.32C395.263 58.6319 394.62 63.6442 392.305 83.3431C391.03 94.2674 389.721 104.386 389.393 105.834C389.078 107.283 389.3 108.463 389.884 108.463C389.943 108.463 390.001 108.451 390.06 108.44C390.025 108.463 389.99 108.487 389.943 108.51C388.411 109.328 387.709 110.917 387.745 113.476C387.791 117.051 387.967 116.899 391.323 110.391C393.264 106.629 394.609 103.311 394.305 102.995ZM392.936 104.993C392.632 105.834 391.978 106.781 391.229 107.528C391.709 106.956 392.27 106.126 392.936 104.993Z" fill="#FF4242"/>
<path d="M394.305 102.995C394.234 102.937 394.153 102.925 394.059 102.96C396.503 98.3333 400.058 90.4935 405.296 78.284C410.406 66.3782 415.516 55.6291 416.627 54.3906C420.72 49.869 427.42 47.4154 434.132 47.9762C444.715 48.8525 452 56.4353 452 66.5885C452 69.7198 451.509 73.1898 450.901 74.2998C449.802 76.3561 442.973 94.7698 437.383 110.8C435.699 115.614 433.852 120.614 433.267 121.9C432.671 123.185 426.859 139.215 420.346 157.535C395.579 227.112 393.884 231.225 383.511 246.986C374.508 260.656 363.913 271.51 342.701 288.791C297.775 325.408 265.279 351.953 262.554 354.255C253.632 361.814 247.657 366.488 245.4 367.668C243.985 368.404 242.407 369.011 241.892 369C240.594 369 234.116 365.576 233.356 364.502C233.028 364.023 224.328 355.844 214.038 346.322C211.21 338.25 215.057 350.576 215.057 345.937C215.057 341.603 213.068 344.736 241.892 319.031L268.914 295.969L229.474 265.073C219.476 254.277 218.189 243.82 225.755 234.835C229.474 230.418 237.951 226.458 243.553 226.516C249.855 226.586 254.205 229.332 265.513 240.315C280.504 254.884 292.911 259.488 310.205 256.941C326.085 254.592 341.193 243.247 348.735 228C352.5 220.394 353.132 217.917 353.529 209.131C353.915 200.87 353.541 197.809 351.506 192.423C348.022 183.181 343.064 176.837 335.65 172.093C316.66 159.954 291.098 162.956 274.797 179.244C267.84 186.195 274.903 173.899 271.652 184.309C268.845 193.329 265.618 197.652 259.479 200.62C248.709 205.831 238.524 202.209 232.841 191.133C229.789 185.186 230.035 181.201 234.198 168.77C242.769 143.171 248.37 142.334 271.652 130.721C283.544 124.797 293.063 122.519 306.054 122.495C311.644 122.495 316.52 122.005 316.882 121.409C317.56 120.322 310.954 113.639 301.026 105.367C285.485 92.3863 265.969 73.8091 264.379 70.4558C259.888 60.992 264.145 48.245 273.394 43.4663C277.896 41.1295 288.105 41.0711 292.384 43.3495C294.314 44.3776 301.996 50.6401 309.445 57.2648C340.643 85.0138 347.94 91.0777 348.373 89.5705C348.618 88.7176 350.489 77.2324 352.547 64.0648C354.605 50.8972 356.757 37.4842 357.318 34.2712C357.891 31.0581 358.686 25.485 359.096 21.8747C360.978 5.47064 374.309 -3.82964 388.306 1.50984C399.064 5.61085 401.496 12.7263 398.83 32.32C395.263 58.6319 394.62 63.6442 392.305 83.3431C391.03 94.2674 389.721 104.386 389.393 105.834C389.078 107.283 389.3 108.463 389.884 108.463C389.943 108.463 390.001 108.451 390.06 108.44C390.025 108.463 389.99 108.487 389.943 108.51C388.411 109.328 387.709 110.917 387.745 113.476C387.791 117.051 387.967 116.899 391.323 110.391C393.264 106.629 394.609 103.311 394.305 102.995ZM392.936 104.993C392.632 105.834 391.978 106.781 391.229 107.528C391.709 106.956 392.27 106.126 392.936 104.993Z" fill="#FF4242"/>
<path d="M248.848 366.671C251.034 365.495 256.823 360.834 265.467 353.295C267.697 351.355 290.522 332.151 323.805 304.212C305.916 314.515 292.273 310.489 271.63 295.167L237.179 322C215.727 337.333 212 341.167 212 341.167C215.726 345 218.465 345.383 218.465 345.383C228.434 354.879 236.862 363.036 237.179 363.514C237.916 364.586 244.192 368 245.449 368C245.948 368.011 247.477 367.406 248.848 366.671Z" fill="#E53030"/>
<g filter="url(#filter0_i_854_4984)">
<rect x="213.575" y="190.173" width="73.7818" height="32.3983" rx="15" transform="rotate(14.7951 213.575 190.173)" fill="white"/>
</g>
<rect x="213.931" y="190.784" width="72.7818" height="31.3983" rx="14.5" transform="rotate(14.7951 213.931 190.784)" stroke="#BFBFBF"/>
<g filter="url(#filter1_i_854_4984)">
<rect x="213.781" y="189.4" width="73.7818" height="32.3983" rx="15" transform="rotate(14.7951 213.781 189.4)" fill="white"/>
</g>
<rect x="214.137" y="190.011" width="72.7818" height="31.3983" rx="14.5" transform="rotate(14.7951 214.137 190.011)" stroke="#BFBFBF"/>
<mask id="mask0_854_4984" style="mask-type:alpha" maskUnits="userSpaceOnUse" x="239" y="192" width="50" height="57">
<rect x="251.165" y="192.82" width="38.7498" height="47.8674" transform="rotate(13.8599 251.165 192.82)" fill="#D9D9D9"/>
</mask>
<g mask="url(#mask0_854_4984)">
<g filter="url(#filter2_i_854_4984)">
<rect x="214.79" y="190.647" width="73.7818" height="32.3983" rx="15" transform="rotate(13.8599 214.79 190.647)" fill="#96D2EE"/>
</g>
<rect x="215.156" y="191.253" width="72.7818" height="31.3983" rx="14.5" transform="rotate(13.8599 215.156 191.253)" stroke="#BFBFBF"/>
</g>
<path d="M66.0796 69.894C102.299 35.7515 159.494 37.7085 193.636 73.9279C228.039 110.424 226.359 167.358 190.139 201.5C176.868 214.011 170.773 220.384 153.751 223.376L211.407 277.189C231.625 298.417 212.291 307.547 203.72 315.627C195.702 323.185 192.841 328.318 184.501 319.47L63.3331 199.37C62.8118 198.817 62.5512 198.541 62.0299 197.988C27.8874 161.768 29.8603 104.037 66.0796 69.894ZM159.646 169.152C177.894 151.95 178.766 122.409 161.564 104.161C144.102 85.6365 114.821 85.0411 96.5733 102.243C78.0489 119.705 76.9163 148.97 94.3785 167.494C111.58 185.742 141.121 186.614 159.646 169.152Z" fill="#96D2EE"/>
<path d="M248.848 366.671C251.034 365.495 256.823 360.834 265.467 353.295C267.697 351.355 290.522 332.151 323.805 304.212C305.916 314.515 292.273 310.489 271.63 295.167L237.179 322C215.727 337.333 212 341.167 212 341.167C215.726 345 218.465 345.383 218.465 345.383C228.434 354.879 236.862 363.036 237.179 363.514C237.916 364.586 244.192 368 245.449 368C245.948 368.011 247.477 367.406 248.848 366.671Z" fill="#E53030"/>
<g filter="url(#filter3_i_854_4984)">
<rect x="213.781" y="189.4" width="73.7818" height="32.3983" rx="15" transform="rotate(14.7951 213.781 189.4)" fill="white"/>
</g>
<rect x="214.137" y="190.011" width="72.7818" height="31.3983" rx="14.5" transform="rotate(14.7951 214.137 190.011)" stroke="#BFBFBF"/>
<mask id="mask1_854_4984" style="mask-type:alpha" maskUnits="userSpaceOnUse" x="239" y="192" width="50" height="57">
<rect x="251.165" y="192.82" width="38.7498" height="47.8674" transform="rotate(13.8599 251.165 192.82)" fill="#D9D9D9"/>
</mask>
<g mask="url(#mask1_854_4984)">
<g filter="url(#filter4_i_854_4984)">
<rect x="214.79" y="190.647" width="73.7818" height="32.3983" rx="15" transform="rotate(13.8599 214.79 190.647)" fill="#96D2EE"/>
</g>
<rect x="215.156" y="191.253" width="72.7818" height="31.3983" rx="14.5" transform="rotate(13.8599 215.156 191.253)" stroke="#BFBFBF"/>
</g>
<defs>
<filter id="filter0_i_854_4984" x="208.631" y="193.502" width="72.95" height="43.5068" filterUnits="userSpaceOnUse" color-interpolation-filters="sRGB">
<feFlood flood-opacity="0" result="BackgroundImageFix"/>
<feBlend mode="normal" in="SourceGraphic" in2="BackgroundImageFix" result="shape"/>
<feColorMatrix in="SourceAlpha" type="matrix" values="0 0 0 0 0 0 0 0 0 0 0 0 0 0 0 0 0 0 127 0" result="hardAlpha"/>
<feMorphology radius="4" operator="dilate" in="SourceAlpha" result="effect1_innerShadow_854_4984"/>
<feOffset dy="8"/>
<feComposite in2="hardAlpha" operator="arithmetic" k2="-1" k3="1"/>
<feColorMatrix type="matrix" values="0 0 0 0 0 0 0 0 0 0 0 0 0 0 0 0 0 0 0.25 0"/>
<feBlend mode="normal" in2="shape" result="effect1_innerShadow_854_4984"/>
</filter>
<filter id="filter1_i_854_4984" x="208.837" y="192.729" width="72.95" height="43.5068" filterUnits="userSpaceOnUse" color-interpolation-filters="sRGB">
<feFlood flood-opacity="0" result="BackgroundImageFix"/>
<feBlend mode="normal" in="SourceGraphic" in2="BackgroundImageFix" result="shape"/>
<feColorMatrix in="SourceAlpha" type="matrix" values="0 0 0 0 0 0 0 0 0 0 0 0 0 0 0 0 0 0 127 0" result="hardAlpha"/>
<feMorphology radius="4" operator="dilate" in="SourceAlpha" result="effect1_innerShadow_854_4984"/>
<feOffset dy="8"/>
<feComposite in2="hardAlpha" operator="arithmetic" k2="-1" k3="1"/>
<feColorMatrix type="matrix" values="0 0 0 0 0 0 0 0 0 0 0 0 0 0 0 0 0 0 0.25 0"/>
<feBlend mode="normal" in2="shape" result="effect1_innerShadow_854_4984"/>
</filter>
<filter id="filter2_i_854_4984" x="210.182" y="193.801" width="73.0886" height="42.8232" filterUnits="userSpaceOnUse" color-interpolation-filters="sRGB">
<feFlood flood-opacity="0" result="BackgroundImageFix"/>
<feBlend mode="normal" in="SourceGraphic" in2="BackgroundImageFix" result="shape"/>
<feColorMatrix in="SourceAlpha" type="matrix" values="0 0 0 0 0 0 0 0 0 0 0 0 0 0 0 0 0 0 127 0" result="hardAlpha"/>
<feMorphology radius="4" operator="dilate" in="SourceAlpha" result="effect1_innerShadow_854_4984"/>
<feOffset dy="8"/>
<feComposite in2="hardAlpha" operator="arithmetic" k2="-1" k3="1"/>
<feColorMatrix type="matrix" values="0 0 0 0 0 0 0 0 0 0 0 0 0 0 0 0 0 0 0.25 0"/>
<feBlend mode="normal" in2="shape" result="effect1_innerShadow_854_4984"/>
</filter>
<filter id="filter3_i_854_4984" x="208.837" y="192.729" width="72.95" height="43.5068" filterUnits="userSpaceOnUse" color-interpolation-filters="sRGB">
<feFlood flood-opacity="0" result="BackgroundImageFix"/>
<feBlend mode="normal" in="SourceGraphic" in2="BackgroundImageFix" result="shape"/>
<feColorMatrix in="SourceAlpha" type="matrix" values="0 0 0 0 0 0 0 0 0 0 0 0 0 0 0 0 0 0 127 0" result="hardAlpha"/>
<feMorphology radius="4" operator="dilate" in="SourceAlpha" result="effect1_innerShadow_854_4984"/>
<feOffset dy="8"/>
<feComposite in2="hardAlpha" operator="arithmetic" k2="-1" k3="1"/>
<feColorMatrix type="matrix" values="0 0 0 0 0 0 0 0 0 0 0 0 0 0 0 0 0 0 0.25 0"/>
<feBlend mode="normal" in2="shape" result="effect1_innerShadow_854_4984"/>
</filter>
<filter id="filter4_i_854_4984" x="210.182" y="193.801" width="73.0886" height="42.8232" filterUnits="userSpaceOnUse" color-interpolation-filters="sRGB">
<feFlood flood-opacity="0" result="BackgroundImageFix"/>
<feBlend mode="normal" in="SourceGraphic" in2="BackgroundImageFix" result="shape"/>
<feColorMatrix in="SourceAlpha" type="matrix" values="0 0 0 0 0 0 0 0 0 0 0 0 0 0 0 0 0 0 127 0" result="hardAlpha"/>
<feMorphology radius="4" operator="dilate" in="SourceAlpha" result="effect1_innerShadow_854_4984"/>
<feOffset dy="8"/>
<feComposite in2="hardAlpha" operator="arithmetic" k2="-1" k3="1"/>
<feColorMatrix type="matrix" values="0 0 0 0 0 0 0 0 0 0 0 0 0 0 0 0 0 0 0.25 0"/>
<feBlend mode="normal" in2="shape" result="effect1_innerShadow_854_4984"/>
</filter>
</defs>
</svg>
