<svg width="24" height="24" viewBox="0 0 24 24" fill="none" xmlns="http://www.w3.org/2000/svg">
<mask id="mask0_359_2188" style="mask-type:alpha" maskUnits="userSpaceOnUse" x="0" y="0" width="24" height="24">
<rect width="24" height="24" fill="#D9D9D9"/>
</mask>
<g mask="url(#mask0_359_2188)">
<path d="M4.00019 17.9998V7.09983L2.45019 3.74983C2.33352 3.49983 2.32519 3.24567 2.42519 2.98733C2.52519 2.729 2.70019 2.5415 2.95019 2.42483C3.20019 2.30817 3.45435 2.29567 3.71269 2.38733C3.97102 2.479 4.15852 2.64983 4.27519 2.89983L6.20019 7.04983H17.8002L19.7252 2.89983C19.8419 2.64983 20.0294 2.47483 20.2877 2.37483C20.546 2.27483 20.8002 2.2915 21.0502 2.42483C21.3002 2.5415 21.4752 2.729 21.5752 2.98733C21.6752 3.24567 21.6669 3.49983 21.5502 3.74983L20.0002 7.09983V17.9998C20.0002 18.5498 19.8044 19.0207 19.4127 19.4123C19.021 19.804 18.5502 19.9998 18.0002 19.9998H6.00019C5.45019 19.9998 4.97935 19.804 4.58769 19.4123C4.19602 19.0207 4.00019 18.5498 4.00019 17.9998ZM10.0002 12.9998H14.0002C14.2835 12.9998 14.521 12.904 14.7127 12.7123C14.9044 12.5207 15.0002 12.2832 15.0002 11.9998C15.0002 11.7165 14.9044 11.479 14.7127 11.2873C14.521 11.0957 14.2835 10.9998 14.0002 10.9998H10.0002C9.71685 10.9998 9.47935 11.0957 9.28769 11.2873C9.09602 11.479 9.00019 11.7165 9.00019 11.9998C9.00019 12.2832 9.09602 12.5207 9.28769 12.7123C9.47935 12.904 9.71685 12.9998 10.0002 12.9998ZM6.00019 17.9998H18.0002V9.04983H6.00019V17.9998Z" fill="#48AAD9"/>
</g>
</svg>
