<svg width="24" height="24" viewBox="0 0 24 24" fill="none" xmlns="http://www.w3.org/2000/svg">
<mask id="mask0_361_2541" style="mask-type:alpha" maskUnits="userSpaceOnUse" x="0" y="0" width="24" height="24">
<rect width="24" height="24" fill="#D9D9D9"/>
</mask>
<g mask="url(#mask0_361_2541)">
<path d="M4.00019 18V7.09995L2.45019 3.74995C2.33352 3.49995 2.32519 3.24579 2.42519 2.98745C2.52519 2.72912 2.70019 2.54162 2.95019 2.42495C3.20019 2.30829 3.45435 2.29579 3.71269 2.38745C3.97102 2.47912 4.15852 2.64995 4.27519 2.89995L6.20019 7.04995H17.8002L19.7252 2.89995C19.8419 2.64995 20.0294 2.47495 20.2877 2.37495C20.546 2.27495 20.8002 2.29162 21.0502 2.42495C21.3002 2.54162 21.4752 2.72912 21.5752 2.98745C21.6752 3.24579 21.6669 3.49995 21.5502 3.74995L20.0002 7.09995V18C20.0002 18.55 19.8044 19.0208 19.4127 19.4125C19.021 19.8041 18.5502 20 18.0002 20H6.00019C5.45019 20 4.97935 19.8041 4.58769 19.4125C4.19602 19.0208 4.00019 18.55 4.00019 18ZM10.0002 13H14.0002C14.2835 13 14.521 12.9041 14.7127 12.7125C14.9044 12.5208 15.0002 12.2833 15.0002 12C15.0002 11.7166 14.9044 11.4791 14.7127 11.2875C14.521 11.0958 14.2835 11 14.0002 11H10.0002C9.71685 11 9.47935 11.0958 9.28769 11.2875C9.09602 11.4791 9.00019 11.7166 9.00019 12C9.00019 12.2833 9.09602 12.5208 9.28769 12.7125C9.47935 12.9041 9.71685 13 10.0002 13Z" fill="white"/>
</g>
</svg>
