<svg width="46" height="46" viewBox="0 0 46 46" fill="none" xmlns="http://www.w3.org/2000/svg">
<mask id="mask0_1341_9182" style="mask-type:alpha" maskUnits="userSpaceOnUse" x="0" y="0" width="46" height="46">
<rect width="46" height="46" fill="#D9D9D9"/>
</mask>
<g mask="url(#mask0_1341_9182)">
<path d="M22.9993 38.1414C26.3216 37.0873 29.0688 34.9789 31.241 31.8164C33.4132 28.6539 34.4993 25.1401 34.4993 21.2748V12.2185L22.9993 7.90602L11.4993 12.2185V21.2748C11.4993 25.1401 12.5855 28.6539 14.7577 31.8164C16.9299 34.9789 19.6771 37.0873 22.9993 38.1414ZM24.4129 31.9841C24.8122 31.5848 25.0118 31.1137 25.0118 30.5706C25.0118 30.0276 24.8122 29.5564 24.4129 29.1571C24.0136 28.7578 23.5424 28.5581 22.9993 28.5581C22.4563 28.5581 21.9851 28.7578 21.5858 29.1571C21.1865 29.5564 20.9868 30.0276 20.9868 30.5706C20.9868 31.1137 21.1865 31.5848 21.5858 31.9841C21.9851 32.3835 22.4563 32.5831 22.9993 32.5831C23.5424 32.5831 24.0136 32.3835 24.4129 31.9841ZM23.0473 26.6414C23.4306 26.6414 23.774 26.4977 24.0775 26.2102C24.3809 25.9227 24.5327 25.5873 24.5327 25.2039C24.5646 24.9803 24.6125 24.7647 24.6764 24.5571C24.7403 24.3494 24.8362 24.1498 24.9639 23.9581C25.1875 23.6387 25.4351 23.3512 25.7066 23.0956C25.9782 22.8401 26.2417 22.5845 26.4973 22.3289C27.0403 21.7859 27.5115 21.1789 27.9108 20.5081C28.3101 19.8373 28.5098 19.1026 28.5098 18.3039C28.5098 16.8664 27.9587 15.6925 26.8566 14.7821C25.7546 13.8716 24.4688 13.4164 22.9993 13.4164C21.9771 13.4164 21.0348 13.656 20.1723 14.1352C19.3098 14.6144 18.623 15.2852 18.1118 16.1477C17.9202 16.4991 17.8962 16.8505 18.04 17.2019C18.1837 17.5532 18.4473 17.8088 18.8306 17.9685C19.182 18.1282 19.5334 18.1203 19.8848 17.9446C20.2362 17.7689 20.5396 17.5373 20.7952 17.2498C21.0827 16.8984 21.4101 16.6348 21.7775 16.4591C22.1448 16.2835 22.5521 16.1956 22.9993 16.1956C23.7021 16.1956 24.3171 16.4032 24.8441 16.8185C25.3712 17.2338 25.6348 17.7609 25.6348 18.3998C25.6348 18.9428 25.4671 19.446 25.1316 19.9091C24.7962 20.3723 24.4209 20.7956 24.0056 21.1789C23.6542 21.5303 23.3028 21.8737 22.9514 22.2091C22.6 22.5446 22.2966 22.9199 22.041 23.3352C21.8813 23.5907 21.7695 23.8782 21.7056 24.1977C21.6417 24.5171 21.6098 24.8366 21.6098 25.156C21.6098 25.5713 21.7455 25.9227 22.0171 26.2102C22.2886 26.4977 22.632 26.6414 23.0473 26.6414ZM22.3764 41.9269C22.1848 41.8949 21.9931 41.847 21.8014 41.7831C17.4889 40.3456 14.0549 37.6862 11.4993 33.805C8.94379 29.9237 7.66602 25.747 7.66602 21.2748V12.2185C7.66602 11.4199 7.89761 10.7012 8.36081 10.0623C8.824 9.42338 9.42296 8.96019 10.1577 8.67269L21.6577 4.36019C22.1049 4.20047 22.5521 4.12061 22.9993 4.12061C23.4466 4.12061 23.8938 4.20047 24.341 4.36019L35.841 8.67269C36.5757 8.96019 37.1747 9.42338 37.6379 10.0623C38.1011 10.7012 38.3327 11.4199 38.3327 12.2185V21.2748C38.3327 25.747 37.0549 29.9237 34.4993 33.805C31.9438 37.6862 28.5098 40.3456 24.1973 41.7831C24.0056 41.847 23.8139 41.8949 23.6223 41.9269C23.4306 41.9588 23.223 41.9748 22.9993 41.9748C22.7757 41.9748 22.5681 41.9588 22.3764 41.9269Z" fill="#EBC106"/>
</g>
</svg>
