<svg width="88" height="88" viewBox="0 0 88 88" fill="none" xmlns="http://www.w3.org/2000/svg">
<mask id="mask0_746_4711" style="mask-type:alpha" maskUnits="userSpaceOnUse" x="0" y="0" width="88" height="88">
<rect width="88" height="88" fill="#D9D9D9"/>
</mask>
<g mask="url(#mask0_746_4711)">
<path d="M44.0006 80.6668C38.9284 80.6668 34.1618 79.7043 29.7006 77.7793C25.2395 75.8543 21.359 73.2418 18.059 69.9418C14.759 66.6418 12.1465 62.7613 10.2215 58.3002C8.29648 53.8391 7.33398 49.0724 7.33398 44.0002C7.33398 38.9279 8.29648 34.1613 10.2215 29.7002C12.1465 25.239 14.759 21.3585 18.059 18.0585C21.359 14.7585 25.2395 12.146 29.7006 10.221C34.1618 8.296 38.9284 7.3335 44.0006 7.3335C46.934 7.3335 49.7909 7.66961 52.5715 8.34183C55.352 9.01405 58.0257 9.99183 60.5923 11.2752C61.509 11.7641 62.1048 12.4974 62.3798 13.4752C62.6548 14.4529 62.4868 15.3696 61.8756 16.2252C61.2645 17.0807 60.4548 17.6307 59.4465 17.8752C58.4382 18.1196 57.4451 17.9974 56.4673 17.5085C54.5118 16.5918 52.4798 15.8891 50.3715 15.4002C48.2631 14.9113 46.1395 14.6668 44.0006 14.6668C35.8729 14.6668 28.952 17.5238 23.2382 23.2377C17.5243 28.9516 14.6673 35.8724 14.6673 44.0002C14.6673 52.1279 17.5243 59.0488 23.2382 64.7627C28.952 70.4766 35.8729 73.3335 44.0006 73.3335C52.1284 73.3335 59.0493 70.4766 64.7631 64.7627C70.477 59.0488 73.334 52.1279 73.334 44.0002C73.334 43.5113 73.3187 43.0377 73.2882 42.5793C73.2576 42.121 73.2118 41.6474 73.1507 41.1585C73.0284 40.1196 73.227 39.1266 73.7465 38.1793C74.2659 37.2321 75.0451 36.6057 76.084 36.3002C77.0618 35.9946 77.9784 36.0863 78.834 36.5752C79.6895 37.0641 80.1784 37.7974 80.3006 38.7752C80.4229 39.6307 80.5145 40.4863 80.5757 41.3418C80.6368 42.1974 80.6673 43.0835 80.6673 44.0002C80.6673 49.0724 79.7048 53.8391 77.7798 58.3002C75.8548 62.7613 73.2423 66.6418 69.9423 69.9418C66.6423 73.2418 62.7618 75.8543 58.3007 77.7793C53.8395 79.7043 49.0729 80.6668 44.0006 80.6668ZM38.8673 50.6002L72.9673 16.4085C73.6395 15.7363 74.4798 15.3849 75.4881 15.3543C76.4965 15.3238 77.3673 15.6752 78.1007 16.4085C78.7729 17.0807 79.109 17.9363 79.109 18.9752C79.109 20.0141 78.7729 20.8696 78.1007 21.5418L41.434 58.3002C40.7006 59.0335 39.8451 59.4002 38.8673 59.4002C37.8895 59.4002 37.034 59.0335 36.3006 58.3002L25.8507 47.8502C25.1784 47.1779 24.8423 46.3224 24.8423 45.2835C24.8423 44.2446 25.1784 43.3891 25.8507 42.7168C26.5229 42.0446 27.3784 41.7085 28.4173 41.7085C29.4562 41.7085 30.3118 42.0446 30.984 42.7168L38.8673 50.6002Z" fill="#60B17E"/>
</g>
</svg>
