<svg width="85" height="85" viewBox="0 0 85 85" fill="none" xmlns="http://www.w3.org/2000/svg">
<mask id="mask0_746_4720" style="mask-type:alpha" maskUnits="userSpaceOnUse" x="0" y="0" width="85" height="85">
<rect width="85" height="85" fill="#D9D9D9"/>
</mask>
<g mask="url(#mask0_746_4720)">
<path d="M42.5006 47.4585L52.7715 57.7293C53.4208 58.3786 54.2472 58.7033 55.2506 58.7033C56.2541 58.7033 57.0805 58.3786 57.7298 57.7293C58.3791 57.08 58.7038 56.2536 58.7038 55.2502C58.7038 54.2467 58.3791 53.4203 57.7298 52.771L47.459 42.5002L57.7298 32.2293C58.3791 31.58 58.7038 30.7536 58.7038 29.7502C58.7038 28.7467 58.3791 27.9203 57.7298 27.271C57.0805 26.6217 56.2541 26.297 55.2506 26.297C54.2472 26.297 53.4208 26.6217 52.7715 27.271L42.5006 37.5418L32.2298 27.271C31.5805 26.6217 30.7541 26.297 29.7507 26.297C28.7472 26.297 27.9208 26.6217 27.2715 27.271C26.6222 27.9203 26.2975 28.7467 26.2975 29.7502C26.2975 30.7536 26.6222 31.58 27.2715 32.2293L37.5423 42.5002L27.2715 52.771C26.6222 53.4203 26.2975 54.2467 26.2975 55.2502C26.2975 56.2536 26.6222 57.08 27.2715 57.7293C27.9208 58.3786 28.7472 58.7033 29.7507 58.7033C30.7541 58.7033 31.5805 58.3786 32.2298 57.7293L42.5006 47.4585ZM42.5006 77.9168C37.6013 77.9168 32.9972 76.9871 28.6882 75.1278C24.3791 73.2684 20.6309 70.745 17.4434 67.5575C14.2559 64.37 11.7324 60.6217 9.87305 56.3127C8.01367 52.0036 7.08398 47.3995 7.08398 42.5002C7.08398 37.6009 8.01367 32.9967 9.87305 28.6877C11.7324 24.3786 14.2559 20.6304 17.4434 17.4429C20.6309 14.2554 24.3791 11.7319 28.6882 9.87256C32.9972 8.01318 37.6013 7.0835 42.5006 7.0835C47.4 7.0835 52.0041 8.01318 56.3132 9.87256C60.6222 11.7319 64.3704 14.2554 67.5579 17.4429C70.7454 20.6304 73.2689 24.3786 75.1283 28.6877C76.9876 32.9967 77.9173 37.6009 77.9173 42.5002C77.9173 47.3995 76.9876 52.0036 75.1283 56.3127C73.2689 60.6217 70.7454 64.37 67.5579 67.5575C64.3704 70.745 60.6222 73.2684 56.3132 75.1278C52.0041 76.9871 47.4 77.9168 42.5006 77.9168ZM42.5006 70.8335C50.4104 70.8335 57.11 68.0887 62.5996 62.5991C68.0892 57.1095 70.834 50.4099 70.834 42.5002C70.834 34.5904 68.0892 27.8908 62.5996 22.4012C57.11 16.9116 50.4104 14.1668 42.5006 14.1668C34.5909 14.1668 27.8913 16.9116 22.4017 22.4012C16.9121 27.8908 14.1673 34.5904 14.1673 42.5002C14.1673 50.4099 16.9121 57.1095 22.4017 62.5991C27.8913 68.0887 34.5909 70.8335 42.5006 70.8335Z" fill="#FF4242"/>
</g>
</svg>
