<svg width="24" height="24" viewBox="0 0 24 24" fill="none" xmlns="http://www.w3.org/2000/svg">
<mask id="mask0_2012_9765" style="mask-type:alpha" maskUnits="userSpaceOnUse" x="0" y="0" width="24" height="24">
<rect width="24" height="24" fill="#D9D9D9"/>
</mask>
<g mask="url(#mask0_2012_9765)">
<path d="M16.467 18.2093H14.6631C14.4076 18.2093 14.1934 18.1236 14.0205 17.9521C13.8477 17.7806 13.7612 17.5681 13.7612 17.3146C13.7612 17.0611 13.8477 16.8486 14.0205 16.6771C14.1934 16.5056 14.4076 16.4199 14.6631 16.4199H16.467V14.6304C16.467 14.3769 16.5534 14.1644 16.7263 13.9929C16.8991 13.8214 17.1134 13.7357 17.3689 13.7357C17.6244 13.7357 17.8386 13.8214 18.0115 13.9929C18.1844 14.1644 18.2708 14.3769 18.2708 14.6304V16.4199H20.0746C20.3302 16.4199 20.5444 16.5056 20.7173 16.6771C20.8901 16.8486 20.9766 17.0611 20.9766 17.3146C20.9766 17.5681 20.8901 17.7806 20.7173 17.9521C20.5444 18.1236 20.3302 18.2093 20.0746 18.2093H18.2708V19.9988C18.2708 20.2523 18.1844 20.4648 18.0115 20.6363C17.8386 20.8078 17.6244 20.8936 17.3689 20.8936C17.1134 20.8936 16.8991 20.8078 16.7263 20.6363C16.5534 20.4648 16.467 20.2523 16.467 19.9988V18.2093ZM2.93823 18.2093C2.68269 18.2093 2.46848 18.1236 2.29562 17.9521C2.12275 17.7806 2.03631 17.5681 2.03631 17.3146V12.8409H1.87848C1.59287 12.8409 1.35988 12.7328 1.17949 12.5166C0.99911 12.3004 0.938983 12.0506 0.99911 11.7672L1.90103 7.29355C1.94612 7.08478 2.05135 6.91329 2.2167 6.77908C2.38205 6.64487 2.56995 6.57777 2.7804 6.57777H14.821C15.0314 6.57777 15.2193 6.64487 15.3847 6.77908C15.55 6.91329 15.6553 7.08478 15.7003 7.29355L16.6023 11.7672C16.6624 12.0506 16.6023 12.3004 16.4219 12.5166C16.2415 12.7328 16.0085 12.8409 15.7229 12.8409H15.5651V14.6304C15.5651 14.8839 15.4786 15.0964 15.3058 15.2679C15.1329 15.4394 14.9187 15.5251 14.6631 15.5251C14.4076 15.5251 14.1934 15.4394 14.0205 15.2679C13.8477 15.0964 13.7612 14.8839 13.7612 14.6304V12.8409H10.1536V17.3146C10.1536 17.5681 10.0671 17.7806 9.89426 17.9521C9.72139 18.1236 9.50719 18.2093 9.25165 18.2093H2.93823ZM3.84015 16.4199H8.34973V12.8409H3.84015V16.4199ZM2.93823 5.68303C2.68269 5.68303 2.46848 5.59728 2.29562 5.42579C2.12275 5.2543 2.03631 5.0418 2.03631 4.78829C2.03631 4.53478 2.12275 4.32228 2.29562 4.15079C2.46848 3.9793 2.68269 3.89355 2.93823 3.89355H14.6631C14.9187 3.89355 15.1329 3.9793 15.3058 4.15079C15.4786 4.32228 15.5651 4.53478 15.5651 4.78829C15.5651 5.0418 15.4786 5.2543 15.3058 5.42579C15.1329 5.59728 14.9187 5.68303 14.6631 5.68303H2.93823ZM2.98333 11.0514H14.618L14.0769 8.36724H3.52448L2.98333 11.0514Z" fill="#48AAD9"/>
</g>
</svg>
