<svg width="123" height="121" viewBox="0 0 123 121" fill="none" xmlns="http://www.w3.org/2000/svg">
<mask id="mask0_696_4559" style="mask-type:alpha" maskUnits="userSpaceOnUse" x="0" y="0" width="123" height="121">
<rect width="123" height="121" fill="#D9D9D9" fill-opacity="0.66"/>
</mask>
<g mask="url(#mask0_696_4559)">
<path d="M57.5417 91.675C53.6528 95.575 48.9375 97.525 43.3958 97.525C37.8542 97.525 33.1389 95.575 29.25 91.675C25.3611 87.775 23.4167 83.0706 23.4167 77.5619C23.4167 72.0531 25.3611 67.3487 29.25 63.4487L53.4583 39.025C57.3472 35.125 62.0625 33.175 67.6042 33.175C73.1458 33.175 77.8611 35.125 81.75 39.025C85.6389 42.925 87.5833 47.6294 87.5833 53.1381C87.5833 58.6469 85.6389 63.3512 81.75 67.2513L57.5417 91.675ZM37.4167 83.3387C39.6528 85.5812 41.9618 86.3856 44.3438 85.7519C46.7257 85.1181 48.3542 84.3625 49.2292 83.485L57.25 75.295L45.5833 63.595L37.4167 71.6387C35.7639 73.2962 34.9375 75.2462 34.9375 77.4887C34.9375 79.7312 35.7639 81.6812 37.4167 83.3387ZM73.5833 47.3613C71.3472 45.1188 69.0382 44.3144 66.6563 44.9481C64.2743 45.5819 62.6458 46.3375 61.7708 47.215L53.75 55.405L65.4167 67.105L73.5833 59.0612C75.2361 57.4038 76.0625 55.4538 76.0625 53.2113C76.0625 50.9688 75.2361 49.0187 73.5833 47.3613ZM14.6667 118C11.4583 118 8.71181 116.854 6.42708 114.563C4.14236 112.272 3 109.518 3 106.3V24.4C3 21.1825 4.14236 18.4281 6.42708 16.1369C8.71181 13.8456 11.4583 12.7 14.6667 12.7H39.1667C40.4306 9.19 42.5451 6.3625 45.5104 4.2175C48.4757 2.0725 51.8056 1 55.5 1C59.1944 1 62.5243 2.0725 65.4896 4.2175C68.4549 6.3625 70.5695 9.19 71.8333 12.7H96.3333C99.5417 12.7 102.288 13.8456 104.573 16.1369C106.858 18.4281 108 21.1825 108 24.4V106.3C108 109.518 106.858 112.272 104.573 114.563C102.288 116.854 99.5417 118 96.3333 118H14.6667ZM14.6667 106.3H96.3333V24.4H14.6667V106.3ZM58.6354 18.7694C59.4618 17.9406 59.875 16.8925 59.875 15.625C59.875 14.3575 59.4618 13.3094 58.6354 12.4806C57.809 11.6519 56.7639 11.2375 55.5 11.2375C54.2361 11.2375 53.191 11.6519 52.3646 12.4806C51.5382 13.3094 51.125 14.3575 51.125 15.625C51.125 16.8925 51.5382 17.9406 52.3646 18.7694C53.191 19.5981 54.2361 20.0125 55.5 20.0125C56.7639 20.0125 57.809 19.5981 58.6354 18.7694Z" fill="#D9D9D9" fill-opacity="0.66"/>
</g>
</svg>
