<svg width="37" height="36" viewBox="0 0 37 36" fill="none" xmlns="http://www.w3.org/2000/svg">
<path fill-rule="evenodd" clip-rule="evenodd" d="M14.1582 6.96774C14.9707 6.96774 15.6921 7.50083 15.949 8.29117L18.7182 16.8086L27.0255 19.6477C27.7964 19.9112 28.3163 20.6508 28.3163 21.4839C28.3163 22.317 27.7964 23.0566 27.0255 23.32L18.7182 26.1592L15.949 34.6766C15.6921 35.4669 14.9707 36 14.1582 36C13.3456 36 12.6242 35.4669 12.3673 34.6766L9.59816 26.1592L1.29079 23.32C0.519945 23.0566 0 22.317 0 21.4839C0 20.6508 0.519945 19.9112 1.29079 19.6477L9.59816 16.8086L12.3673 8.29117C12.6242 7.50083 13.3456 6.96774 14.1582 6.96774ZM14.1582 15.0238L12.8814 18.9508C12.6935 19.5287 12.2512 19.9822 11.6875 20.1749L7.85736 21.4839L11.6875 22.7929C12.2512 22.9855 12.6935 23.439 12.8814 24.017L14.1582 27.944L15.4349 24.017C15.6228 23.439 16.0651 22.9855 16.6288 22.7929L20.459 21.4839L16.6288 20.1749C16.0651 19.9822 15.6228 19.5287 15.4349 18.9508L14.1582 15.0238Z" fill="#48AAD9"/>
<path fill-rule="evenodd" clip-rule="evenodd" d="M29.2602 0C29.7477 0 30.1806 0.319854 30.3347 0.794058L31.8074 5.32385L36.2255 6.83379C36.688 6.99185 37 7.43563 37 7.93548C37 8.43534 36.688 8.87911 36.2255 9.03718L31.8074 10.5471L30.3347 15.0769C30.1806 15.5511 29.7477 15.871 29.2602 15.871C28.7727 15.871 28.3398 15.5511 28.1857 15.0769L26.713 10.5471L22.2949 9.03718C21.8324 8.87911 21.5204 8.43534 21.5204 7.93548C21.5204 7.43563 21.8324 6.99185 22.2949 6.83379L26.713 5.32385L28.1857 0.794058C28.3398 0.319854 28.7727 0 29.2602 0Z" fill="#48AAD9"/>
</svg>
