<svg width="24" height="24" viewBox="0 0 24 24" fill="none" xmlns="http://www.w3.org/2000/svg">
<mask id="mask0_363_3208" style="mask-type:alpha" maskUnits="userSpaceOnUse" x="0" y="0" width="24" height="24">
<rect width="24" height="24" fill="#D9D9D9"/>
</mask>
<g mask="url(#mask0_363_3208)">
<path d="M5 21C4.45 21 3.97917 20.8042 3.5875 20.4125C3.19583 20.0208 3 19.55 3 19V5C3 4.45 3.19583 3.97917 3.5875 3.5875C3.97917 3.19583 4.45 3 5 3H19C19.55 3 20.0208 3.19583 20.4125 3.5875C20.8042 3.97917 21 4.45 21 5V19C21 19.55 20.8042 20.0208 20.4125 20.4125C20.0208 20.8042 19.55 21 19 21H5ZM17.275 19H19V17.275L17.275 19ZM5.85 19H7.675L10.675 16H12.8L9.8 19H11.4L14.4 16H16.525L13.525 19H15.15L18.15 16H19V5H5V17.725L6.725 16H8.85L5.85 19ZM10.675 11L8.35 13.3C8.16667 13.4833 7.9375 13.5792 7.6625 13.5875C7.3875 13.5958 7.15 13.5 6.95 13.3C6.76667 13.1167 6.675 12.8833 6.675 12.6C6.675 12.3167 6.76667 12.0833 6.95 11.9L9.975 8.875C10.175 8.675 10.4083 8.575 10.675 8.575C10.9417 8.575 11.175 8.675 11.375 8.875L12.675 10.175L15.65 7.2C15.8333 7.01667 16.0625 6.92083 16.3375 6.9125C16.6125 6.90417 16.85 7 17.05 7.2C17.2333 7.38333 17.325 7.61667 17.325 7.9C17.325 8.18333 17.2333 8.41667 17.05 8.6L13.375 12.3C13.175 12.5 12.9417 12.6 12.675 12.6C12.4083 12.6 12.175 12.5 11.975 12.3L10.675 11Z" fill="#48AAD9"/>
</g>
</svg>
