<svg width="18" height="18" viewBox="0 0 18 18" fill="none" xmlns="http://www.w3.org/2000/svg">
<mask id="mask0_363_3042" style="mask-type:alpha" maskUnits="userSpaceOnUse" x="0" y="0" width="18" height="18">
<rect width="18" height="18" fill="#D9D9D9"/>
</mask>
<g mask="url(#mask0_363_3042)">
<path d="M2.25 15.75C2.0375 15.75 1.85938 15.6781 1.71562 15.5344C1.57187 15.3906 1.5 15.2125 1.5 15C1.5 14.7875 1.57187 14.6094 1.71562 14.4656C1.85938 14.3219 2.0375 14.25 2.25 14.25H15.75C15.9625 14.25 16.1406 14.3219 16.2844 14.4656C16.4281 14.6094 16.5 14.7875 16.5 15C16.5 15.2125 16.4281 15.3906 16.2844 15.5344C16.1406 15.6781 15.9625 15.75 15.75 15.75H2.25ZM2.57812 13.1719C2.35938 12.9531 2.25 12.6875 2.25 12.375V9.375C2.25 9.0625 2.35938 8.79688 2.57812 8.57812C2.79688 8.35938 3.0625 8.25 3.375 8.25C3.6875 8.25 3.95312 8.35938 4.17188 8.57812C4.39062 8.79688 4.5 9.0625 4.5 9.375V12.375C4.5 12.6875 4.39062 12.9531 4.17188 13.1719C3.95312 13.3906 3.6875 13.5 3.375 13.5C3.0625 13.5 2.79688 13.3906 2.57812 13.1719ZM6.32812 13.1719C6.10938 12.9531 6 12.6875 6 12.375V5.625C6 5.3125 6.10938 5.04688 6.32812 4.82812C6.54688 4.60938 6.8125 4.5 7.125 4.5C7.4375 4.5 7.70312 4.60938 7.92188 4.82812C8.14062 5.04688 8.25 5.3125 8.25 5.625V12.375C8.25 12.6875 8.14062 12.9531 7.92188 13.1719C7.70312 13.3906 7.4375 13.5 7.125 13.5C6.8125 13.5 6.54688 13.3906 6.32812 13.1719ZM10.0781 13.1719C9.85938 12.9531 9.75 12.6875 9.75 12.375V7.875C9.75 7.5625 9.85938 7.29688 10.0781 7.07812C10.2969 6.85938 10.5625 6.75 10.875 6.75C11.1875 6.75 11.4531 6.85938 11.6719 7.07812C11.8906 7.29688 12 7.5625 12 7.875V12.375C12 12.6875 11.8906 12.9531 11.6719 13.1719C11.4531 13.3906 11.1875 13.5 10.875 13.5C10.5625 13.5 10.2969 13.3906 10.0781 13.1719ZM13.8281 13.1719C13.6094 12.9531 13.5 12.6875 13.5 12.375V3.375C13.5 3.0625 13.6094 2.79688 13.8281 2.57812C14.0469 2.35937 14.3125 2.25 14.625 2.25C14.9375 2.25 15.2031 2.35937 15.4219 2.57812C15.6406 2.79688 15.75 3.0625 15.75 3.375V12.375C15.75 12.6875 15.6406 12.9531 15.4219 13.1719C15.2031 13.3906 14.9375 13.5 14.625 13.5C14.3125 13.5 14.0469 13.3906 13.8281 13.1719Z" fill="#48AAD9"/>
</g>
</svg>
