<svg width="20" height="21" viewBox="0 0 20 21" fill="none" xmlns="http://www.w3.org/2000/svg">
<mask id="mask0_363_3134" style="mask-type:alpha" maskUnits="userSpaceOnUse" x="-2" y="-2" width="25" height="25">
<rect x="-1.76904" y="-1.84082" width="24" height="24" fill="#D9D9D9"/>
</mask>
<g mask="url(#mask0_363_3134)">
<mask id="mask1_363_3134" style="mask-type:alpha" maskUnits="userSpaceOnUse" x="-2" y="-2" width="25" height="25">
<rect x="-1.34766" y="-1.4165" width="24" height="24" fill="#D9D9D9"/>
</mask>
<g mask="url(#mask1_363_3134)">
<path d="M0.402381 11.9836C0.185714 11.8336 0.0565476 11.6295 0.014881 11.3711C-0.0267857 11.1128 0.0190476 10.867 0.152381 10.6336L3.20238 5.73362C3.56905 5.15029 4.08988 4.83779 4.76488 4.79612C5.43988 4.75445 5.99405 4.99195 6.42738 5.50862L7.65238 6.93362L10.0274 3.08362C10.4107 2.45029 10.9649 2.12945 11.6899 2.12112C12.4149 2.11279 12.9774 2.41695 13.3774 3.03362L14.6524 4.93362L17.4524 0.483621C17.6024 0.233621 17.8232 0.079454 18.1149 0.0211207C18.4065 -0.0372126 18.669 0.0252874 18.9024 0.208621C19.119 0.358621 19.2482 0.562787 19.2899 0.821121C19.3315 1.07945 19.2857 1.32529 19.1524 1.55862L16.3524 6.00862C15.969 6.62529 15.4149 6.93362 14.6899 6.93362C13.9649 6.93362 13.4024 6.63362 13.0024 6.03362L11.7274 4.13362L9.35238 7.98362C9.00238 8.56695 8.48988 8.88362 7.81488 8.93362C7.13988 8.98362 6.58571 8.75029 6.15238 8.23362L4.90238 6.78362L1.85238 11.7086C1.70238 11.9586 1.48155 12.1128 1.18988 12.1711C0.898214 12.2295 0.635714 12.167 0.402381 11.9836ZM13.1524 16.5836C13.8524 16.5836 14.444 16.342 14.9274 15.8586C15.4107 15.3753 15.6524 14.7836 15.6524 14.0836C15.6524 13.3836 15.4107 12.792 14.9274 12.3086C14.444 11.8253 13.8524 11.5836 13.1524 11.5836C12.4524 11.5836 11.8607 11.8253 11.3774 12.3086C10.894 12.792 10.6524 13.3836 10.6524 14.0836C10.6524 14.7836 10.894 15.3753 11.3774 15.8586C11.8607 16.342 12.4524 16.5836 13.1524 16.5836ZM13.1524 18.5836C11.9024 18.5836 10.8399 18.1461 9.96488 17.2711C9.08988 16.3961 8.65238 15.3336 8.65238 14.0836C8.65238 12.8336 9.08988 11.7711 9.96488 10.8961C10.8399 10.0211 11.9024 9.58362 13.1524 9.58362C14.4024 9.58362 15.4649 10.0211 16.3399 10.8961C17.2149 11.7711 17.6524 12.8336 17.6524 14.0836C17.6524 14.517 17.594 14.9378 17.4774 15.3461C17.3607 15.7545 17.1857 16.1336 16.9524 16.4836L18.9524 18.4836C19.1357 18.667 19.2274 18.9003 19.2274 19.1836C19.2274 19.467 19.1357 19.7003 18.9524 19.8836C18.769 20.067 18.5357 20.1586 18.2524 20.1586C17.969 20.1586 17.7357 20.067 17.5524 19.8836L15.5524 17.8836C15.2024 18.117 14.8232 18.292 14.4149 18.4086C14.0065 18.5253 13.5857 18.5836 13.1524 18.5836Z" fill="#48AAD9"/>
</g>
</g>
</svg>
