<svg width="66" height="66" viewBox="0 0 66 66" fill="none" xmlns="http://www.w3.org/2000/svg">
<circle cx="33" cy="33" r="32.5" fill="white" stroke="#D9D9D9"/>
<path d="M11.5619 20.4697C16.0441 16.2446 23.122 16.4867 27.3471 20.9689C31.6045 25.4853 31.3966 32.5309 26.9144 36.7561C25.2721 38.3042 24.5178 39.093 22.4113 39.4632L29.5463 46.1226C32.0482 48.7495 29.6556 49.8794 28.595 50.8793C27.6027 51.8146 27.2487 52.4498 26.2166 51.355L11.222 36.4925C11.1575 36.424 11.1253 36.3898 11.0608 36.3214C6.8356 31.8392 7.07975 24.6949 11.5619 20.4697ZM23.1408 32.7529C25.399 30.6242 25.5069 26.9685 23.3782 24.7103C21.2172 22.4179 17.5937 22.3442 15.3355 24.4729C13.0431 26.6338 12.903 30.2554 15.0639 32.5478C17.1926 34.806 20.8484 34.9139 23.1408 32.7529Z" fill="#96D2EE"/>
<path d="M52.1853 24.6195C52.2229 24.6585 52.0566 25.0692 51.8166 25.5347C51.4016 26.3401 51.38 26.3589 51.3742 25.9164C51.3698 25.5998 51.4566 25.4032 51.646 25.3019C51.8007 25.2195 51.9684 25.0171 52.0205 24.8523C52.074 24.686 52.1477 24.5819 52.1853 24.6195Z" fill="#FF4242"/>
<path d="M52.1854 24.6203C52.1768 24.6131 52.1667 24.6116 52.1551 24.616C52.4573 24.0434 52.8968 23.0732 53.5446 21.5623C54.1764 20.0889 54.8083 18.7587 54.9456 18.6054C55.4517 18.0459 56.2802 17.7422 57.1101 17.8116C58.4187 17.9201 59.3194 18.8585 59.3194 20.1149C59.3194 20.5024 59.2587 20.9319 59.1835 21.0692C59.0476 21.3237 58.2032 23.6024 57.5121 25.5862C57.3039 26.1819 57.0754 26.8007 57.0031 26.9597C56.9294 27.1188 56.2108 29.1025 55.4054 31.3697C52.3431 39.9799 52.1334 40.4889 50.8509 42.4394C49.7376 44.1311 48.4276 45.4743 45.8048 47.6127C40.2497 52.1441 36.2316 55.4292 35.8947 55.714C34.7915 56.6495 34.0526 57.2279 33.7736 57.3739C33.5986 57.465 33.4034 57.5402 33.3398 57.5387C33.1793 57.5387 32.3783 57.1151 32.2843 56.9821C32.2438 56.9228 31.1681 55.9107 29.8957 54.7323C29.546 53.7334 30.0217 55.2587 30.0217 54.6847C30.0217 54.1483 29.7757 54.536 33.3398 51.355L36.681 48.501L31.8043 44.6776C30.568 43.3416 30.409 42.0475 31.3445 40.9356C31.8043 40.3891 32.8525 39.899 33.5451 39.9062C34.3245 39.9149 34.8623 40.2546 36.2605 41.6138C38.1141 43.4168 39.6482 43.9865 41.7867 43.6713C43.7502 43.3806 45.6182 41.9767 46.5508 40.0898C47.0164 39.1485 47.0945 38.842 47.1437 37.7547C47.1914 36.7325 47.1451 36.3536 46.8935 35.6871C46.4626 34.5434 45.8496 33.7583 44.9329 33.1713C42.5848 31.669 39.4241 32.0406 37.4085 34.0561C36.5482 34.9164 37.4215 33.3948 37.0196 34.683C36.6726 35.7993 36.2735 36.3342 35.5144 36.7015C34.1828 37.3464 32.9234 36.8981 32.2207 35.5274C31.8433 34.7915 31.8737 34.2984 32.3884 32.76C33.4482 29.5921 34.1408 29.4886 37.0196 28.0514C38.49 27.3183 39.667 27.0364 41.2734 27.0335C41.9645 27.0335 42.5674 26.9728 42.6123 26.899C42.6961 26.7645 41.8792 25.9375 40.6516 24.9138C38.7301 23.3074 36.3169 21.0085 36.1202 20.5935C35.565 19.4223 36.0913 17.8449 37.235 17.2535C37.7917 16.9643 39.0539 16.9571 39.5831 17.2391C39.8217 17.3663 40.7716 18.1413 41.6927 18.9611C45.5503 22.3951 46.4525 23.1455 46.506 22.959C46.5364 22.8534 46.7677 21.4321 47.0222 19.8026C47.2767 18.1731 47.5427 16.5132 47.6121 16.1156C47.683 15.718 47.7813 15.0283 47.8319 14.5815C48.0647 12.5515 49.713 11.4006 51.4437 12.0614C52.7739 12.5689 53.0747 13.4494 52.745 15.8742C52.304 19.1303 52.2245 19.7506 51.9382 22.1883C51.7806 23.5402 51.6187 24.7924 51.5782 24.9717C51.5391 25.1509 51.5666 25.297 51.6389 25.297C51.6461 25.297 51.6534 25.2955 51.6606 25.2941C51.6563 25.297 51.6519 25.2999 51.6461 25.3028C51.4567 25.404 51.37 25.6006 51.3743 25.9173C51.3801 26.3597 51.4018 26.3409 51.8167 25.5355C52.0568 25.07 52.223 24.6593 52.1854 24.6203ZM52.0163 24.8675C51.9787 24.9717 51.8977 25.0888 51.8052 25.1813C51.8645 25.1105 51.9339 25.0078 52.0163 24.8675Z" fill="#FF4242"/>
<path d="M52.1854 24.6203C52.1768 24.6131 52.1667 24.6116 52.1551 24.616C52.4573 24.0434 52.8968 23.0732 53.5446 21.5623C54.1764 20.0889 54.8083 18.7587 54.9456 18.6054C55.4517 18.0459 56.2802 17.7422 57.1101 17.8116C58.4187 17.9201 59.3194 18.8585 59.3194 20.1149C59.3194 20.5024 59.2587 20.9319 59.1835 21.0692C59.0476 21.3237 58.2032 23.6024 57.5121 25.5862C57.3039 26.1819 57.0754 26.8007 57.0031 26.9597C56.9294 27.1188 56.2108 29.1025 55.4054 31.3697C52.3431 39.9799 52.1334 40.4889 50.8509 42.4394C49.7376 44.1311 48.4276 45.4743 45.8048 47.6127C40.2497 52.1441 36.2316 55.4292 35.8947 55.714C34.7915 56.6495 34.0526 57.2279 33.7736 57.3739C33.5986 57.465 33.4034 57.5402 33.3398 57.5387C33.1793 57.5387 32.3783 57.1151 32.2843 56.9821C32.2438 56.9228 31.1681 55.9107 29.8957 54.7323C29.546 53.7334 30.0217 55.2587 30.0217 54.6847C30.0217 54.1483 29.7757 54.536 33.3398 51.355L36.681 48.501L31.8043 44.6776C30.568 43.3416 30.409 42.0475 31.3445 40.9356C31.8043 40.3891 32.8525 39.899 33.5451 39.9062C34.3245 39.9149 34.8623 40.2546 36.2605 41.6138C38.1141 43.4168 39.6482 43.9865 41.7867 43.6713C43.7502 43.3806 45.6182 41.9767 46.5508 40.0898C47.0164 39.1485 47.0945 38.842 47.1437 37.7547C47.1914 36.7325 47.1451 36.3536 46.8935 35.6871C46.4626 34.5434 45.8496 33.7583 44.9329 33.1713C42.5848 31.669 39.4241 32.0406 37.4085 34.0561C36.5482 34.9164 37.4215 33.3948 37.0196 34.683C36.6726 35.7993 36.2735 36.3342 35.5144 36.7015C34.1828 37.3464 32.9234 36.8981 32.2207 35.5274C31.8433 34.7915 31.8737 34.2984 32.3884 32.76C33.4482 29.5921 34.1408 29.4886 37.0196 28.0514C38.49 27.3183 39.667 27.0364 41.2734 27.0335C41.9645 27.0335 42.5674 26.9728 42.6123 26.899C42.6961 26.7645 41.8792 25.9375 40.6516 24.9138C38.7301 23.3074 36.3169 21.0085 36.1202 20.5935C35.565 19.4223 36.0913 17.8449 37.235 17.2535C37.7917 16.9643 39.0539 16.9571 39.5831 17.2391C39.8217 17.3663 40.7716 18.1413 41.6927 18.9611C45.5503 22.3951 46.4525 23.1455 46.506 22.959C46.5364 22.8534 46.7677 21.4321 47.0222 19.8026C47.2767 18.1731 47.5427 16.5132 47.6121 16.1156C47.683 15.718 47.7813 15.0283 47.8319 14.5815C48.0647 12.5515 49.713 11.4006 51.4437 12.0614C52.7739 12.5689 53.0747 13.4494 52.745 15.8742C52.304 19.1303 52.2245 19.7506 51.9382 22.1883C51.7806 23.5402 51.6187 24.7924 51.5782 24.9717C51.5391 25.1509 51.5666 25.297 51.6389 25.297C51.6461 25.297 51.6534 25.2955 51.6606 25.2941C51.6563 25.297 51.6519 25.2999 51.6461 25.3028C51.4567 25.404 51.37 25.6006 51.3743 25.9173C51.3801 26.3597 51.4018 26.3409 51.8167 25.5355C52.0568 25.07 52.223 24.6593 52.1854 24.6203ZM52.0163 24.8675C51.9787 24.9717 51.8977 25.0888 51.8052 25.1813C51.8645 25.1105 51.9339 25.0078 52.0163 24.8675Z" fill="#FF4242"/>
<path d="M34.1362 57.0866C34.4077 56.9414 35.1266 56.3663 36.1999 55.4362C36.4768 55.1969 39.311 52.8275 43.4438 49.3802C41.2225 50.6514 39.5285 50.1547 36.9652 48.2642L32.6874 51.575C30.0236 53.4668 29.5608 53.9398 29.5608 53.9398C30.0235 54.4128 30.3635 54.46 30.3635 54.46C31.6014 55.6317 32.648 56.6381 32.6874 56.697C32.7788 56.8293 33.5581 57.2505 33.7142 57.2505C33.7761 57.2519 33.966 57.1772 34.1362 57.0866Z" fill="#E53030"/>
<g filter="url(#filter0_i_310_2023)">
<rect x="30.1409" y="36.0073" width="7.76542" height="3.23559" rx="1.6178" transform="rotate(10.9884 30.1409 36.0073)" fill="white"/>
</g>
<mask id="mask0_310_2023" style="mask-type:alpha" maskUnits="userSpaceOnUse" x="29" y="36" width="9" height="5">
<rect x="30.1409" y="36.0073" width="7.76542" height="3.23559" rx="1.6178" transform="rotate(10.9884 30.1409 36.0073)" fill="#D9D9D9"/>
</mask>
<g mask="url(#mask0_310_2023)">
<rect x="33.9519" y="36.748" width="6.3094" height="7.54971" transform="rotate(10.9884 33.9519 36.748)" fill="#96D2EE"/>
</g>
<defs>
<filter id="filter0_i_310_2023" x="29.8025" y="36.2856" width="7.68311" height="4.09961" filterUnits="userSpaceOnUse" color-interpolation-filters="sRGB">
<feFlood flood-opacity="0" result="BackgroundImageFix"/>
<feBlend mode="normal" in="SourceGraphic" in2="BackgroundImageFix" result="shape"/>
<feColorMatrix in="SourceAlpha" type="matrix" values="0 0 0 0 0 0 0 0 0 0 0 0 0 0 0 0 0 0 127 0" result="hardAlpha"/>
<feMorphology radius="4" operator="dilate" in="SourceAlpha" result="effect1_innerShadow_310_2023"/>
<feOffset dy="4"/>
<feGaussianBlur stdDeviation="0.5"/>
<feComposite in2="hardAlpha" operator="arithmetic" k2="-1" k3="1"/>
<feColorMatrix type="matrix" values="0 0 0 0 0 0 0 0 0 0 0 0 0 0 0 0 0 0 0.25 0"/>
<feBlend mode="normal" in2="shape" result="effect1_innerShadow_310_2023"/>
</filter>
</defs>
</svg>
