<svg width="24" height="24" viewBox="0 0 24 24" fill="none" xmlns="http://www.w3.org/2000/svg">
<mask id="mask0_2621_18476" style="mask-type:alpha" maskUnits="userSpaceOnUse" x="0" y="0" width="24" height="24">
<rect width="24" height="24" fill="#D9D9D9"/>
</mask>
<g mask="url(#mask0_2621_18476)">
<path d="M3 21.4002V2.6002C3 2.48353 3.05 2.40436 3.15 2.3627C3.25 2.32103 3.34167 2.34186 3.425 2.4252L4.15 3.1502C4.25 3.2502 4.36667 3.3002 4.5 3.3002C4.63333 3.3002 4.75 3.2502 4.85 3.1502L5.65 2.3502C5.75 2.2502 5.86667 2.2002 6 2.2002C6.13333 2.2002 6.25 2.2502 6.35 2.3502L7.15 3.1502C7.25 3.2502 7.36667 3.3002 7.5 3.3002C7.63333 3.3002 7.75 3.2502 7.85 3.1502L8.65 2.3502C8.75 2.2502 8.86667 2.2002 9 2.2002C9.13333 2.2002 9.25 2.2502 9.35 2.3502L10.15 3.1502C10.25 3.2502 10.3667 3.3002 10.5 3.3002C10.6333 3.3002 10.75 3.2502 10.85 3.1502L11.65 2.3502C11.75 2.2502 11.8667 2.2002 12 2.2002C12.1333 2.2002 12.25 2.2502 12.35 2.3502L13.15 3.1502C13.25 3.2502 13.3667 3.3002 13.5 3.3002C13.6333 3.3002 13.75 3.2502 13.85 3.1502L14.65 2.3502C14.75 2.2502 14.8667 2.2002 15 2.2002C15.1333 2.2002 15.25 2.2502 15.35 2.3502L16.15 3.1502C16.25 3.2502 16.3667 3.3002 16.5 3.3002C16.6333 3.3002 16.75 3.2502 16.85 3.1502L17.65 2.3502C17.75 2.2502 17.8667 2.2002 18 2.2002C18.1333 2.2002 18.25 2.2502 18.35 2.3502L19.15 3.1502C19.25 3.2502 19.3667 3.3002 19.5 3.3002C19.6333 3.3002 19.75 3.2502 19.85 3.1502L20.575 2.4252C20.6583 2.34186 20.75 2.32103 20.85 2.3627C20.95 2.40436 21 2.48353 21 2.6002V21.4002C21 21.5169 20.95 21.596 20.85 21.6377C20.75 21.6794 20.6583 21.6585 20.575 21.5752L19.85 20.8502C19.75 20.7502 19.6333 20.7002 19.5 20.7002C19.3667 20.7002 19.25 20.7502 19.15 20.8502L18.35 21.6502C18.25 21.7502 18.1333 21.8002 18 21.8002C17.8667 21.8002 17.75 21.7502 17.65 21.6502L16.85 20.8502C16.75 20.7502 16.6333 20.7002 16.5 20.7002C16.3667 20.7002 16.25 20.7502 16.15 20.8502L15.35 21.6502C15.25 21.7502 15.1333 21.8002 15 21.8002C14.8667 21.8002 14.75 21.7502 14.65 21.6502L13.85 20.8502C13.75 20.7502 13.6333 20.7002 13.5 20.7002C13.3667 20.7002 13.25 20.7502 13.15 20.8502L12.35 21.6502C12.25 21.7502 12.1333 21.8002 12 21.8002C11.8667 21.8002 11.75 21.7502 11.65 21.6502L10.85 20.8502C10.75 20.7502 10.6333 20.7002 10.5 20.7002C10.3667 20.7002 10.25 20.7502 10.15 20.8502L9.35 21.6502C9.25 21.7502 9.13333 21.8002 9 21.8002C8.86667 21.8002 8.75 21.7502 8.65 21.6502L7.85 20.8502C7.75 20.7502 7.63333 20.7002 7.5 20.7002C7.36667 20.7002 7.25 20.7502 7.15 20.8502L6.35 21.6502C6.25 21.7502 6.13333 21.8002 6 21.8002C5.86667 21.8002 5.75 21.7502 5.65 21.6502L4.85 20.8502C4.75 20.7502 4.63333 20.7002 4.5 20.7002C4.36667 20.7002 4.25 20.7502 4.15 20.8502L3.425 21.5752C3.34167 21.6585 3.25 21.6794 3.15 21.6377C3.05 21.596 3 21.5169 3 21.4002ZM7 17.0002H17C17.2833 17.0002 17.5208 16.9044 17.7125 16.7127C17.9042 16.521 18 16.2835 18 16.0002C18 15.7169 17.9042 15.4794 17.7125 15.2877C17.5208 15.096 17.2833 15.0002 17 15.0002H7C6.71667 15.0002 6.47917 15.096 6.2875 15.2877C6.09583 15.4794 6 15.7169 6 16.0002C6 16.2835 6.09583 16.521 6.2875 16.7127C6.47917 16.9044 6.71667 17.0002 7 17.0002ZM7 13.0002H17C17.2833 13.0002 17.5208 12.9044 17.7125 12.7127C17.9042 12.521 18 12.2835 18 12.0002C18 11.7169 17.9042 11.4794 17.7125 11.2877C17.5208 11.096 17.2833 11.0002 17 11.0002H7C6.71667 11.0002 6.47917 11.096 6.2875 11.2877C6.09583 11.4794 6 11.7169 6 12.0002C6 12.2835 6.09583 12.521 6.2875 12.7127C6.47917 12.9044 6.71667 13.0002 7 13.0002ZM7 9.0002H17C17.2833 9.0002 17.5208 8.90436 17.7125 8.7127C17.9042 8.52103 18 8.28353 18 8.0002C18 7.71686 17.9042 7.47936 17.7125 7.2877C17.5208 7.09603 17.2833 7.0002 17 7.0002H7C6.71667 7.0002 6.47917 7.09603 6.2875 7.2877C6.09583 7.47936 6 7.71686 6 8.0002C6 8.28353 6.09583 8.52103 6.2875 8.7127C6.47917 8.90436 6.71667 9.0002 7 9.0002ZM5 19.1002H19V4.9002H5V19.1002Z" fill="#48AAD9"/>
</g>
</svg>
