<svg width="20" height="20" viewBox="0 0 20 20" fill="none" xmlns="http://www.w3.org/2000/svg">
<path d="M9.77857 20C7.4119 20 5.3244 19.275 3.51607 17.825C1.70774 16.375 0.545238 14.525 0.0285714 12.275C-0.0380952 11.9917 0.0119048 11.7375 0.178571 11.5125C0.345238 11.2875 0.570238 11.1583 0.853571 11.125C1.1369 11.0917 1.3869 11.1583 1.60357 11.325C1.82024 11.4917 1.97024 11.7167 2.05357 12C2.50357 13.75 3.44107 15.1875 4.86607 16.3125C6.29107 17.4375 7.92857 18 9.77857 18C12.0119 18 13.9036 17.225 15.4536 15.675C17.0036 14.125 17.7786 12.2333 17.7786 10C17.7786 7.76667 17.0036 5.875 15.4536 4.325C13.9036 2.775 12.0119 2 9.77857 2C8.34524 2 7.01607 2.35417 5.79107 3.0625C4.56607 3.77083 3.59524 4.75 2.87857 6H4.77857C5.0619 6 5.2994 6.09583 5.49107 6.2875C5.68274 6.47917 5.77857 6.71667 5.77857 7C5.77857 7.28333 5.68274 7.52083 5.49107 7.7125C5.2994 7.90417 5.0619 8 4.77857 8H1.37857C1.0119 8 0.720238 7.85417 0.503571 7.5625C0.286905 7.27083 0.236905 6.95833 0.353571 6.625C1.05357 4.65833 2.2619 3.0625 3.97857 1.8375C5.69524 0.6125 7.62857 0 9.77857 0C11.1619 0 12.4619 0.2625 13.6786 0.7875C14.8952 1.3125 15.9536 2.025 16.8536 2.925C17.7536 3.825 18.4661 4.88333 18.9911 6.1C19.5161 7.31667 19.7786 8.61667 19.7786 10C19.7786 11.3833 19.5161 12.6833 18.9911 13.9C18.4661 15.1167 17.7536 16.175 16.8536 17.075C15.9536 17.975 14.8952 18.6875 13.6786 19.2125C12.4619 19.7375 11.1619 20 9.77857 20ZM10.7786 9.6L13.2786 12.1C13.4619 12.2833 13.5536 12.5167 13.5536 12.8C13.5536 13.0833 13.4619 13.3167 13.2786 13.5C13.0952 13.6833 12.8619 13.775 12.5786 13.775C12.2952 13.775 12.0619 13.6833 11.8786 13.5L9.07857 10.7C8.97857 10.6 8.90357 10.4875 8.85357 10.3625C8.80357 10.2375 8.77857 10.1083 8.77857 9.975V6C8.77857 5.71667 8.8744 5.47917 9.06607 5.2875C9.25774 5.09583 9.49524 5 9.77857 5C10.0619 5 10.2994 5.09583 10.4911 5.2875C10.6827 5.47917 10.7786 5.71667 10.7786 6V9.6Z" fill="white"/>
</svg>
