<svg width="81" height="81" viewBox="0 0 81 81" fill="none" xmlns="http://www.w3.org/2000/svg">
<mask id="mask0_1283_8246" style="mask-type:alpha" maskUnits="userSpaceOnUse" x="0" y="0" width="81" height="81">
<rect width="80.8765" height="80.8765" fill="#D9D9D9"/>
</mask>
<g mask="url(#mask0_1283_8246)">
<path d="M20.2163 74.1355C18.3628 74.1355 16.7762 73.4756 15.4564 72.1557C14.1365 70.8359 13.4766 69.2492 13.4766 67.3958V33.6973C13.4766 31.8438 14.1365 30.2572 15.4564 28.9374C16.7762 27.6175 18.3628 26.9576 20.2163 26.9576H26.956C27.9108 26.9576 28.7111 27.2805 29.357 27.9264C30.0029 28.5723 30.3258 29.3726 30.3258 30.3274C30.3258 31.2822 30.0029 32.0825 29.357 32.7284C28.7111 33.3743 27.9108 33.6973 26.956 33.6973H20.2163V67.3958H60.6545V33.6973H53.9148C52.96 33.6973 52.1597 33.3743 51.5138 32.7284C50.8679 32.0825 50.5449 31.2822 50.5449 30.3274C50.5449 29.3726 50.8679 28.5723 51.5138 27.9264C52.1597 27.2805 52.96 26.9576 53.9148 26.9576H60.6545C62.5079 26.9576 64.0946 27.6175 65.4144 28.9374C66.7343 30.2572 67.3942 31.8438 67.3942 33.6973V67.3958C67.3942 69.2492 66.7343 70.8359 65.4144 72.1557C64.0946 73.4756 62.5079 74.1355 60.6545 74.1355H20.2163ZM38.0344 52.9476C37.3885 52.3017 37.0655 51.5013 37.0655 50.5465V16.2583L34.0327 19.2911C33.3587 19.9651 32.5724 20.2881 31.6738 20.26C30.7751 20.2319 29.9888 19.8809 29.3149 19.2069C28.6971 18.5329 28.3741 17.7466 28.346 16.848C28.318 15.9494 28.6409 15.1631 29.3149 14.4891L38.0765 5.72749C38.4135 5.39051 38.7785 5.15181 39.1717 5.0114C39.5648 4.87099 39.9861 4.80078 40.4354 4.80078C40.8847 4.80078 41.3059 4.87099 41.6991 5.0114C42.0922 5.15181 42.4573 5.39051 42.7943 5.72749L51.5559 14.4891C52.1737 15.1069 52.4826 15.8792 52.4826 16.8059C52.4826 17.7326 52.1737 18.5329 51.5559 19.2069C50.8819 19.8809 50.0816 20.2179 49.1549 20.2179C48.2282 20.2179 47.4278 19.8809 46.7539 19.2069L43.8052 16.2583V50.5465C43.8052 51.5013 43.4823 52.3017 42.8364 52.9476C42.1905 53.5934 41.3902 53.9164 40.4354 53.9164C39.4806 53.9164 38.6803 53.5934 38.0344 52.9476Z" fill="#48AAD9"/>
</g>
</svg>
