<svg width="24" height="24" viewBox="0 0 24 24" fill="none" xmlns="http://www.w3.org/2000/svg">
<mask id="mask0_82_150" style="mask-type:alpha" maskUnits="userSpaceOnUse" x="0" y="0" width="24" height="24">
<rect width="24" height="24" fill="#D9D9D9"/>
</mask>
<g mask="url(#mask0_82_150)">
<path d="M3.99994 17.9998V7.09983L2.44994 3.74983C2.33328 3.49983 2.32494 3.24567 2.42494 2.98733C2.52494 2.729 2.69994 2.5415 2.94994 2.42483C3.19994 2.30817 3.45411 2.29567 3.71244 2.38733C3.97078 2.479 4.15828 2.64983 4.27494 2.89983L6.19994 7.04983H17.7999L19.7249 2.89983C19.8416 2.64983 20.0291 2.47483 20.2874 2.37483C20.5458 2.27483 20.7999 2.2915 21.0499 2.42483C21.2999 2.5415 21.4749 2.729 21.5749 2.98733C21.6749 3.24567 21.6666 3.49983 21.5499 3.74983L19.9999 7.09983V17.9998C19.9999 18.5498 19.8041 19.0207 19.4124 19.4123C19.0208 19.804 18.5499 19.9998 17.9999 19.9998H5.99994C5.44994 19.9998 4.97911 19.804 4.58744 19.4123C4.19578 19.0207 3.99994 18.5498 3.99994 17.9998ZM9.99994 12.9998H13.9999C14.2833 12.9998 14.5208 12.904 14.7124 12.7123C14.9041 12.5207 14.9999 12.2832 14.9999 11.9998C14.9999 11.7165 14.9041 11.479 14.7124 11.2873C14.5208 11.0957 14.2833 10.9998 13.9999 10.9998H9.99994C9.71661 10.9998 9.47911 11.0957 9.28744 11.2873C9.09578 11.479 8.99994 11.7165 8.99994 11.9998C8.99994 12.2832 9.09578 12.5207 9.28744 12.7123C9.47911 12.904 9.71661 12.9998 9.99994 12.9998ZM5.99994 17.9998H17.9999V9.04983H5.99994V17.9998Z" fill="#48AAD9"/>
</g>
</svg>
