<svg width="20" height="20" viewBox="0 0 20 20" fill="none" xmlns="http://www.w3.org/2000/svg">
<path d="M9.99984 14.1665C10.2359 14.1665 10.4339 14.0866 10.5936 13.9269C10.7533 13.7672 10.8332 13.5693 10.8332 13.3332V9.99984C10.8332 9.76373 10.7533 9.56581 10.5936 9.40609C10.4339 9.24636 10.2359 9.1665 9.99984 9.1665C9.76373 9.1665 9.56581 9.24636 9.40609 9.40609C9.24636 9.56581 9.1665 9.76373 9.1665 9.99984V13.3332C9.1665 13.5693 9.24636 13.7672 9.40609 13.9269C9.56581 14.0866 9.76373 14.1665 9.99984 14.1665ZM9.99984 7.49984C10.2359 7.49984 10.4339 7.41998 10.5936 7.26025C10.7533 7.10053 10.8332 6.90261 10.8332 6.6665C10.8332 6.43039 10.7533 6.23248 10.5936 6.07275C10.4339 5.91303 10.2359 5.83317 9.99984 5.83317C9.76373 5.83317 9.56581 5.91303 9.40609 6.07275C9.24636 6.23248 9.1665 6.43039 9.1665 6.6665C9.1665 6.90261 9.24636 7.10053 9.40609 7.26025C9.56581 7.41998 9.76373 7.49984 9.99984 7.49984ZM9.99984 18.3332C8.84706 18.3332 7.76373 18.1144 6.74984 17.6769C5.73595 17.2394 4.854 16.6457 4.104 15.8957C3.354 15.1457 2.76025 14.2637 2.32275 13.2498C1.88525 12.2359 1.6665 11.1526 1.6665 9.99984C1.6665 8.84706 1.88525 7.76373 2.32275 6.74984C2.76025 5.73595 3.354 4.854 4.104 4.104C4.854 3.354 5.73595 2.76025 6.74984 2.32275C7.76373 1.88525 8.84706 1.6665 9.99984 1.6665C11.1526 1.6665 12.2359 1.88525 13.2498 2.32275C14.2637 2.76025 15.1457 3.354 15.8957 4.104C16.6457 4.854 17.2394 5.73595 17.6769 6.74984C18.1144 7.76373 18.3332 8.84706 18.3332 9.99984C18.3332 11.1526 18.1144 12.2359 17.6769 13.2498C17.2394 14.2637 16.6457 15.1457 15.8957 15.8957C15.1457 16.6457 14.2637 17.2394 13.2498 17.6769C12.2359 18.1144 11.1526 18.3332 9.99984 18.3332ZM9.99984 16.6665C11.8609 16.6665 13.4373 16.0207 14.729 14.729C16.0207 13.4373 16.6665 11.8609 16.6665 9.99984C16.6665 8.13873 16.0207 6.56234 14.729 5.27067C13.4373 3.979 11.8609 3.33317 9.99984 3.33317C8.13873 3.33317 6.56234 3.979 5.27067 5.27067C3.979 6.56234 3.33317 8.13873 3.33317 9.99984C3.33317 11.8609 3.979 13.4373 5.27067 14.729C6.56234 16.0207 8.13873 16.6665 9.99984 16.6665Z" fill="#FF6161"/>
</svg>
