<svg width="12" height="12" viewBox="0 0 12 12" fill="none" xmlns="http://www.w3.org/2000/svg">
<circle cx="6" cy="6" r="6" fill="#FF4242"/>
<path d="M2.444 8.80005C2.188 8.80005 1.98 8.59205 1.98 8.33605V3.66405C1.98 3.40805 2.188 3.20005 2.444 3.20005H4.548C5.596 3.20005 6.452 4.04805 6.452 5.10405C6.452 5.88805 5.948 6.56005 5.268 6.80805L6.332 8.02405C6.508 8.21605 6.484 8.51205 6.292 8.68805C6.204 8.76005 6.092 8.80005 5.988 8.80005C5.852 8.80005 5.724 8.74405 5.636 8.64005L4.204 7.00005H2.916V8.33605C2.916 8.59205 2.708 8.80005 2.444 8.80005ZM2.916 6.07205H4.548C5.084 6.07205 5.516 5.64005 5.516 5.10405C5.516 4.56805 5.084 4.13605 4.548 4.13605H2.916V6.07205ZM9.198 6.90405L10.134 8.03205C10.302 8.23205 10.278 8.53605 10.078 8.69605C9.99 8.76805 9.878 8.80805 9.774 8.80805C9.638 8.80805 9.502 8.75205 9.414 8.63205L8.582 7.64005L7.758 8.63205C7.67 8.75205 7.534 8.80805 7.39 8.80805C7.294 8.80805 7.182 8.76805 7.094 8.69605C6.894 8.53605 6.87 8.23205 7.03 8.03205L7.974 6.90405L7.03 5.77605C6.87 5.57605 6.894 5.27205 7.094 5.11205C7.294 4.94405 7.59 4.96805 7.758 5.16805L8.582 6.16805L9.414 5.16805C9.582 4.96805 9.878 4.94405 10.078 5.11205C10.278 5.27205 10.302 5.57605 10.134 5.77605L9.198 6.90405Z" fill="white"/>
</svg>
